<svg xmlns="http://www.w3.org/2000/svg" viewBox="0 0 426.23 313.68"><defs><style>.cls-1{fill:#ccc;stroke:#fff;stroke-width:0.28px;}</style></defs><title>Chine</title><g id="Calque_2" data-name="Calque 2"><g id="Calque_1-2" data-name="Calque 1"><path id="CN-34" class="cls-1" d="M298,185.29l.38-.11.46.71.68.49-.13.18,1.31.22.46.62.57-.16.36.13.06.94.59.34-.21.53.71.43,0,.23.42.24h.81l.31-.19.43.54.67-.31.45.67.33-.38.32.29.24.88.38,0-.18,1.32,1.45,0,.17-.28h1l.51.19-.23.15.07.52-.34.38V195l-.39-.14-.12.16-.11.84-.4.21.14.29-.34.73h.31l0,.38.36.32.79-.28.14-.35.23.13L311,199l.48.27-.55.29.09.64.27-.09.1.66.46.07,0,.41.56-.16,1,.14.35-.19.51.22.29-.19-.08-.88.47-.07v-.49l.21,0,.09-.31.57.16.58-.17v.45l.18,0,.43.69.54,0,.18.88-.12.42.27.54-.11.28-.24-.2-.23.87-.44.32-.35-.52-.37.08-.32-.42h-.31l.09-.28-.45.18-.13-.3-.23.18-.49-.22-1,.18-.06.23.35.37-.12.3.63,0-.06.71.18.4-.35.33.05.66-1.08.2-.05.58-.74.34-.16,1.2.68.68.27.05-.14.38.3.44.69-.17.34.28.1.19-.31.24.08.28.47.08.34-.41.18.48.44,0,.17.82-.12.77-.41.45-.45.05-.31.51.4.2.19.38,2.1,0,.63-.55.14.25.56.16.44-.09.09-.3.2.28-.15.46.28.06-.1.18,1.72.34h0l0,1-.47.81.08.62-.31.47h-.28v.56l-.31.48-.2,0-.21-.32-.48.51-.51,0,.18.29L318,219l.21.2.37-.15.16.91.35.4-.26.13-.25-.17-.52.23-.16.41-1-.27-.3.16-.62-.44-.5.35.07.69.21.16-.52.42.32.05-.18.38.22.65,0,.61-.38.09-.09.44-.5.31-.11.88-.62.67-.7.29-.45.83h-.46l-.13.25-.6-.14-.06.57-.43-.08-.36.32h0l-.44-.24,0-.66-.86-.57-.55.22-.85-.2-.73.21-.35-.52-.47.23-.34-.1-.19-.22.12-.23-.54-.27,0-.49-.32-.36.07-.43-.43.29-.15-.3-.31.22-.24-.07,0-.62-.28-.15-.54.19,0,.32-.39.25.43.41-.16.55-.81.22-1.08.9-.31,0-.24-.26-.28.27-.48-.58.21-.3-.2-.15.69-.82.41-.12.62-1.1-.22-.24-.27.07,0-.3-.19,0-.1-.24-.81-.31-.54.16-.37,1.25h-.46l-1.46.93-.39-.39-.49.07h0l0-.53-.4-.6.12-.58-.18-1.35-.49-.4-.1-.33-.53-.12.08-.19-.22-.38.41-.35-.34-.22.13-.52-.3-.57-.41-.06,0-.39-.32-.32.14-.56.61-.17-.18-.48.18-.25,1.44-.79-.2-.42-.73-.23-.47-.83-.72.27-.48-.71-.32-.08-.53.52-.36-.87-.44-.13,0-.37-.19-.28-.32,0-.12-.47h0l0-.78.77-.9.07-.51,1.25-.87.33.15.29-.19.34.21.67-.29-.14-.65.21-.33.11-2-.2-.46-.19-2.2-.27-.16.58-.51-.21-.06-.81.92-.1-.32-.08.23-.43-.16-.21.7-.48-.15-.29.21.1-.13-1.1-1.28-.72.19v-.28l-.73,0v-2.19l-.42-.37-.73-.05-.14-.27-.5,0-.41-.41.34-.3-.24-.53.06-.36.23-.25.66.59.79,0,.29-.31.73-.1.5-1.6-.34-.43.21-1,.2-.15.17.14.1-.45h1l.56-.23-.5-1.58.35-.07.11-.73-.59-.08.36-1.27.36-.28,1.09,0,.32.57.24-.24.55.26.23.3-.11.49.52.37-.09.26.2.41.6.62,1.91-.8,0-.41.56-.15.3-.31.53.15.05-.7-.84-1.18.29-.49-.19-.45.26-.42-.53-.16-.32.24-.08-.2-.55.18,0-.39-1-.55-.38-.67.28-.44-.06-.53h0l.33.22.29-.47.26.06Z"/><path id="CN-11" class="cls-1" d="M301,142.08l-.14.14-.56-.21.07.27-.76-.37-.22.08-.62.68-.57.27.35.65-.77-.08-.65-.48-.08-.46-.35-.21-.4.13-1-.23-.17.21-.26-.28-.13.31-.49.15-.19.32h-.37l-.48-.8-.84,0-.59-.51.06-.78-.46-.31,1-.36-.35-.26,0-.62-.64-.37.16-.66,1.16-.84,1-.16.22-.38.41.35.28-.73.55-.38-.34-.84-.27,0-.7-.78,0-.42-.29-.1.16-.36,1.06-.69.52.34.83-.32.93-1.58.39.29.81-.27.32.16,0-.21-.89-1,0-.27.22-.1.22.34.5.08-.14-.75h1l.1-.61.25-.14.35.24-.14.51.34.7.52.53.38.09,1,1.28,1-.08,1.15.44.67-.24.66.13v.27l-.37-.14-.12.17.09.5h-1l-.45.28.08.29-.36.16.24.56-.08.55.88,1.31.25,0h0V137l-1.29.8h0l-1,.18-.41.3-.39-.16-1.14.17-.15.56.16.57.94.48.22.61-.32.24,0,.54h0l0,.16-.35.14Z"/><path id="CN-50" class="cls-1" d="M243.38,205.45l1,.82.54,0,.08.32.91.6,1,.24,1.06.83.07.32.55.18-.11.26.2.43,2-.11h0l1.06.26.14.7-.17.48.62-.11.44.31.67.1-.21.31,1.36.69.36,2-.51.42,0,.49.31.41-.61,1.48-.41-.25-.12-.54-.26.22-.48-.14-.84.31-.79.69-.12.39-.4.15-.06.35-.28-.15-.58.42-.77,1,0-.57-.3-.55-1.16.8-.36-.25.2-.67-.53-.06-.56.27-.94,1-.64,0-.29-.72-.4,0,.09.35-.51.53-.42-.23-.61.13-.16.79,1.2,1.14-.08.84-.42.72.18,0,.07.54-.12,1-.6-.11-.32.15,0,.38.12-.15.15.18.12.62.49.2.21-.21-.06-.4.43-.56.46,0,.15,1.27h.29l.26.36.2-.21,0,.31.4-.13.23.2-.09.25h.24l-.28,1,.51.43-.16.74.43,0,.65-.51.28.25V229l.19.23-.16.5.84.64h0l0,.23.63.37-.58,1.33,0,.78.44.37-.35.31.1.2-.59.36.11.16.64-.14.2.21-.32.71h0l-.56.29-.28.43-.16.81-.32.48.05.43-.45-.16-.22.39-.53-.41-.49.1-.27-.33-.34.36-.25-.54.33-.37,0-.94-.41-.52-.5.28.31.48-.24.3.13.19-.36.09-.31-.24.2-.48-.22-.9.27-.06.16-.76-.42-.19-.71.27-.92-.36.32-.91-.3-.48.1-.31-.3-.63-.06-.89-.22,0-.26.38-.29-.31-.31.15-.59-.26-.37.48-.44-.08-.72.57-.4-.77.1-.63-.31-.38-.52.35-.25-.25-.39.05-.18-.4-.55.35-.23-.23-.3.15.09.54-.33.11.11.5-.17.23.5.5-.36.72-.3,0-.13.25-.61.36-.18-.47-.59-.46-.41.17-.38-.15-.24.26.06.59-.25.06-.38-.35-.44.35-.09.25.43.45-.42.71-.34-.25,0,.45-.36.25.16.36-.15.24-.17,0-.12-.31-.17.09-.44-.24-.2.18.6-1.35-.53-.23.1-.23-.85-.92-.19.08.06.33.47.87-.37.7.22.36-.68-.28-.17.36h0l-.31-.21,0-.64-.22-.06-.37-1.16,0-.44-.3-.38-1.17-.1,0-.33-.41-.25-.58.63-.15-.22-.55-.08-.39-.84.1-.19-.28-.26.14-.23-.32-1.24-.29.29-.11-.17-1.26-.14,0-.23h-.26l-.06-.21.12-.48-.37-.15,0-.2-.44,0-.22-.76.16-.52.19.11.52-.72.39,0,.06-.35.28.13.31-.24.31-.8.82-.18-.11-.56.22-.81-.37-.11L222.65,222l.82-.29-.24-.53.75.15-.1-.38.18-.45.6-.59.13.33.32-.14,1.75.73.67,1.06.37-.14.07-.25.88-.12L229,221l.82-.09.54.3-.18.37.92,1.55,1.23,0,.34-.4.32.38.36-.18,1.11-1.34.34-.82.56-.65.16-.69.88-1.15-.6-.85.61-.78.5-.09.38.31.57-.58.31.57.75.06.76-.8-.31-.15,0-.46.78-.57-.31-.47.53-.81-.43-.09v-.23l1.08-.67-.18-.35.38-.27.11-.45-.22-.26.93-.12.71-1,.34.08v-.18l.41-.24-.19-.47.14-.23-.23-.24-.31,0,0-.21-.74-.41-.61-.87.25-.22.45.07-.23-.29.17-.21-.08-.23.71.06-.23-.57-.28-.1,0-.29.22-.14.54.13Z"/><path id="CN-35" class="cls-1" d="M305.17,271.61l.25.38.58-.13,0,.28-.22-.06,0,.49h-.44l.08.55-.83.07.72-.75-.56-.11Zm14.43-11.23.43.44.3-.05-.26.17.1.15-.75-.3,0-.25Zm2.16-3.12v.43l.17-.07.28.42h.3l-.21.23-.33,0,0,.35.37.2-.7.22-.06.14.2.07-.18.11-.56-.58.16-.29h.32l-.05-.64-.2.17-.09-.22Zm-11.24,7.52-.42.78,0,.24.58.17-.15.55-.28.24-.33-.09-.12-.19.12-.82-.14,0-.25.23.27.28-.43.18.21.26-.86-.24-.17.38.11.25,1.12-.11-.28.44.51-.05.27.58-.81.6,0-.23-.12.07-.1.31-.27-.31-.24.27.23.18-.33.48.06.49-.52.15-.62.85-.07-.23.51-.82-.78.21.09.48-.49.44.06.75-.37.57.09-1.38-.78-.13-.38-.29-.2.08.05.19.45.1.1.61-.39.53-.25-.26-.61.26,0,0-.31.17.1.72-.39.08-.28,0h0l-1-.68-.19-.91-.35-.55.08-.72-.39-.67.48-.71-.41-.32-.16-1.06-.48-.5,0-.35-.64-.52.41-.75-.12-.26-1.38.21-.55.31-.21-.79-.49-.2v-.23l-.32-.24.3-.3-.17-.26-.26,0-.33.5-.45.08,0-.25-.37-.3-.88.09-.32-.38-1-.25h0l-.08-.28.23-.11-.21-.27.4-.25-.4-.49-.12-.72.5-.21.58-.65-.13-.44.19-.47-.19-.16.47-.82,0-.92.35-.14.15-.41.31.06.05-.18-.34-.64L298,255l.17-.58.68-.55-.15-.49-.49-.06,0-.66.83-1,.57.2.26-.71-.68-.76.2-.6-.39-.51.32-.46-.07-.57,1-1.14,1.45-.36.26.09.74-.6.12-.57.72-.79v-.2l-.44-.26v-.44l.19-.19-.13-.62-.22-.56-.17.15-.25-.13,0-.69.28-.17.29.35.05-.44h.67v-.22l.68-.49-.1-.76.27-.22.12.33.73-.63.27,0,.25-.38.42.43.15.5.89.53.35-.34.05-.38.47-.4,1.2-.32.46.19.22-.72,1.54-.33.18-.71-.37-.29.76-.5h0l.42.4.07-.32.54-.08.21.28.7-.44.36.47.3,0-.25.51.23.11,0,.35-.56.52.08.62.61.52.55,1.52-.16.21.26.9-.35.39.15.05h0l.17.4.38,0h0l.36-.28.32.2.46-.1.05.39.79.1.92-.89.52.17.3-1.13.31.1.13-.24.57,0-.06.61.54.67h0l-.11.6.63.79h0l-.08.17h0l.47,0h0l.1-.17.17.15.45-.09v-.19h0l.44-.32h0l.22.3.72-.61.76-.09.21.3h0l.46,0,.08.42h0l.5.65-.16.14.24.57h0l-.13.08-.32-.68-.48.08,0-.47-.29.12-.15-.17,0,.33-.35-.12,0,.57.22-.36h.33l.18.3.57-.07v.3l.36.38-.39.1v.24l-.79-.16.17.41-.2,0-.1.27h.16l0,.24-.66.19.4.07v.39l-.77-.15-.15.44-.31-.15-.05.54.34.26.29,0-.3.32.44.23-.38.27,0,.34h.21l-.3.23-.1-.24-.45.33-.41,0-.16.2.1.14-.42.37-.41-.09.11-.45.8-.33.1-.48.73-.75-1,.11-.16.83-.25.17-.22-.49-.23.16-.12-.17.08-.44.32-.13v-.19l-.33.14,0-.28-.16,0-.06.61-.29.37-.51-.43-.27,0,.06-.31-.29.14.07.22.48.2-.32.65-.34.05.22.25.95-.09.33.25-.12.25.47.76-.4.21-.88-.55-.41.42.54.13.15.6,1.05-.65.25.42-.09.18.68-.19-.5.43-.28-.11-.37.18.06.27-.09-.14-1,.15.1.49-1,1.1,1.42.51-.2.68-.42.13-.14.45.12.55-.18.6-.69.13-.17.26.22.54.57-.17.16.23,0,.19-.27.18.22,0-.1.16.41.49v.54l-.42.12-.11-.91-.36.36.33.08-.42.15-.18-.57-.33-.13.13-.2h-.41l0-.16-.37-.15,0,.8-.35.15-.26-.6-.64.43-.13.36.44.22.15.41-.25.07.14.19.24-.43.77.49-.48.18-.05.44-.76,0-.36-.33L317,261l.46.38-.41.18-.51-.2.05-.29.22,0,.07-.51-.19-.07-.39.27-.11-.12.1-.32.43,0-.42-.15-.71.24-.11.13h.23l0,.35h.46l-.3.41.22.19-.66,0-.2.27.77.64.4-.43-.22.58.2.19.2-.08-.2.19-.66-.13,0,.35.51.28-.77-.14-.91.35-.31,0-.07-.3-.07.28-.26,0,.11.44.47-.13,0,.29.37,0-.45.72-.46,0,0,.44.19-.07v.19l-.56.63-.22-.51-.83-.41-.07-.46-.2.25.06.5-.57.17-.34-.16-.44.5-.26-.22.14-.66Z"/><path id="CN-44" class="cls-1" d="M273.7,286.69l-.51.63.12.24-.19.28.16.23-.31.16-.28-.34.39-.47-.37.06-.18-.24.69-.52Zm2.5-.87.39-.05-.12-.39-.28.06Zm-18.77,5.95.24,0,.36-.86-.66.13-.11.4Zm.19,1.64.33,0,.22-.51-.3-.15-.33.39Zm13.65-5.34.23,0-.12-.12.18-.12.36.11.29-.2-.19-.14.24-.29-.12-.16-.42.17Zm30.65-15,.41-.25.23.12.31-.27.12.79.73-.58h0l-1-.68-.19-.91-.36-.55.08-.72-.38-.67.48-.71-.41-.32-.16-1.06-.49-.51,0-.34-.64-.53.4-.74-.11-.26-1.39.21-.55.31-.21-.79-.49-.2,0-.23-.32-.25.29-.29-.16-.26-.27,0-.33.5-.45.08.05-.25-.37-.3-.88.09-.32-.38-1-.25h0l.13.44-.58-.19-.42,1.2.32.44-.25.18.48.76-.82.18-.3-.44-.71-.18-.65-1-.44-.17-.32.05-.08.27-.51-.11-1.2.69-.31-.32-.87.42-.23-.1-.28.78-.87-.4-.25.64-.35-.37-.47.33-.42-.14-.7.51-.52-.76-.34.11-.2-.42-.73-.34,1.09-.58,0-.45.46-.54,0-.56,1-.54.2-.48.6.06.18-.26.39-.07-.09-.31-.25-.1.42-.53,0-.29-.25-.3-.49-.08-.67-.68-.27.29-.41,0-.35.5-.58-.11,0,.24-.52.08-.77-.16-.63.44-.11-.24.15-.59-.37-.29.08-.27-.23-.17h0l-.52.16-.46.81-.39,0-.08-.26h0l-1.23.38h0v-.25l-.26-.16-.67,0-.52-.3L277,259l-.34-.06-.07-.56-.11.16-.34-.12-.5.21-.22.58-.2,0-.59.54-.49,0-.11.25-.48-.2.05.65.77-.05.38.45-.47.29.32.56-.24.45.25.35-.05.37-1,.26H273v-.34l-.26-.16,0-.3-.26-.07.14-.38-.46-.55-.81,0-.55-.17-.12-.24-.33.3-.24-.38-.71.25-.36-.33-.4,1.41-.24.26.39.53-.12.58-.36.06-.57.7h0l-.44.18-.22.65.52.62-.11.61.52.85-.57.74-.17-.06-.58.42,0,.92.37.93-.53.13.07.23-.35.24,0,.55-.73-.2-.38.16-.21.67.34.13-.34.53-.89.09-.06.64-.54.58-.29,1,.16.2-.19.18.29.91-.14.54.37.43-.49.55.12.24-.14.3-1,1.07-1.11.14.22.26-.23.32-.68.08-.08.23-.88.21-.12.19-.24-.17-.18.85-.4,0,.18.2v.58l.21,0,.32.6-.41-.09-.22.15-.32.33.19.34-.27.27-.47-.33-.44.35-.61-.45-.3.3-.25-.19-.11.22.29.26-.09,1,.2.22,0,.53H256l-.21-.21-.37.28-.86-.16-.43.25-.54-.11-.3.39-.26,1.27-.71.13-.19-.26-.14.77h0l.36.79.68.06.05.2.26-.1-.25.21,0,.4-1.07.09.08,1-.67.73.25.44-.32,1.19.73,1.43-.19.56.37,0,.22.36,0,.57.5.08.52.4.29-.05-.27.45-.52-.39-.08.24-.26,0,.5.5-.05.86.47-.53.17.21.32-.2.5.37.37,0,.08-.26.77.12.92-.52.66-1.1-.29-.63-.19-.83-.42.11-.34-.21-.14-.07,0-.31.41.22v-.82l-.42-.25-.91,0-.22-.92.33-.46.23.15.35-.5,0,.23-.67.66v.22l1-.38h.81l.42.52.16-1.05-.8.12-.24-.32-.48.16v-.24l.61-.65.57-.23.21.12.73-.15,1-1.26.79.1,1.35-.6-.17-.17-.3.1-.09-.2.22-.19.3.11.17.39,1.3-.23-.2.57,1.32-1.09.18.43.86-.22.34.13.32-.6.63-.46,0-.39-.65-.31,0-.16.66,0,.45.81.37-.15-.13.33-.38,0,.11.29-.29.38.34,0,.36-.33.74-.21-.21-.18-.4,0-.13-.29.13-.18,1.31-.63.54,0,.07.38.39.32,1-.26.13-.68,1,.49.34,0,1.25-1.35.55.15v.25l.39.29.73-.72-.16-1.12.55-.51v-.41l.21.56-.07.58.57.87.44-.38-.06-.27.19-.12.25.4.44.1.31-.59-.25-.15V284l.25-.21-.11-.21.13-.07.57.95.33-.3-.21-.44.5-.53-.14-.44.27-.15-.11-.25.25-.17-.57-.13v-.27l.79-1.3-.68-1,.41-.17-.2-.23.14-.12.38.21,0,.25.31-.09.29.17.64,1.32.38.19-.27.26.17.31.35-.5.73.14h0l.83-.43.45.13h0l.34-.33.84-.19.63.59.11.64.76-.36-.09-.32-.37-.23-.32.12.07-.29.27,0,.33-.43-.66.05.14-.45.36.15,0-.41.88-.38.5,0,.11-.38.3.35-.57.36,0,1,1,.11v.36l.24-.12,0-.54.38-.4-.33-.29-.24.1-.18-.43.33.15.25-.16.25.61.34-.14-.09-.17.26-.44.66-.19.22.27v-.35l.24-.08.3.09-.18.3,1.33,0-.17.29-.33-.08,0,.35.2.17.61-.11.69.41-.05-.41.29-.36h-.33l-.07.31-.2-.33.83-.87.39,0,0,.2.41,0,.4.79.48-.45.15.08.61-.34.58-.1.13.22.3-.14,1-.9.62.22.85-.07.42-.66-.18-.73.16-.3.2-.19.46.16.44-.59.54.24.12-.21-.21,0-.19-.75.74-.68.19-.93.55.06Zm.59,1.18-.24-.18-.27.27,1.28.27.19-.42-.18-.29Z"/><path id="CN-62" class="cls-1" d="M164.55,113l4.56,10.42-1.53,1.53-.06.32,2.51,3.35.22-.09,1.57,1.42.72.33.13.3.12.42L172,133.8l2.72-.16,1.54-1.92,2.16-1,2.71.15.76-.78,2.35.25.54.21.93,1.48.09,1.1L184.28,135l-.79,1.68-2,1.35-1.16,1.69,2.17-.08,1.73,1.31,1.65.48.36.53.13,1,1.26.34V144l2.42,0-.14,1.65.23.84-.16.39.1.56.61-.31.53.8,1.42-.6-.31.62.29.14.18.59.61.21,0,.59,1.41.51.6.56.41-.27.5,0,.2.23.54-.14.07-.39,1.5-1.53-1.84-1.84,2.68-.61,1.78-.74,1.05.64,2.75.71.85-.89.91-.41.74-.88,3.31-1,.72-.05,1.05.42-.27,1.08,1.06,1.83-.22,1.35-1,.45-1.08,2.18-3.23,2.11.5.71.42,1.52-1.27.56.34,2.14,1.8.54,1.55,1.7,2,1.6.7-.17h0l1,.17.4-.29,1.32.29.5-.11-.44.5.26.22-.81.57.23.41.32.28.25,0,.53-.44.45.26.42,1,.43.46,1.37.51.13.86.26-.09.34.24.4.69-.24.34-.66.33.44,1.21-.14.27.71.3.38,1.26.49.58-.09.48.32.78-.12.39h-.45l-.69.73,0,1.06.44.3-.16.45.35-.14.22.57.26.24h.44l.08.33.55-.48.74.09v.23l-.29-.09-.11.24.7,1,.18,0,.16.68.35-.51.89.22V178l.48,0-.26.4,0-.3-1.07.22v.43l1.24-.39-.16.26.37.58.45-.64.12.23h.3l.1.6.78.88,1-1.05,0-.74-.25-.08.08-.2-.27-.41.24-.49-.27-.93.71-.43.7.31.28-.12.38.34.12-.38.41.11.13-.29.25,0,.05-.3.23.06-.08-.33.19,0-.53-.7.61-.37-.3-.15.36-.33v-1.24l-.23.11-.6-.94-.46.11-.58-.44-.39,0-.38-.24-.13.31-.39-.11-.15-.33.27.12.05-.79-.24-.25.23-.54-1.1-.79.64.06-.09-.49.29-.11.29-.83.43-.19.45.25-.14-.24.21-.6-.25-.36.15-.24L230,166l-.41-.72.29.32.15-.23.25.06.07-.82-.27-.68.79.12.22.26.22-.57.75.45,0-.38.83.32.1-.21.46.09.47-.21.77.58h0l.23,1.44,1.23.09.39.68.78.1.2-.14.2.25,1.32.37.35.9.44-.21.06.23-.19.14.32.35.35,0,.42.35.46-.62v.53l.59.23.32-.1.59,1,.57-.34,1.39.91-.16.67-.29.26.44,1.06-.17,1-.25.62h-.5l-.55.53.18.53v1.52l.67.79-.09,1.79-.14.26-.68.22-.83,0-.18-.18-.74.37-.07-.24-.37-.14-1.49.58,0-.21-.63.06-.57-.37h-.38l-.11.44-.44.07.68,1.31.74.78-.35.34-1.16.25-.11-.3-.36-.07-.29.5-1.64-.21-.16.29-.5.17-.2-.47-.55-.27,0-.43L233,182l-.69-.51-2.57.06-.42.71,0,.52.53,1.06-.24.28.12.26-.32,0-.41.44.09.46-.27,0-.75.55.2.49.4.09.46-.17.54.4.2-.05.51.81.5.16-.31,1.05-.56,0-.11-.24-.35-.09-.21.31,0,.16.34-.06.29.85-.63.31-.18,1.09-.39.67,0,.22.31,0,.16.21-.23.44.18.19,0,.53.41.13.33.9-.44.69-.15-.24-.32,0-.18-.72-.56.26-.44-.11-.7.45-.55-.18,0-.34h-1l-.8,1-.12.94h-.83l.61,1,.85.18.33.28,0,.48-.2-.39-.26.38.25,0-.1,1.23-.39.45-.24-.1-1.32.59-1-.24h0l-.41-.15-.41.44.53,1.12-1.18.71-.41-.1-.21.38-.56.21-.52-.44-1.09.4-.37-.53-.66.2-.28-.31-.42.1-.46-.55-.8-.16-.69-.59-.37-.08-.19-.46.08-.45.56,0,.11-.41.3-.17-.63-.23.29-.56-.5-1.58.67.14.2-.3-.4-.21-.54.1-.2-.49-.33-.07-.44-1.15.09-.58-.85-.64-1.94.23-1.25-.45-.33.34-.27-.07-.13-.44.33-.38-.17-.26-.29.06-.23.43-.57.06-1.37-.55.2-.76-.44-.51.25-.36-.2-.44.31-.29-.3-.2-.12-.5-.89-.16-.22-.81-.4-.2-.33.36-.39-.12-.39.18-.27.55-.59.33.34.66-1.6-.06-.28,1-.82-.15-.19.26-.39.07.48.82-.13.51.57.24-.17.41.32-.17-.17.52.15.43.76.35.22.95-.14-.07v.16l-.72.5-.65-.22-.57.69.26.22-.12.72-.66-.38-.25.61-.62,0-.74.74-.35-.11.09-.64-.46-.46.69-.48.09-.55.4-.54-.27-.34,0-.48-.48-.58-.26-.06,0,.46-.22.15h0l-.27.38h-.73l-.28-1.43-.61-.25-.5.08-.23.37-1.09-.27-.5.2.19-1.1-.29-.43-.64-.13-.52-.39-1.19-2-.35-.28.37-1.17.37-.15.17-.35.61,0,.47.43,1.44.22.44.23v.2l2.06.54.27.29,0,.23H196l.26.36.22-.39.48,0,.08-.21.69.37.05-.44.26,0,.13-.53.28,0,.08-.48.57.15.25-.75h.48l-.62-.86-.07-.4-.52-.29h-.53l-.5-.41-.12-.7-.59.41-.75-.65.7-.27.16-.33.5.27v-1.16l.49-.13v-.35l.49-.08.51-.59.63-.35H200l.4-.88.37-.09,0-.55-.25-.11v-.27l-.49-.21.24-.27L200,179l.1-.42H201l.75-1.15.31.22,1,.1.25-.78-.46-1,0-.57.66-.51,1.15.22-.07-.92.2-.82-.6-.41.36-.17L205,172l.49-.09-.27-.4-1.32-.74-.79-2.35-.6-.27-.26-.51,0-.21.86-.31-.67-.84-.45-.21-.1-.32-.65-.44.27-.46-.05-.53.72-.67-.77-.49-.35-.59-.48.08-.1-.43-1-.81-.06.14-.64-.46-.66-.12.44-.87-.55-.34-.14-1.37-.77.85-.21,1.39-.56-.13-.26-.55-.53-.13-2.06-1.68-1-.48-.69-.81-1-.55-.27.14-.64-.51-1.32-.48-.26-1.26-.73-.34-.25.16-.16-.27-.69-.19-.21-.57-.29.11-.29-.75-.74-.31,0,.48-.25.24.3.61.25.11.09,1-.63-.56-2.81-1.38-1-1-.17-.59-.41.07-.6-1-2-1.59.27-.49-.59-.28-.19.21-1.22-1.11h-.41l-1.24,1.34L174,148h-.62l-.51-.68-.65-.07-.14.73-1.27,1.41-.5-.55-2.19-.93-.15-.42-1.25-.61-1.07-.79-2.23-.32-.56.87.37.45,0,1.12-.25.44.24.26-.16.26.13,1-.35.25v.49l.37.28-.22,2.23-1.05-.17-.76-.59-.52,0-.57-.24-.2-.2.06-.58-1.42-.91-.64.17-.61-.47-.32.22-.29-.3-.06-.55-1-.24-.88-.95-.09.2-.5-.24-.71-.78-.11-.4-.47-.06-.6-.46-.87-1.17-.94.23-1.63-.58-.14.19-1.18-.17-.71-.61h-2.44l-.19-.3-.74.21-.13.29-.87.16-.86.08-.29-.24-.94.26-1.45-.31-.39.6-.95.08-1.07.45-.24-.18-.5.29-.46,0-.17-.21h0l-.17-1.09.16-.32,0-1.14-.48-.83-.77-3,1.07-2,0-3.58,3.06.24,2-1.29,1.17-2.41,1.36-2,2.88-2.79,1.83-2.13,2.79-1.46,3.19-.7,1,.3,1.2-.17.91-.5.45-1.08-.21-.94.5-4.59,1.87-1.1h0l2.15-.24,1.8.28Z"/><path id="CN-45" class="cls-1" d="M250.09,254.46l.32.26.78-.39.08.24.49.23-.43.8.6-.07.28.17.27-.38-.24-.78.16-.18.38.08.27-.88.41-.39.42.3.41-.09-.13,1,.61.19.29-.38.34.35,0,.46.5-.09.36-.92.66-.65h.25l.24-.66h.24l.25-.54.68.33.22-.17-.07.34.21.16.95-.19.16.14.12-.86.22-.13.18.49,1.18.13.25.3h.43l.15.1-.14.94-.45,1,.12.85.43.33.33-.36,1.13.27-.47.23.1.49-.94.43,0,.57.2.27-.29,1.24-1.38,1.22,0,.52-.74.43-.35.84.08.39.27.59.36,0,.34-.14v-.66l.6-.27.58-.6.52.37.36-.26.29.23-.13.43.35.17-.26.36.27.33-.15.55.21.45-.29,1,.88.24.18-.41.35.07,0-.37.44-.4,1.17.2.61-.09.42.23h0l-.44.18-.22.65.52.63-.11.61.52.85-.57.73-.18-.06-.58.43,0,.92.36.92-.52.14.06.23-.35.23-.05.56-.73-.21-.38.17-.2.67.34.13-.34.52-.9.1-.05.64-.55.58-.28,1,.16.2-.19.19.29.9-.14.55.36.42-.49.56.12.23-.14.31-1,1.07-1.1.14.22.26-.24.32-.68.08-.08.23-.88.2-.11.19-.25-.17-.17.86-.41,0,.18.21v.58l.2,0,.32.6-.41-.1-.21.15-.32.33.18.34-.27.28-.47-.34-.44.36-.6-.46-.31.31-.24-.19-.11.21.28.27-.09,1.05.2.22,0,.53h-.35l-.2-.2-.37.27-.87-.16-.43.26-.53-.12-.31.4-.25,1.26-.71.13-.2-.25-.14.76h0l0,.85-.72-.45.09-.6-.19.3-.19-.14-.34-.82.12-.37-.24.06-.14.16.38,1-.23.51-.65.33-1.36.28-.09-.34-.11.43-.48.06-.79-.35.82-.5-.15-.43-.48-.07-.14-.23-.58.16-.38-.12-.42-.54.09-.71-.22.66.24.5-.51-.1-.36.25-.71-1.17-.24.34-.26-.27.06-.84-.23-.21-.47.42.51.6-.14.16.32.16v.33l-.62.78-.6.06.14-.84-.2.05-.17.45-.13-.16.18-.25H242l0,.59-.74.58.26-.52,0-.35-.66.37.28.25-.43.11-.24-.28-.11.16-.25-.18-.59.14-.67-.86h-.52l-.72.34-.72-.05-.35.2-.41-.56-.72.49,0-.53L235,287l-.48.26-1-.77-.42-.07.25-.83-.41-.09-.28.18-.4-.39-.64,0-.29-.29-.46.34-.13-.1.2-.86-.05-.49-.25-.18.23-.26-.08-.42-.27-.48-.65-.07.2-.23-.21-.5.35-1.15.5.23.37-.15.22-1.13.49-.48-.44-.08-.43-.53-.29,0-.15.19-.35-.49-.22.11-.3-.22-.18.32-.89.15-.13.21-.51-.09-.57-.91-1.35,0,0,.38-.54-.11-.34.23-.31-.53-.61-.28,0-.22-1.12-.08-.06-.34.2-.22-.37-.34h0l-.1-.41.43-.51.45-.3.26.17-.29-.52.34,0,.41-.43.33-.06.14-.36.38-.11.2.23.53.07.1.32,1-.92-.15-.23.27-.83-.15-.65.39-.22-.14-.28.17-.07-.36-.27-.34-.93-.66-.76-.57.05-.14.54-.29-.06-.11.23-.34-.05.08-.17-.22-.12-.76.23-.39-.73-.51.08-.33.8-.51-.12-.63-.6-.43.36-.55-.53.37-.38-.37-.7.1-.41-.59-.27-.07-.39-.36-.14-.73.25-1.28-.39-.31.11,0,.81-.18.13-.61-.45,0-.21-.74-1.25-.16-.59.34-.61h0l1.39.84.23-.29.55-.15.21-.48,1.11-.4.05-.64.23-.29.95-.61.43.49h1.06l.58,1h.62l1.48.79.85-.18.63.67.22-.42.84-.56.19-.75-.36-.73,1.07-.13,1-.35,1-.5.49-.62,1.63-.12.21-.49.46.07.16-.8-.22-.15-.12-.52.74-.63,0-.33,1.15-.35,0,.37.75.54-.2.45.77.26.08.8.34-.09,0,.66,1.32-.78.2.9.41-.33.25.66-.09.25h.52l1.05-.58.73,0,.31-.9-.11-.46.35-.21-.25-.26.29-.12.33.23,0-.27.54-.54.52.36.14.35.52-.09.75,1,.19-.21-.19-.88.27-.13,0-.25.34,0-.13-.4.34-.37.5-.06-.1.25.27.54.9-.24.7.28.24-.19L247,258l0-.56.27-.68-.48,0-.44.45-.25,0L246,257l.49-.15.17-.41.55,0,.29-.22.15.44.32-.12-.08-.32.48.64.67-.11-.16-.29.16-.42.67-.75-.18-.29Z"/><path id="CN-52" class="cls-1" d="M250.6,249.12h0l-.05-.22.29-.14,0,.28h0ZM228.49,235l.18-.36.67.28-.21-.36.37-.7L229,233l-.06-.33.19-.09.84.93-.1.23.54.23-.6,1.35.19-.18.44.24.17-.09.13.31.16,0,.16-.24-.16-.36.36-.25,0-.45.34.25.42-.71-.44-.45.1-.25.44-.35.38.35.25-.05-.06-.59.24-.27.39.15.4-.17.59.46.18.47.61-.36.13-.25.3,0,.36-.72-.5-.5.16-.23-.11-.5.33-.1-.09-.55.3-.15.23.24.54-.36.18.41.39-.06.26.26.52-.36.31.38-.1.63.4.77.72-.57.44.08.37-.48.59.26.31-.14.29.31.25-.39.23,0,.06.89.29.62-.1.32.31.47-.32.91.92.37.71-.27.42.18-.16.76-.27.07.22.9-.2.48.3.24.37-.09-.14-.19.25-.3-.32-.48.51-.28.41.52,0,.94-.33.37.25.54.35-.36.26.35.49-.11.53.41.23-.39.45.16-.06-.43.33-.48.16-.81.27-.43.57-.29h0l0,1.46.19.31.33-.14,0,.25.21,0-.58,1.67.06.12.3-.16.18.23-.52.59.3,1-.21.39.45.37.39,0,.15,1.27-1.06.75,0,.44-.38.05-.27-.26-.36.27-.12-.22-.2.68-.42.21.08.3-1.09.59.1.39-.27.42-.64.23.63.64.46-.16.06-.25.48-.31.66-.25-.08.38h.44l.55-.62.17.2.85-.27.32.35.22-.14-.09.53.37,0,.3,1-.83.53.32-.14.22.17-.12.43.14.46-.52,0-.57.49-.54,0,.19.31h.32l.36.94-.33.5.13.13-.41.24-.35.74.46.58.79-.25v-.19l.18.12-.27.43.21.29-.15.11.42.51-.28.34.1.37h0l-.54.5.18.29L249,256l-.16.43.16.29-.68.1-.47-.63.08.32-.32.12-.15-.45-.3.23-.54,0-.17.41-.49.14.06.28.25,0,.44-.45.48,0-.27.68,0,.55.23.21-.24.2-.71-.28-.89.23-.27-.54.1-.25-.51.07-.33.37.13.4-.35,0,0,.24-.27.14.19.88-.19.21-.75-1-.53.08-.13-.34-.53-.36-.54.53,0,.28-.33-.23-.3.12.26.26-.35.21.11.45-.31.91-.74,0-1.05.58h-.51l.09-.25-.25-.66-.41.33-.21-.9-1.32.78,0-.67-.34.09-.09-.8-.76-.25.2-.46-.75-.54,0-.36-1.15.35.06.33-.74.63.12.52.22.14-.16.81-.46-.07-.21.48-1.63.13-.49.62-1,.49-1,.36-1.06.12.35.74-.18.74-.84.57-.22.41-.63-.67-.85.18-1.48-.78h-.62l-.58-1h-1.07l-.43-.48-.94.6-.23.3-.05.63-1.11.41-.21.48-.56.14-.22.3-1.39-.84h0l.1-.71,1.14-1.3-.23-.47-.39-.09.35-.05.48-1.07.5.37,0-.64-1.16-.35-.08-.5-.68-.33.12-.9-.89.32,0-.77-.69-.18-.12-.4.09-.73.36.13.44-1.06-.13-.25.34-.82-.1-.44.45-.18.16-1.22,1-1-.13-.47-.63-.71,0-.45-.57,0-.2-.18,0-.38-.37-.45-.46.72-1.47-.17-.47.84-.36.14-1.36-.15-.47-.68.15-.85-.25,0-.21-.61.13-.35.38-.16v-.62l-.53-.75-.58.33-.1-.47.4,0-.22-.36.53-.16.31-.58.84-.74.44-1.05.57.05V244l.74.36.42.47.52-.25-.07-.23.39-.24.41-.8,1.06.5.15.52.56.2.84-.25.26.21.29-.29.26.1.09.37,1.45-1,.66.09.16.25.48-1.12-.22-.23.54-.6,0-.65h0l.67-.45.6-.07.78.44.26.46.53-.16.13-.23.82,0,.21-.23,1-.06.38-.26.81.2,1-.53v-.42l-.22-.24.12-.52-.44-.33-.08-.61-.68-.56-.75.18-.08.27-.54-.27-.47.13-.14-.32.16-.63-.48-.48-.28-.21-.36.5-.6-.35-.13-1.35.5-.84.32-.16.19.16.88-.06,0-.45.57-.75,1,1,.35-.06.17.43.71.35.23.36.38.1Z"/><path id="CN-46" class="cls-1" d="M258.51,298.64l.21.65.43.44,1.1.06.66,2.61-.36.06-.84.87-.29-.54.44-.14-.61,0,.28.55-.53.87-.57.25,0,.47-.33.18L257.8,306h-.23l.15.19-.05.62-.22.06-.18.71.15,1.08-.48.18-.34.79-.91-.07-.6.37-.68.68-.35,1-.34.06-.47-.31-.76.29-.1-.17-.29.05-.32.68.18.4-.13.24-.19.11-.1-.28-.38,0-.39.51v-.35l-.42-.1-.22.24.1-.45-.27-.24-1-.18-1,.16-.48-.56-.82,0-.2-.33-1.9-.75.07-1.66-.51-.78.25-.71-.33-1.2.46-.49-.12-.28h-.24l.05-.62.38-.62H245l1.86-1.53,1.2-.51.41-.54h.25l0-.34-.59.3-.19-.4.41-.5.25,0,0-.29.31-.12.17.26.31-.08.29.27.31-.11.25.24.17-.06.1-.74.53-.35.63-.07.69.3,0,.22.1-.36.2.3.63-.37.24.33h.32l.72-.37.24-.46.81.27.26-.11v-.23l.41-.09,1.5.64.16.55,0-.72-.29-.1,0-.42.5-.09Z"/><path id="CN-13" class="cls-1" d="M303.78,137.82l.11.11-.23.19,0,.64-.34.51.16.4.71.28-.71.23.27.45-.22.34-.06,1-.86-.24-.39.1-.18-.61-.37.13h0l0-.53.32-.25-.22-.61-.94-.48-.16-.57.15-.56,1.15-.17.38.16.41-.3Zm-21.34-5.95-.64-.81.22-.29-.7-1.15-1.07-1.05.41-.17.25-.5.48-.09.22-.48-.65-.48-.11-.27.23-.63-.46-.25,0-.27,1.09-.76,1.55.12-.18-.38.13-.34-.21-2,.87-1.14,1.11-.41-.13-.8.21-.54.45-.23,1.3.27.22-.53.22,0,.35.4-.34.68.55.52.31,1.52-.5.3.2,1-.28.91.57-.21.8.11.38-.25.89.47.26-.44.18.28.42-.18-.38-.54.16-.33.65-.18,1.53-.9.24-.38h.27l.07-.23.23,0,.44-.44.64,0,.55,1.13,0,.36.41.09.36-.14,0-.62.6-.1.15-.62.54-.31.22-.38.57.11-.09.48.4,0,.3-.31.39.47.78-.17.46.12.09-.45.44,0,.51-.37,0-.86-.69-.81h.9l-.14-1.21.19-.75,1.19-.72,2,.19.63-.62.05-.54.43,0,.11-.24.38.41,1.36-.44v.31l1.51,1.74-.08.45.36.46-.64.52,1,.67-.1.58.44.26-.27.42.58,0,.09-.44.34,0,.19.47L311,120l.47.41-.3.55.51.66-.38.78-.24-.08-.12-.35-.41,0-.29.67.2.62.38.31.05.5.63.2,0,.51-.32.34.56.43.11,1,.24.11.21-.26.69-.15,1,0,.54.23.1-.25.52-.2.32.69.41-.16,1.74.33.27-.3h0l0,.56-.49.31.13.34-.72.47-.07.45-.89.17-.05.32.58.29-.21.38-.66,0-.32,1.47,1.42,1.23.86-.24-.18.8.56,0-.07.32.39.31,2.06,0-.15.26.37.5-.05,1,.36.67-.15.33.83.38.2,1.31.48,0v.53h0l-.41.34-1.49.42-.26.18v.67l-.45,0-.73.62-.72,2,.35.91-.3.49-.2.08-.13-.07.26-.16-.37.05-.82,1.15-.59.48-1.76.53-1-.3-1.88,1.3-.78-.3-.42-.82-.66-.64h0l-.39-1.26-.48-.38-.49.08v-.48l.44-1.14-.41-.2h-.76l-.37.51-.13-.36-.5-.12.31-.65-.82-1,.11-.28-.36-.74.21-.88.32-.11.39.22.46-.15.38.24.25-.18,0-.27-.39-.09,0-.5-.71-.22v-.3l-.4-.27-.3-.61-.67-.15-.45.17h0l-.26,0-.88-1.3.09-.56-.24-.55.36-.16-.08-.3.45-.28h.95l-.09-.5.12-.18.37.14v-.26l-.66-.13-.67.24-1.15-.44-1,.09-1-1.29-.38-.08-.52-.54-.35-.69.15-.51-.36-.24-.24.14-.1.6-1,0,.14.75-.5-.08-.22-.34-.21.09,0,.27.89,1,0,.21-.32-.16-.81.26-.39-.28-.94,1.57-.82.33-.52-.34-1.06.68-.16.36.29.1,0,.42.7.79.27,0,.34.84-.55.38-.28.73-.4-.35-.22.38-1,.16-1.15.84-.17.66.64.37,0,.63.35.25-1,.37.47.31-.06.78.59.51.84,0,.48.8h.37l.2-.32.48-.15.13-.31.26.28.17-.21,1,.23.41-.13.34.22.09.45.64.48.78.08-.35-.64.57-.27.62-.68.21-.09.76.38-.07-.27.56.21.14-.14h0l0,.53.18.21-.16.63.42.27-.22.77.24-.17.2.25-.2.41.18.47-.22.29.07.33.38,0,.08.2-.2.64-1,.34-.34.84.3,1.72h.6l.56.44.71-.1.58,1,.86-.36.18.16-.15.27.18.09,1.35-.42.68.07.12-.41h0l.4,1.43.56,1,1.13,1.09h0l-.34.32-.14.58-.2,0-.47.68-.88.08-1,1.94-4.44.15-.35.68-.48.3-.47.81-1.08,1-.12.36-.5-.79-.27-.11-.28.26-.08.27.18.14-.17.29-.33-.07v.41l.37.22-.28.34-.56-.16-1.25.4-.14.9-.39.28-.27,1.1-.62.68.09.27-.61.74-.13.53-1.4.46-.25.56-.75.73-.4,1,.1.71.28.12.2.48-.05.27.43-.11.33.57.06.76h0l-1,.71-.58-.88-.83-.19-.11.34-.36,0-.33.83-.61.23-.16-.12.13-.33-.16-.33-.81.09-.23-.16-1,.22-1.32-.9-1-.34-.48.1-.39-.23-.49,0-.35-.69-.31,0,0,.31-.16-.32-.22.18-.51-.17-.05.2-.62-.36-.16.12h0l-.16-.54-.79-.3-.27-.33.23-.57-.34-.27,0-.26-.45-.14.19-.56-.29,0,.18-.26.31,0,1-.5.11-.8.23,0,.14.29.29-.2-.21-.7.24-.33-.16-.19.11-.37-.21-.14.07-.6.45-.2.38-.62.12-.67.39-.29.09-.47.29-.19.15-.61.57-.84.15-.74-.51-.4-.51.12.36-.57-.51-.44-.11-.79-.56-.81,0-.53-.44-.45.12-.39-.71-.13,0-.21-.65-.3-.42,0-.26-.36.09-.64-.22-.35.4-.73-.14-.82.3-.3.05-.47.67-.09,0-.48.34.08.28-.55.25,0,.11-.63-.55-.5-.05-.75.83-.85H281l.13-.27h.32l.34-.38.46.76.61,0,.58-.64.49.3.2-.72.38-.07.18-.31-.32-.27,0-.5.35-.48,0-.5.56-1.26-.39-.53-.45-.06-.16-.33v-1l.2-.25-.32-.68H283l-.18-.23-.95-.24-.26-.68-.77-.16.42-.29.16-.76.28.63L282,138v-1l.34.11.74-.2.14-.37,1.36-.21.55-.65-.58-.38-.38.2-.54-.17-.31-1.07.09-.95-.57-.32,0-.24Z"/><path id="CN-41" class="cls-1" d="M279.63,170.66l.16-.12.62.36,0-.21.52.18.21-.18.16.32,0-.31.31,0,.35.69.49,0,.39.23.48-.1,1,.34,1.32.89,1-.22.23.16.81-.07.17.32-.13.33.16.12.61-.23.33-.84h.35l.12-.34.83.19.58.88,1-.71h0l-.23,1.34-.63.4.08.49-.23.76.19.31.9-.83v-.33l.17.22.25,0,1.81-1,1.35-.35.41-.45.27-.06,0,.27-.47,1-.8,0-.41.58.11.32h-.72l-.21.31-.18-.12-.08.46L293,176l-1.1.1-.89,1.4-.31-.13.17.77-.57.19-.35.42-.3-.25-1,.61-.11.64-.53.77-.6.28v.67l-.28.61.12.22.3-.19.36.39,1.36-.31.27.31.43.08-.12.36.4.1-.06.47.35-.12.92.61.11,1,.64.79,1,.15.16-.36.91.34,1-.22.2-.29.24.26.44-.11.24.39.39-.16h0l.06.53-.28.44.38.67,1,.55,0,.39.55-.18.08.2.32-.24.53.16-.26.42.19.45-.29.49.84,1.18-.05.7-.53-.15-.3.31-.56.15,0,.41-1.91.8-.6-.62-.2-.41.09-.26-.52-.37.11-.49-.23-.3-.55-.26-.24.24-.32-.57-1.09,0-.36.28-.36,1.27.59.08-.11.73-.35.07.5,1.58-.56.23h-1l-.1.45-.17-.14-.2.15-.21,1,.34.43-.5,1.6-.73.1-.29.31-.79,0-.66-.59-.23.25-.06.36.24.53-.34.3.41.41.5,0,.14.27.73.05.42.37v2.19l.73,0v.28l.72-.19,1.1,1.28-.1.13.29-.21.48.15.21-.7.43.16.08-.23.1.32.81-.92.21.06-.58.51.27.16.19,2.2.2.46-.11,2-.21.33.14.65-.67.29-.34-.21-.29.19-.33-.15-1.25.87-.07.51-.77.9,0,.78h0l-.43.17-.61-.33.1-1.06-.55-.41-.22.08-.14.62-.57-.05-.15.44-.19-.23-1,.31-.35-.21-.08-.29-.54-.07-.47-.48-.5.26.13-1.69-.29.21-.16-.24-.05.26-.36.05-1.08-.16-.4-.67-.43-.16-.34.1-.28.42-.78.25-.2-.34,0-.48-.25-.17-.18.25-.29,0-.25-1-.39-.22.23-.37-.39-.69.25,0,.11-.59-.3-.41.21-.93-.2,0-.07-.45-.46,0-.29.49-.2,0,.07.12-1.28.63-.47-.18-.25-.26.09-.14-.83-.69-.35.08-.15.33-.79-.38-.25.12,0,.31-.53-.15-.23.13-.06-.19-.74.43-1.49-.47-.74.41-.58-.13-.25.35-.65-.54-.57,0-.63-.71-.37.13-.37-.5-.43.11-1.17-.82-.53,0,0-.24-.47.34-.43-.68-.62-.44.33-.36-.37.11-.25-.56-.62-.27,0-.33-.25.14-.05-.44.21-.28-.24-.57h-.63l.3-.37-.68-.78-.38.2.12-.3-.51-.53h0l.12-.55.21-.13-.23-.8.21-.28-.14-.85-1.21-.84-.39-1.06-1.18-.48-.08-.36.56-.43-.38-.63-.25,0v-.58l.39-.55-1.4-.66-.1-.35.5-.4-.13-.66-.36,0-.45-.83.27-.46-.24-.13.12-.21h0l2.1.09.48-.53,1,0,.19-.6.26.25.93-.42.39-.46.49.14.79-.32.33.13,1.29-.29.71-.83v-.37l.91-.34.17-.35.89-.08.4.13.14.28.19-.26v-1.84l1,.21.05.21.49-.19v.27l.34.05.45-.27.37.18,1.16,0,.24-.38.17.37.55.17.41-.45.78.06.1-.33.4-.14-.05-.4.26-.1.61.25.63-.91.64.13v-.43l.35,0,.32-.31.7-.17.37-1,.52.09-.35-1.55.57-.16-.13-1.3.34,0,.09-.31-.27-.1.16-.26-.21-.5.36-.13-.34-.24.28-.14-.18-.16.22-.07-.13-.1Z"/><path id="CN-91" class="cls-1" d="M283.19,282.89l.17.6-.29-.19,0,.26-.18-.38-.11.11-.38-.34Zm-1.32-.47-.29,1-.21-.19-.43.26h-.49l.39-.63.53-.07ZM281,282l.88-.79h0l.84-.42.45.12h0l-.12.16.33-.19.12.31.25-.13.18.14-.62.43-.11-.16-.36.2.62.19.37-.46.14.27.43.06-.26.66-.54-.34-.24.29.41.41-.08.3-.69-.46-.11.19-.56-.56-1.28,0Z"/><path id="CN-23" class="cls-1" d="M347.36.78l.24,0-.12-.38.22-.22.23.2-.11.48.27-.15.12-.45.48.25.2.43,1.25,0,1.12,1,.31,0,.36.57.91-.26.52.55.38.84.54.44,1.75.22.13.46.77.19.29.45.17-.15-.07-.63.65-.36,1.52,0,1.82,1,.32.63.49-.4.15.07.48.78.46.26-.09.58-.46.3.11.59.71-.44h.4l.94,1.55.57-.41.37.27-.06.29-.36.1.09.77-.59.17,0,.56.22.3.44-.22.87.75,0,.79.49,0,.59.83-.11,1,.77.24-.68.38-.3.51,1.17.44.63.53-.28,1-.5.13.12.89,1.34,2.09,0,.34.46.15.08.9-.41.42,1.09.76-.3,1.11.88.46v.48l-.67.23.16.74.43.13.08-.23-.29-.5.71-.11-.52,1.3.14,1.55,1.33,1.41.85,1.73.43.33-.11.66.56,1.13-.5,1.15.49.58-.12,1.17.4.4,1.36.6-.05.74-.7,1.5.36,1-.11,1.17.39.36.5.07.24,1.12.82.88.71.15.33-.4.79.77,1.15.21.11.24.94-.93,1.07-.16,1.2.41.24-.29.38.3-.41.67.08.24.91,0,.8.32.62,1h.33l.52-.5.93.51.2-.17.1-.68h.61l.35.21.2,1.28.19.16.63-.15.33.13.2.31v.55l.7.31,0,.51.49.24.07.63,2.09,1.8,1.4-.36.64.52,1-.2.07.23-.48.81-.57,1.67.53.36.14,1,.71-.21.23.13-.17.75.65,1.27-.4.55-.15.67-.66.84.19.61,1.51,1.52.39.81,0,1,.19.22.79.18,1.1-.54.74.1.6-.18.38.15.55.69h.26l.56-.49.74.4.57-.11.56.16.23-.42h1.71l.51-.48.4,0,.9.44.4-.05.72-1.75,0-.64.94.21.49-.76.92-.19.16-.4.9-.5.89.17.41-.18.91.39.39-.2.14-.31,1.58-.84.62.12.18-.78.8-.18V58l.27-.24,2.36-.54.85.4.41-.2.42.69.56.25-.29.49,0,.84L424.54,61v.32l.26.89.47.14.13.73.67.72-.12.77L424.14,67l-1.1.08L422,68.24l-.22.78.46.52.05.79-.75.57-.65,2.44.2.49L420.81,75l-.7.74-.44,1.11.64.79-.52.52.37.19-.2.22.13.35-.35.21.1.16-.18.27-.25-.23-.29.51-.58.27.32,1-.49,1.09H418l-.17.72-.43-.27-.28.33-.13.6.26.17-.24.07.11.36-.39.45.36.1v.28l-.22.06.15.36-.43,0,.06.35h-.29l-.2.24-.17.54-.36-.28-.77.56-.49,2.26.22.34.1.79-1.1,1-.85-.35-1.08,3.58-.94,1.32-1.7-.59-1.42-1.22.5-2.12-.87-2.74-.88-.43L406,88.2l-.45.27-.35,1-.68-.05-.22.6.26.11,0,.3-1.46,1.18.1.26-1-.14-.46.56-.51.11-.4-.24-.32.08-.12.39-.9.35,0,.25.34.12v.25l.71,1,1.33,5.93v.34l-.3.25-.11.51.17.31-.39,1.06.18,2.16-.23.21,0,.49.58.44h0l-.71.31-.21.37L400,106l-1.09.63-.35-.65-1.32-.83,0-.28-.77-.07-.32-.41-.1-.78-.23,0-.34-1.4-.31-.45.18-.42-.08-.52-.66.66,0,.3-.52.2-.55.82-.47-.15-.16-1.34-.42-.33-.55.34,0-.15-.56.48.05.55-.33.25h-1.68l-1,.75-.73-.15-.24.28,0,1,.17.52-.2.54-1.38.53-.41-.31-.49.08-.31-.42-.42-1.33-.32-.1.21-.21-.47-1.23-.27,0-.92-2.2-.37-.36,0-2.11-.26-.85-.45-.45-1.12.81-.28.83-.67-.26-.13.16.07.43.24.22-.24.34.22,0,.06.24-.15.38-.24-.05.38.51-.42.24-.16-.14-.12.24-.67.3-.53-.2-.31.14-.33-.26-.13-1-.2.29-.62-.38.11-.72-.95-1.14.16-.38-.33-.66.59-.15,0-.48-.95-.58-.27.12-.63-.17-.14.34-.58-.43-.1.24-.46,0-.32.48-.14-.28.09-1.09-.35-.57,0-.55.09-.57.51-.38.07-.32-.81-1.19-.06-.58-1.15,0-.21-.37-.53-.09-.88-.65-.24.19H368l-.5.48-.47,0v.24l-.34.23-.39-.08-.15.15-.74-.34-.27.13-.17-.21-.21.06-.08-.26-.33,0-.41-.45-.22,0-.09-.36-.35-.15-.17-.47-.19,0,.11-.93-.17-.78-.57,0-.75.43-.4-.14.13.29-.72.61-.4-.32-.08.31-.25-.26-.86.13-.29.24-.36-.51,0-.6-.64,0-.24-.43-.28.53.05.36-.24.12h-.44l-.13-.28-.92.31-.35-.18-.27.41-.51-.49-.53.19-.32-.53,0-.51-.6-.07v-.36l-.26-.07,0-.35-.51.11-.15-.7-.53-.27.15-.23-.47-.16,0-.2.4-.23-.18-.29.24-.24-.12-.36-.41-.17-.26-.4.37-.39-.11-.31.34-.09-.3-.38,0-1-.26-.07,0-1.21-.38.3,0-.44H350l-.47.37-1.17.15-.27.2-.45-.27-.94.35-.89-.51-.48.24h0l-1.1-1.73-.2-.81.1-.71.32-.1v-.38l.23.15.67-.08.3.22.31-.24.06-.47,2.24-.3.25-1.22-.4-.14.27-.16-.09-.48-.2,0-.1.68h-.4l-.16-.29.35-1-.83.08-.64-.62,0,.42.46.32-.13.7-1,.16-.36,1.08-1,.25-.09-.38-.73-.61V72l-.65.2-.2-.37.53-.79-1.64-.71L339.92,68l.74-.64.51-1.31,1.33-.83.53-.56,2.38-1.35.9-1.68,1.86-.82,1-1.39,1.93-2.09L353,55.75l.33.49-.14.21.23.39-.18.33.18.22-.16.09.33.52,0,.3.51.45-.1.56.46.25-.38.81.57-.39.5-1.81-.44-.8.08-.81.18-.1-.06-.76-.18-.14.16-.27.17,0,.23-.64.09-1.22.27-.27,0-.52.34-.19,0-.84h.3l.2-.94.31-.37-.11-.73.64-.72.62.21.35-.16v.22l.56.31.51-.64.22,0,0-.69.13-.06-.14-.24.32-.35.07-1.47-.45-.89h.23l0-.6h-.17l-.24-.42-.21.13-.11-.28.19-.32.26.49.19-.41,0-.62-.17-.13.18-.66-.35-.34.35-.07.1-.13-.16-.15.2-.09-.15-.59-.31-.34.39,0,0-.32.35-.15,0-.27-.34-.22.61-.09-.44-.21.05-.53.21-.16.13.27,0-.24h.29l-.29-.28.4-.11,0-.25h.3l0-.33h.22l-.16-.32.18-.11-.05-.28.43-.18-.05-.39.23-.13-.2-.11.12-.17-.2-.25.15-.16.32.23-.09-.44.2.06,0-.2.25.11.19-.35.3-.08-.17-.14.41-.3.1.2.1-.31.42-.16-.26-1.43.25-.27-.33-.23.12-.2-.27-.1.24-.24.38.16-.09-.36h.22l.43-.49-.19-.28.41,0,.05-.46.26.28,0-.33.21,0-.06-.27.17,0,.27-.47-.34-.41,0-.29.16,0-.57-.55.13-.44-.4.14,0-.22-.51-.16.12-.11-.19-.63-.71-.22.06-.32-.44-.8-2.42-3.25-.24.16-.24-.31-1,0-.09-.31-.33.34-.1,1-.91.45.1.56-.46.72-.73-.08-.29.49-.68.22-.4-.49-.59-.11-.37.3-.22.91h-.4l-.06-.24-.47-.17-.33-.46-.87.08-.19.25-.54,0-.47.25-.59-.75-.33.08-.53-.43-.39.89L348,26h-.59l-.16.2h-.77l-.35.24-1.54-.78-.47.09-.24-.37,0-.53-.41-.25v-.32l-.32-.36.21-.73-.37-.47.17-.24L342.38,21l.16-.4-.46-1.24.14-1h-.34l-.18-.89-.19-.09.05-.79.74-.19.23-.28.11-.85-.16-.16-.37.13-.22-.24-.65.12-.75-.34,0-.58-.25-.53-.27.19-.45-.4-.22-.71-.72.06-.29-.51-.6.85.08.15-.35.16,0,.4-.6.9-.27.19-.52,0-.84-.39-.46-1.41-.9-.16-.8-.77-.3-.05-.26-.48-.7-.06-.22-.23.72-.76.62-.3.69-1,.82-.71,0-.64.34-.21.39-1,.52-.3.21-.53-.3-.33L335.43,5l-.19,0-.49-.42.16-.19-.06-.58-.41-.15-.78-.83h0l2.57-1.07,1.52,0,.43-.54.7.05.54-.41.8.67,1.46-.25L343,1.4l1.42-.68.69.1.46-.57L346,.14l1.29.36Z"/><path id="CN-43" class="cls-1" d="M248.35,230.32l.3-.1-.12-.73.64-.52-.07-.51.31-.25-.09-.32.31-.21,0-.34.22,0-.06-.33.22.13.38-.83.31.08.29-.2.38.3.41-.1-.15-.47.46-.17.07-.53.66-.15,1.7-.12.92.46.35.54.33,0,.17.26.52-.25.14-.35.48.11.76-.63-.19-.46-.46-.19-.29-.45.34-.61-.39-.32.17-.22.9-.17.4.33.25-.06.06-.59.5-.06.68.11,0,.37,2.23.19.69.78.2-.09.09.3.94-.08.17.28.76,0,.6-.24,1.49.66.1.37.6.38,0-.22v.71l.77.16.14.28.33-.28-.07.33.48.29-.12.7.25-.38.32,0,.23-.21.33-.56.61.26.23-.18.79.22,1.43-1.62.33.89.63-.67-.1.54-.7.54.2,1.28.69-.26.26.59.09-.2.29.13,1.69-2.06,1.36-1.17-.15,1.33h.8l0,.33.23.05.25.43-.75.45.39.08.45.49-.13.41-.48.14-.42.93.64.23-.28.56.22.61.27-.17.11.37.53-.34.23.36.2-.08V231l.47-.08h0l.13.78.29-.05.13.4.27.06,0,.4.58.17-.15,1.73-.31.43.91.51-.27.39.57.33,0,.53-1.13,1.12-.69.07.3,1-.53.08-.29.37-.41-.12-.09.23-.59.3-.2.46.21.64-1.05,1.3-.24.74.35.22-.25.33.27.46-.19.19.1.32.58.1,1.23-.39-.15.6.12.16-.7,1.42.25,0,.1.47.74.67-.61,1.15.18,1.15.32.31,1.46.2-.24,1.38-.37.23,0,.55-.66,1.12.22.11.47-.29.3.2.62-.36.27.08.15.37-.87.39-.07.25-.37,0-.23.46.14.7-.81,1.54.52,1.26-.33.62.15.18h0l-.52.16-.46.81-.38,0-.09-.27h0l-1.23.38h0v-.24l-.27-.16-.67,0-.51-.3-.1-.29-.34-.06-.07-.57-.11.16-.34-.12-.5.21-.22.58-.19,0-.59.54-.5.06-.11.25-.47-.21,0,.66.78-.05.37.45-.47.29.32.56-.24.44.25.35-.05.38-1,.25H273l0-.33-.27-.16,0-.3-.25-.08.13-.38-.46-.54-.8,0-.55-.17-.13-.25-.33.3-.24-.38-.71.25-.36-.32-.4,1.4-.24.27.4.52-.13.58-.36.06-.57.7h0l-.41-.23-.62.09-1.16-.2-.44.4,0,.37-.34-.07-.18.41-.88-.24.29-1-.21-.45.15-.55-.27-.33.26-.36-.35-.17.13-.43-.29-.23-.36.26-.52-.37-.58.6-.6.27v.66l-.34.14-.36,0-.28-.6-.07-.38.35-.84.74-.43,0-.52,1.38-1.22.29-1.24-.21-.27,0-.57.94-.43-.1-.49.47-.23-1.13-.27-.33.36-.43-.33-.12-.85.45-1,.14-.94-.15-.1-.43,0-.26-.29-1.17-.13-.19-.49-.21.13-.12.86-.16-.14-1,.19-.21-.16.07-.35-.22.18-.68-.33-.25.53-.24,0-.24.66H257l-.65.65-.36.92-.5.09-.05-.46-.35-.35-.28.38-.61-.19.13-1-.41.09-.42-.3-.42.39-.26.88-.38-.08-.16.18.24.78-.27.38-.28-.17-.6.07.43-.8-.49-.23-.08-.24-.78.39-.32-.26h0l-.1-.37.28-.34-.42-.51.15-.1-.21-.3.27-.43-.18-.12v.19l-.79.25-.46-.58.35-.74.41-.24-.12-.13.32-.5-.36-.93h-.32l-.19-.32.55,0,.56-.49.52,0-.14-.46.12-.42-.22-.18-.32.14.83-.53-.3-1-.37.05.09-.53-.22.14-.32-.35-.85.27-.17-.2-.55.62h-.44l.09-.38-.67.25-.48.31-.06.25-.46.16-.63-.64.64-.23.27-.42-.1-.39,1.09-.59-.08-.3.42-.21.2-.67.12.2.36-.27.27.26.38-.05,0-.44,1.06-.75-.15-1.27-.39,0-.45-.37.21-.39-.3-1,.52-.59-.18-.23-.3.16-.06-.12.58-1.67-.21,0,0-.25-.33.14-.18-.31v-1.46h0l.32-.71-.21-.21-.63.15-.11-.17.59-.36-.11-.2.36-.31-.44-.37,0-.78.59-1.33-.64-.37Zm2.2,18.81-.05-.22.29-.14,0,.28h0Z"/><path id="CN-42" class="cls-1" d="M250.77,209.36l.08-.48.32-.18-.37-.72.32-.36-.3-.66.24-.64-.23-.38.1-.46-.37-.15-.39-.62.22-1.1.36-.62.41-.26-.12-.43.67-.13.7.27.65-.13.75.37.46-.27,0-.3.52.19.29-.32-.36-.47-.1-1-.79-.53-1.11-.32-.49.27-.23-.23.19-1.34-.72-.39-.77,0-1-.34.47-.65.66,0,.24-.35.12.22.45.13.93-.12,1.25.46.93-.14.47.41,1.35-.1,1-.69.27.83h.39l.37.48.24-.42.5,0,.1-.47H260l.48-.42h0l.51.53-.12.3.38-.2.68.78-.3.37h.63l.24.57-.21.28.05.44.25-.14,0,.33.62.27.25.56.37-.11-.33.36.62.44.43.68.47-.34,0,.24.53,0,1.17.82.43-.11.37.5.37-.13.63.71.57,0,.65.54.25-.35.58.13.74-.41,1.49.47.74-.43.06.19.23-.13.53.15,0-.31.25-.12.79.38.15-.33.35-.08.83.69-.09.14.25.26.47.18,1.28-.63-.07-.12.2,0,.29-.49.46,0,.07.45.2,0-.21.93.3.41-.11.59-.25,0,.39.69-.23.37.39.22.25,1,.29,0,.18-.25.25.17,0,.48.2.34.78-.25.28-.42.34-.1.43.16.4.67,1.08.16.36-.05.05-.26.16.24.29-.21-.13,1.69.5-.26.47.48.54.07.08.29.35.21,1-.31.19.23.15-.44.57.05.14-.62.22-.08.55.41-.1,1.06.61.33.43-.17h0l.12.47.32,0,.19.28,0,.37.44.13.36.87.53-.52.32.08.48.71.72-.27.47.83.73.23.2.42-1.44.79-.18.25.18.48-.61.17-.14.56.32.32,0,.39.41.06.3.57-.13.52.34.22-.41.35.22.38-.08.19.53.12.1.33.49.4.18,1.35-.12.58.4.6,0,.53h0l-.6.59-.84.21-.7-.27-1-.78-1.16.11-.24.26,0,.54-1.27.92-.16-.29h-.77l-.32-.18.24.27-.06.39.26,0-.1.62-.58-.1.16-.28-.67-.08-.36.25.05.3-.38-.22-.23.4.18.27.17-.29.17.11-.4.6-.22-.08-.7.32-.15-.24-.41,0-1.12.58h-1.14l-.3-.31-.26.09-.14.92-1.26.22-.77.87-.08.42h0l-.47.08v-.26l-.21.08-.22-.36-.54.35-.1-.37-.27.17-.22-.61.28-.56-.64-.23.42-.93.47-.14.14-.41-.45-.49-.39-.09.75-.44-.25-.44-.23,0,0-.33h-.81l.14-1.32-1.35,1.16-1.7,2.06-.28-.13-.09.21-.27-.6-.68.26-.2-1.27.7-.55.09-.54-.62.67-.33-.89-1.44,1.63-.79-.23-.23.18-.61-.26-.34.56-.23.2-.31,0-.25.38.11-.69-.47-.3.07-.33-.34.28-.13-.27-.77-.17v-.71l0,.22-.6-.37-.09-.38-1.49-.65-.6.23h-.77l-.16-.29-.94.09-.09-.31-.2.09-.69-.78-2.24-.19,0-.37-.68-.11-.5.06-.06.59-.25.06-.4-.33-.9.16-.17.23.39.32-.33.61.28.44.47.19.19.47-.77.63-.47-.11-.15.35-.52.25-.16-.27-.33,0-.35-.55-.93-.45-1.69.12-.65.15-.08.53-.46.17.14.47-.4.1-.38-.3-.29.2-.31-.08-.38.83-.22-.13.05.34-.21-.06,0,.35-.32.21.09.32-.31.25.07.51-.65.52.12.72-.29.1h0l-.84-.64.16-.5-.19-.23v-.54l-.28-.25-.65.51-.43,0,.16-.74-.51-.43.28-1h-.24l.09-.25-.23-.2-.4.13,0-.31-.2.21-.26-.36h-.29l-.15-1.27-.46,0-.43.56.06.4-.21.21-.49-.2-.12-.62-.15-.18-.12.15,0-.38.32-.15.6.11.12-1-.07-.54-.18,0,.42-.72.08-.84-1.2-1.14.16-.79.61-.13.42.23.51-.53-.09-.35.4,0,.29.72.64,0,.94-1,.56-.27.53.06-.2.67.36.25,1.16-.8.3.55,0,.57.77-1,.58-.42.28.15.06-.35.4-.15.12-.39.79-.69.84-.31.48.14.26-.22.12.54.41.25.61-1.48-.31-.41,0-.49.51-.42-.36-2-1.36-.69.21-.31-.67-.1-.44-.31-.62.11.17-.48-.14-.7Z"/><path id="CN-22" class="cls-1" d="M345.36,79.15l.48-.24.89.51.94-.35.45.27.27-.2,1.17-.15.47-.37h.38l0,.44.38-.3,0,1.21.26.07,0,1,.3.38-.34.09.11.31-.37.39.26.4.41.17.12.36-.24.24.18.29-.4.23,0,.2.47.16-.15.23.53.27.15.7.51-.11,0,.35.26.07v.36l.6.07,0,.51.32.53.53-.19.51.49.27-.41.35.18.92-.31.13.28H357l.24-.12-.05-.36.28-.53.24.43.64,0,0,.6.36.51.29-.24.86-.13.25.26.08-.31.4.32.72-.61-.13-.29.4.14.75-.43.57,0,.17.78-.11.93.19,0,.17.47.35.15.09.36.22,0,.41.45.33,0,.08.26.21-.06.17.21.27-.13.74.34.15-.15.39.08.34-.23v-.24l.47,0,.5-.48h.68l.24-.19.88.65.53.09.21.37,1.15,0,.06.58.81,1.19-.07.32-.51.38-.09.57,0,.55.35.57-.09,1.09.14.28.32-.48.46,0,.1-.24.58.43.14-.34.63.17.27-.12.95.58,0,.48-.59.15.33.66-.16.38.95,1.14-.11.72.62.38.2-.29.13,1,.33.26.31-.14.53.2.67-.3.12-.24.16.14.42-.24-.38-.51.24.05.15-.38-.06-.24-.22,0,.24-.34-.24-.22-.07-.43.13-.16.67.26.28-.83,1.12-.81.45.45.26.85,0,2.11.37.36.92,2.2.27,0,.47,1.23-.21.21.32.1.42,1.33.31.42.49-.08.41.31,1.38-.53.2-.54-.17-.52,0-1,.24-.28.73.15,1-.75H391l.33-.25-.05-.55.56-.48,0,.15.55-.34.42.33.16,1.34.47.15.55-.82.52-.2,0-.3.66-.66.08.52-.18.42.31.45.34,1.4.23,0,.1.78.32.41.77.07,0,.28,1.32.83.35.65L400,106l.86.9.21-.37.71-.31h0l.17.1,0,.73-.27.27-.05.72-.47.76.07.69-.73,1.1.21.85-.22.18-.59,0,0,.57-1.37-.15-.34.4-.22-.11-.19.15-.2-.17-1.37.61-.57.54.38.4.49-.17.65.7,0,.74-.29-.1-.1.19.37,1-.34-.09-.35-1.65-.29,0V115l-.26.1-.15-.23.13-.29h-.36l-.93-1-.11-.7.18-1-1.05-.1-.07-.12.28-.13-.15-.21.21-.14-.28-.16-.65.2-.38-.1-.06-.27-.37,0-.32.37.09.41-.18.08-.52,1.83.07.43-.18.24.2.41-.22.29,0,1-.19.35h-.48l-.17-.32-.19.12,0,.33-.44.42-.62-.67-.32-.07-.26.19-.14-.19-.19.58-.55.11.11.49-.47.65.22.49-1.81,1.17-.07.54-1.4-.24-.37.3-.43-.22-.39.34-.37,0-1.44-.38-1.69.54.11,1.53.41.84,1.06.84.08.29-.16.65L380,126l-.27.14-.64-.53-.59-.18-.41.12,0,.2-.7-.18h-.8l-.07.16-.6-.3-.12-.31-.87.17-.13-.24-.26.18-.69-.16.18-.15-.09-.15-.21.09-.23-.27-.71-.06.52-.52-.38-.06-.6-.67.27-.26-.17-.34-.85-.34.13-.17-.14-.15-.31.15-.29.61-.25-.15-.13.46-.38-.45-.37,0,.35.37-.3.4h-.52l-.35.51.18.53-.56,1.13.12.72-.2-.16-.32.15-.6.66,0,.37-.33.17-.14.59-.89.7-.34,0,.15.26-.46.53,0,.24-.29.37-.34.07.29.17-.59.24-.15-.34h0l-.73.39-.2-.33-.53.35-.36-.42-.61.11.71-.67,0-.42.39-.49-.19-.29.61-.62-.39-.13.1-.49-.76-.28,0-.65-.77-.81,0-.46-.6-1.15.05-.65-.9-.13.14-.7-.37-.75.07-.56.27-.26-.31-.36.45-.32.36-.5v-.36l.27,0,.27-.38-.83-.34-.4.34-.28-1.18.15-.17-.22-.28-.61,0,.06-1-.73-.77.14-1-.52-.07-.07-.39-.24-.16,0-1.12-.36-.19-.22.28-.18-.14,0-1.69-.23-.4.37-.52v-.5l-.69.16-.67.52-.3.85-.89,1-.35.09-.09.34-.11-.39-.56-.28.51-.46-.05-.22-.39,0-.24-.25.55-.78-.88-.78-.08-.57-.42-.31-.68,0-.24-.43-.45.07-.83-.79-.34-.46.06-.37-.46-.35-.57.67-.09.41h0v.06h-.76l-.76-.94-.33.45-.79-.71,0-.58.73.1.13-.19-.24-.32.65.06.22-.29-.26-1-.26-.24.08-1-1-2,.41-.87-.58-.28-.61-1.36-.56-.35.06-1.49-.84.16-1,1-.75.27-.61.59-1.34.75-.91,0-.6-.28.2-.76V96.73l-.42,0-.17-.72-.63-.33-.14-.59.19-.85-.3-.21.12-.15.33.11.14-.24-.45-.07-.49-1.12.37-.17L338,90l.82-.68V88.9l-.65-.34.12-1.34-.95-.48L337,86l.23-.78-.22-.54-.82-.23-.42.31h-.45l-.68-.69.82-.37.53-1.33-.32-.7.45-.27.8.44.27-.11.68,1.1.44.15.65.61.33-.2.18-.41.28,0,0-.4h.33l.44.41.42,1,1,.51.22.33.63-.88.13-.94-.28-2,1.8-.3.17-.31.32,0-.08-.38Z"/><path id="CN-32" class="cls-1" d="M298,185.29l.14-.55-.19-.33.26-.09.07-.87.24-.35,1.22-.31,1,.17.1-.22,1.33.63.08.44.46.38.23.54-.15.44.44.14.14.93.42.59.32,0,.09-.62.63-.49.31.14.44.71.67.22.65-.29.2-.35.81.18.06-1.08.64,0,0-.22.31,0,1,.23.11.31-.23.46.65.08-.26.54.29.28-.07.5.24.05,1.4-.43.25-.74-.08-.7.27-.22V185l.41-.33.49,0,.64.29.59-.38-.36-.3.11-.26h.25l-.06-.44h.2l.48-.87,0-.69.41-.27.18.18,1.16-.12.23-.38.36-.13.45-.06.26.25h0l-.49.33-.36,1.69.44.6.5.36.29-.2.91.34,0,.19-.26.24,1.35,1,0,.32.47,0,.5.28v.22l1.58.36,1.85,1.08.43,1.69,2.41,5.33-.44-.12,0,.53.25.13,0,.44.35-.2v.69l.2,0-.06.33.15.22.12-.19.31.6.22.84-.21.17.5.19.16,1.16-.4.92.33,1.22.7.33-.07.36.56.08,2.07,1,.33,1.21-.3.38.4.36v.32l2,.76.85.94.55,1.42-.4.46-1.68-.42-2.27-1.21-1.43.8-.09.53,1.18,1,.5.78h0l-1.21.52,0,.41-.31.12.28.76-.46,0-.14.17.09.84-.17.18-1.19.06-.12.19.26.19v.59h0l-.39.23-.13-.19-.56.34-.27-.06-.12.15.15.43-.4.35h-.46l-.52.74-.38-.42-.16-.86h0l-.11.22h0l-.38.07.06-.53-.65.2-.86,0-1.1-.73-.58-1.2-.8.09-.1-.15L321,214l-.24.22h0l-1.72-.34.1-.17-.29-.06.15-.47-.2-.27-.1.3-.43.08-.56-.16-.14-.25-.63.56-2.09,0-.2-.38-.4-.2.31-.51.45-.05.42-.46.12-.77-.17-.81-.44,0-.18-.48-.34.4-.47-.08-.08-.27.31-.25-.1-.18-.34-.29-.69.18-.3-.44.14-.38-.27-.05-.68-.69.16-1.19.73-.35.06-.58,1.08-.2-.05-.66.35-.33-.19-.39.07-.72-.64,0,.12-.3-.35-.37.06-.22,1-.19.49.22.22-.18.14.3.45-.18-.1.28h.32l.31.42.38-.07.35.52.44-.33.22-.87.25.2.11-.28-.27-.54.12-.42-.18-.88-.54,0-.43-.7-.18,0v-.44l-.59.18-.57-.17-.08.31-.22,0v.49l-.48.06.08.89-.29.19-.51-.22-.36.19-.94-.14-.57.16,0-.42-.46-.06-.1-.66-.28.09-.09-.63.56-.3L311,199l-.25-1.7-.24-.14-.14.36-.79.28-.36-.32,0-.38h-.31l.34-.72-.13-.29.4-.22.11-.84.12-.15.39.14v-1.16l.34-.37-.07-.52.23-.15-.51-.18h-1l-.18.28-1.45,0,.19-1.32h-.38l-.24-.89-.32-.29-.33.38-.45-.66-.67.3-.43-.53-.31.18h-.81l-.42-.24,0-.23-.71-.42.21-.54-.58-.34-.06-.94-.37-.13-.56.17-.46-.62-1.31-.23.13-.17-.68-.49-.46-.71Z"/><path id="CN-36" class="cls-1" d="M296.37,224.74l.49-.07.39.39,1.46-.93h.46l.37-1.25.54-.16.81.31.1.24.19,0,0,.3.27-.07.22.24-.62,1.1-.41.12-.69.82.2.15-.21.3.48.58.28-.27.24.26.31,0,1.08-.9.81-.22.16-.55-.43-.41.39-.25,0-.32.54-.19.28.15,0,.62.24.07.31-.22.15.3.43-.29-.07.43.32.36,0,.49.54.27-.12.23.19.22.34.1.47-.23.35.52.73-.21.85.2.55-.22.86.57,0,.66.44.24h0l.13.32-.29.44-.65.05v.51l-.32.4.08.63.39.84.59.08.25.31-.16.25.45-.1.27.7.57.38.37.9-.11,1.4.36.18-.2.51.29.57-.4.34h0l-.76.51.38.29-.19.71-1.53.33-.22.72-.46-.19-1.2.32-.47.4,0,.39-.35.33-.9-.52-.15-.5-.41-.43-.26.38-.26,0-.74.63-.12-.34-.27.23.1.75-.68.5v.21h-.67l-.05.44-.29-.35-.28.17,0,.69.25.12.17-.15.22.56.13.63-.19.19v.44l.44.26v.19l-.72.8-.12.58-.74.59-.26-.1-1.45.37-1,1.14.07.57-.32.45.39.51-.2.6.68.75-.26.71-.57-.19-.83,1,0,.67.49.05.15.5-.68.54L298,255l-1.64.82.34.65-.05.18-.31-.07-.15.42-.35.14,0,.91-.47.82.19.16-.18.48.13.43-.59.65-.5.21.13.72.4.49-.41.24.22.27-.24.11.08.29h0l.13.44-.58-.19-.42,1.19.32.44-.25.17.48.76-.82.2-.3-.45-.71-.18-.65-1-.44-.17-.32,0-.08.27-.52-.11-1.19.69-.31-.32-.86.42-.24-.1-.28.78-.86-.4-.26.63-.35-.36-.46.33-.42-.15-.7.51-.52-.77-.34.12-.2-.42-.73-.35,1.09-.56,0-.45.46-.54,0-.57,1-.54.2-.48.6.06.18-.26.39-.06-.09-.32-.25-.09.42-.53,0-.29-.25-.3-.49-.07-.67-.69-.27.29h-.41l-.35.5-.58-.12,0,.24-.52.08-.78-.16-.62.44-.11-.24.15-.6-.37-.28.07-.27-.22-.17h0l-.15-.17.33-.63-.52-1.25.8-1.54-.13-.7.23-.46.37,0,.06-.24.88-.39-.16-.37-.26-.08-.62.36-.3-.2-.47.29-.22-.12.66-1.11,0-.55.37-.23.25-1.38-1.47-.2-.32-.3-.18-1.16.62-1.14-.75-.68-.09-.46-.25,0,.69-1.42-.12-.16.16-.6-1.24.39-.57-.1-.1-.32.2-.18-.28-.45.25-.33-.34-.22.23-.75,1.06-1.29-.22-.64.21-.46.58-.31.09-.23.41.12.29-.37.53-.08-.3-1,.69-.07,1.13-1.13,0-.52-.56-.33.26-.39-.91-.51.32-.44.15-1.72-.58-.17,0-.4-.28-.06-.13-.4-.29.05-.13-.78h0l.08-.42.77-.87,1.26-.22.14-.92.26-.09.3.31h1.14l1.12-.58.41,0,.15.24.7-.32.22.08.4-.6-.17-.11-.17.29-.18-.27.23-.4.38.22-.05-.3.36-.25.67.08-.16.28.58.1.1-.62-.26,0,.06-.39-.24-.27.32.18h.77l.16.29,1.27-.92,0-.54.24-.26,1.16-.11,1,.78.7.27.84-.21Z"/><path id="CN-21" class="cls-1" d="M335.3,143.4l-.23,0v.44l-.68-.13-.41.44-.44-.48.07-.34-.28-.33-.46-.19-.51.38-.12-.22h-.43l.53-.78.8,0,.31-.22.6.31-.16-.94-.16.15-.31-.51.27-.31-.14-.29.44-.52h.5l.61-.57.51.14.17-.39.7-.4,0-.16-.45-.08.4-.1.3-.52.52-.31v-.46l.67-.48.11-.38-.2-.15.75-.61.05-.53.93-.54-.06-.45-.36,0-.86-.74.07-.71-1.46-.91-.22-.49-.05.16-.37-.07-.33-1.26-.53,1.06-1.22,0-.48-.41-2.17-.35-.7.54,0,.37-.4,0-.24-.28-.23.53.25.13-.34.1-.07.35.56.15-1.23.39-.24.73-.9.6v.47l-.54.25.11.22-.21.33.14.27-.64.35,0,.64-.39.52-1,.13-1,.65-1.48.52-.21.43-.5.14h0v-.52l-.48,0-.19-1.3-.84-.39.15-.33-.36-.67.06-1-.38-.49.15-.27-2.06,0-.39-.31.07-.32h-.56l.18-.8-.86.24-1.42-1.23.33-1.47.65,0,.22-.39-.59-.29.06-.32.88-.17.08-.44.71-.48-.13-.34.49-.31,0-.56h0l.49-.32.11.19,0-.52-.17-.16.37-.12.31-.54-.3-.69.36-.33-.4-.18-.37-.92.12-.33-.21-.43.28-.7v-.7h0l-.06-.29.26-.28h0l.15-.87-.49-.34-.49-.82.31-.51,1.23-.6.28-.51.3.29v.51l.43.43,1,.46.67-.06,0,1,1.37,2.68-.08.87.47.23.3-.29-.08-.41,1.13-1.62.55-.41.37.08.37-.37-.05-.78.82-.58.28.12.79-.62.57-.07.44-.36,1.08.14,1.62-1.17.41-.75,1.05-.38.12.14h0l.22-.13h0l.42-.2.48.74.38-.11.79-.77.22,0,.36-.56-.09-.4.25-.51.84-.35.75.34.23-.05,0-.32.93.49.34,0,.47-.79-.62-.13-.15-.45.22-.21,1.22.19.52.5.7-.1.75.57.22,0,.15-.36,1.26-.07.31-.32.87-.21-.4-.25,0-.68.46-.59,1.62-.47.71.39.61-1.83-.13-.16.2-.37-.16-.1.33-.2-.14-.05.21-.31-.08-.51h0l0-.09h0l.1-.41.56-.67.47.35-.07.38.35.45.82.8.45-.08.24.42.68,0,.43.32.07.57.88.78-.55.78.24.25.4,0,0,.22-.5.46.56.28.11.39.09-.34.35-.09.88-1,.3-.86.67-.51.69-.16v.5l-.37.53.22.39,0,1.69.19.15.21-.28.37.18v1.12l.24.15.07.4.53.06-.15,1,.73.78,0,1,.6,0,.22.28-.14.17.27,1.18.41-.34.82.34-.27.38-.26,0v.37l-.36.5-.45.32.3.36-.27.25-.06.58.37.74-.15.7.91.14-.05.65.61,1.14-.05.46.78.81,0,.64.77.29-.1.48.39.13-.6.63.19.28-.39.49,0,.43-.7.67.6-.12.36.43.53-.35.2.34.73-.4h0l-.75.45-.23-.23-.45.26-.48.45.32.42H362l-.14.39-.5.1-.09.39-.27,0,0,.35-1-.22-.25.41-.45,0-1.11.66-.11.29.34.17-.09.23-.78.07-.17-.26-.43.61-.65.37-.06.45-.9.42-1.52,1.38-.4.54.25.57-.52.35-.05.27-.44.15-.44.91-.46-.12-.63.26-.25-.34-.61.08,0-.26-1,.26-.79-.16-.4.42-.5.06-.15.39L347,141l0-.75-.71.16-.19-.16-.07.54-.22.12.29.43-.4-.07-.59.3-.89-.13-.3.48-1.09.34-.38-.15.18.32-.67.44-.17-.33-.18.55-.41.3-.36-.09-.4.26-.25-.2-.27.18-.37.61-.63.37.15.16-.17.35-.88.55,0,.29.22.3-.42.36-.35-.12.24.58-.45-.13-.27.4-.4-.4-.55.29.09.25.42.16-.18.41-.32-.06-.43-.7-.31,0,.22.17-.16.13-.4-.24-.18.19.12.26-.56.27.93.37-.14.34-.77-.12-.79.55-.82-.06-.65.31-.23-.13-.21.73-.45,0-.16-.47.24-.15-.26-.49.22-.24.15.15.09-.23-.26-.16-.33.08.06-.32.33-.22.54.22.37-.34.46-.05-.12-.33.33-.42.48.41,1.54-.59.18-.47-.36-.46-.24.1-.12-.21.57-.28h-.22l.13-.2-.26,0-.17-.26.95,0,.21-.31-.07-.39.82,0,.59-.39v-.33l-.18,0-.3.09.13.26-1,.14-.24-.18Z"/><path id="CN-92" class="cls-1" d="M278.51,283.77l.19.28-.24.15-.1-.38Zm0-.32.07.19-.28,0Z"/><path id="CN-15" class="cls-1" d="M333.66,2.82l.78.83.4.15.07.58-.16.19.49.42.19,0,.16.62.3.33-.21.53-.52.3-.39,1-.34.21,0,.64-.82.71-.69,1-.62.3-.72.76.22.23.69.06.26.48.3.05.8.76.9.16.46,1.42.84.39.51,0,.27-.19.61-.9,0-.4.36-.16-.08-.15.6-.86.29.52.72-.06.23.71.44.4.28-.19.24.52,0,.59.76.34.64-.12.22.24.37-.13.17.16-.12.85-.23.28-.74.19-.05.79.19.09.18.89h.34l-.13,1,.45,1.24-.15.41.74,1.53-.17.24.37.47-.21.72.32.36v.32l.41.25,0,.54.24.37.48-.09,1.53.78.35-.24h.77l.16-.2H348l.72-.34.39-.88.53.42.34-.07.58.74.48-.24.53,0,.19-.24.88-.08.32.46.48.16.06.25h.4l.22-.91.37-.3.59.11.4.49.68-.22.29-.48.73.07.46-.71-.1-.56.91-.46.1-1,.32-.34.1.3,1,0,.24.31.24-.16,2.42,3.25.44.8-.06.32.71.22.19.63-.11.11.51.16V28l.4-.14-.13.43.57.56h-.16l0,.3.34.41-.27.47-.17,0,.06.27-.21,0v.33l-.25-.28-.05.46-.42,0,.2.28-.44.49h-.22l.09.35-.38-.15-.24.24.28.09-.14.2.34.24-.25.26.26,1.43-.41.17-.11.3-.1-.2-.41.3.18.14-.3.08-.2.35-.25-.12,0,.21-.2-.06.09.43-.32-.22-.15.15.2.26-.12.17.2.1-.23.14.05.38-.43.18,0,.28-.19.11.17.32H361l0,.33h-.29l0,.25-.4.11.29.28h-.28l0,.23-.14-.27-.2.16-.05.54.44.21-.62.09.34.21,0,.28-.35.14,0,.33-.39,0,.31.35.14.58-.19.1.17.15-.1.13-.35.06.35.34-.18.66.17.13,0,.62-.18.41-.26-.49-.2.32.11.28.21-.13.24.42h.17l0,.59h-.23l.44.89-.05,1.47-.33.36.15.23-.14.06.05.69-.23,0-.51.64-.56-.31,0-.23-.36.16-.61-.2-.64.72.11.72-.31.37-.2.94H356l0,.84-.34.19,0,.52-.27.27-.1,1.21-.23.65-.17,0-.16.27.18.14.06.76-.18.11-.08.81.44.79L354.63,60l-.58.39.38-.81-.46-.26.1-.55-.52-.46,0-.3-.32-.51.15-.1-.17-.21.18-.34-.23-.39.14-.21-.34-.49-1.89,1.61-1.93,2.09-1,1.39-1.87.82-.89,1.68L343,64.66l-.54.56-1.33.83-.51,1.32-.74.63,1.51,2.26,1.65.71-.53.79.2.37.64-.19,0,1.45.72.61.1.38,1-.26.37-1.07,1-.16.12-.7-.46-.31,0-.42.64.61.84-.08L347.46,73l.17.29H348l.11-.68.19,0,.09.48-.26.16.4.14-.26,1.22-2.24.3-.06.48-.31.24-.3-.23-.67.09-.23-.15v.37l-.32.11-.1.71.2.81,1.11,1.72h0l-.52.76.08.38-.32,0-.17.32-1.79.29.27,2-.14.94-.62.88-.22-.34-1-.5-.42-.95-.44-.41h-.33l-.05.41-.28,0-.18.41-.34.2-.65-.61-.44-.15-.68-1.1-.26.12-.81-.45-.45.28.33.7-.53,1.33-.83.37.68.7.44,0,.42-.3.83.23.21.54L337,86l.38.75,1,.48-.12,1.34.65.34v.43L338,90l-.22,2.35-.38.17.49,1.12.45.07-.14.24-.32-.1-.12.15.29.21-.19.85.14.58.63.33.17.72.42,0,0,1.22-.21.76.6.29.91,0,1.35-.76.6-.59.75-.27,1-1,.83-.16L345,97.71l.56.35.62,1.35.57.29-.4.87,1,2-.08,1,.27.24.25,1-.22.29-.65-.07.24.33-.13.19-.72-.1,0,.58.8.71.33-.45.75.94H349v0h0l.08.52-.2.3.13.05-.32.2.16.11-.21.37.13.15-.61,1.83-.71-.39-1.62.47-.46.59,0,.68.4.25-.88.22-.31.31-1.26.07-.15.36-.22,0-.75-.56-.7.09-.52-.5-1.21-.19-.23.21.15.45.62.13-.46.8-.35,0-.93-.5,0,.32-.24.05-.75-.34-.83.35-.25.51.08.4-.35.57-.23,0-.79.78-.38.11-.47-.75-.43.21h0l-.22.12h0l-.12-.14-1.05.38-.41.75-1.61,1.17-1.08-.14-.44.37-.58.06-.79.62-.28-.12-.82.58.06.78-.38.37-.36-.07-.55.4-1.14,1.62.09.42-.3.29-.48-.23.09-.87-1.38-2.69,0-1-.67.06-1-.46-.42-.43,0-.51-.29-.29-.28.51-1.24.6-.31.51.49.82.49.34-.15.87h0l-.26.28.06.29h0v.7l-.27.7.2.43-.12.34.37.91.4.18-.36.33.3.69-.3.54-.38.13.18.16,0,.51-.11-.18-.49.32h0l-.27.29-1.75-.33-.4.16-.33-.68-.51.2-.1.25-.54-.23-1,0-.68.15-.22.25-.23-.1-.12-1-.55-.44.32-.34,0-.5-.64-.21-.05-.49-.38-.32-.19-.61.29-.68.41,0,.11.35.25.08.38-.78-.52-.67.31-.55L311,120l.35-.13-.18-.46-.35,0-.08.45-.59,0,.27-.41-.44-.27.1-.58-.95-.66.63-.52-.35-.46.07-.46L308,114.72v-.31l-1.35.45-.39-.42-.1.25-.43,0-.06.54-.62.62-2-.2-1.19.73-.18.75.13,1.21h-.89l.68.81,0,.86-.51.37-.43,0-.1.44-.45-.12-.78.18-.4-.47-.3.31-.39,0,.09-.49-.57-.11-.23.38-.53.31-.16.63-.6.1,0,.62-.36.13-.41-.08,0-.37-.54-1.13-.64,0-.44.45-.23,0-.07.24h-.27l-.25.37-1.52.9-.66.18-.15.34.37.53-.42.18-.18-.27-.26.44-.89-.47-.38.25-.79-.11-.57.2.27-.91-.2-1,.51-.29-.32-1.53-.54-.51.33-.68-.34-.4-.22,0-.23.54-1.3-.27-.45.23-.21.54.14.79-1.12.42L283,122l.22,2-.14.33.19.38-1.56-.12-1.08.76,0,.28.45.25-.23.62.11.28.66.48-.22.48-.49.09-.25.5-.41.16,1.07,1,.7,1.16-.21.28.63.82h0L282,132l-.17,1,.28.4-.14.33-.7.08-.68.58-.48-.56-.18.37-.62.3-.83.87-1.69.24-.46-.83-1.82.5-.67.29-.31,1.08-.68.36-2-1.19-1.06.42-2.29,4-.31,1.72-1.18.22-.76-.42-1.07-.21-.42.13.12.29-.23,0,.05.91-.45.32-.11.47-1.31.09-.28.23.1.22h0l-.29,0-.26-.51.62-1.14-.13-.32-.26.25-.45-.1-1.06.62-1,1.31-.13.58-.68.33-.69-1.2-.71.2,0,.22-.26.21-1-1.16-.67-.17-.19.22.07.31.6,1.06-1.8.87-.64.83-1,.26-.28,1.19-.58.56-.16.5-.39-.16-.62.24-.19.81-.49.06.12.78-.51-.07-.37.45-.42.14-.18.7-.56.31-.54.95-.28,1.39.85.83v.48l-.79,1-.67-.84-.36,0,.22.29-.31.38v2.27l-.46,0-.19.27-.8.08v-.31l-.33,0-1.11.15-.34.34-.44-.29-.81.43-.85-.42-.33-1.1-1.49-.37-.47-.45-.23.09h0l-.9-.19-.79-.46.14-.42-.7-.82-.49-.07L234,155l-1.13.32-1.35-.32-1.76-.93-.46-.48.05-.34.81-.73.38-.89.19-1.64.29-.09.47-.81,1.07-1.12.06-.32-.09-.66-.78-.28.07-.41-.46-.86,0-1.17-.23-.14-1.05.14-.81.67-1.39.17v1.12l-.24.14-.56-.28-.17.08-.35.62-.11.92-.78.67.14.39-.56.73-.4,1.31.15.32-.32,1.6.26,1.28-.56.59-.1.6.5,1.14-.29.6,0,.62-.31.58-.84.19-.29.69-1.38-.09-1.24.28-.77.38-.85.78-1.27.05-.63.29-1-.29-1.16.2-.09.43-.81.33h0l-.71.18-2-1.6-1.55-1.7-1.8-.54-.34-2.14,1.27-.57-.42-1.51-.5-.71,3.23-2.11,1.08-2.18,1-.45.22-1.35-1.06-1.83.27-1.07-1.05-.42-.72,0-3.31,1-.74.87-.91.41-.85.9-2.74-.71-1.06-.65-1.77.75-2.69.61,1.85,1.83L197.11,150l-.07.4-.54.13-.2-.24h-.5l-.41.27-.6-.56-1.41-.51,0-.59-.61-.21-.18-.59-.29-.14.3-.61-1.42.59-.53-.8-.6.32-.11-.57.17-.39-.23-.83L190,144h-2.42v-.74l-1.26-.34-.13-1-.35-.53-1.66-.48-1.72-1.31-2.17.09,1.15-1.7,2-1.35.79-1.68,1.53-1.85-.09-1.11-.93-1.48-.54-.21-2.36-.24-.76.77-2.7-.15-2.16,1-1.54,1.93-2.73.15.79-2.84-.11-.42-.14-.29-.72-.33-1.57-1.43-.22.09-2.51-3.34.06-.32,1.53-1.54-4.56-10.42h0l5.81.83,1.58.43,8.69.64,3.47-.73,2,.16.3-.5,4.07.36,6.3,1.62,1.71,2.39,2.45.73,2.25.06,1.65,1,2.41,1.1L211,122l1.13,0,3.61-.68-.07,2.06,2.86.16.62.72,1.61-1.59.28,0,3.45-2.08,6.14-2.81,4-.92.2-.47,1.1-.51.47,0,.23.37,2.5.13,2.27-.46.37.2,1.63-.14,1.79.43.2.2,1.09-.65,2.11.32,1.92-.45,2-1.45,2.22-.12,1.25-.83.81-.67,0-.58,1.18-.68.57-1.2,2.39-2.73,2.62-1.21,1-.19,1.3-2,1.35-.34.35-.38,0-.48-1-1.65-1.27-.41-.27-.28-1.7-2.75.06-.69.84-1.66.3-1.31,1.25-2.34,1-1.1.61-.15,3.06.28.49.27.58.78,1.21.78,1.1.1,1.53.63,2.38.08,1.13.47,1.16-1,1.79-1,2.3-2.09.77-1.19.16-.87.91-.57.76-.22,1.72.51v.36l1.32-.23,1,.06,1.68-.48,1-.07.31-.64L295,85.44l.91-.63.71,0,.39-.25.35-.57.07-.66-.2-.54,0-.68.79-1.48,1.25-1.37.21-.52,1.25-.29.67-.65.84.33H305l.07-.84.44-.86v-.62l1.13-.06.5.72,1-.05.43-.59,1.12-.53.92-.92.59-.16.08-.51,1.27.07.43-.28.57.45.32,0,.2-.36.91.23,1.23-.38,0,.34.84,0,0,.38.27.22.59-.13,1.33,1,.38.74-.36.24-.12.62.86.56,0-.42.41-.32.2-.58,1.23-.72.44-.84.6-.47-.83-1.73.08-.65-.18-.49.32,0,0-.92-.34,0-.63-.69.42-.26.35.65.41-.07-.28-1-.8-.66-.5.05-.59-.32-.59.11-1.06-1,.12-.37-.16-.8-.76.27-.39-.2-.19-1.69-2.42-1.07-2.07-2-1.57,0-.43-.31-.56.13.07-.19-1.93.12-.58.37-1.41,2.08-.6.4L305,65l-1.85-1.77-2.11-.93-1.13.1-1,.49-1.66-.35-.31.11-.52.31L295,64.59l-2.5-2.69-.7-.34-.14-.28.65-.05L292,59.36l2.2-.94,0-2.69,2-2.74-.39-1,4.49-10.19,1.72,1.28,2.27,1,1.42,0,2.61,1.32.14-.35,1-.81h.34l0-.17.35-.35h.33L311,43l1-.47.05-.52.21.1.37-.22.65-1,2.58-.61.39.13.59-.15.3-.32h.56l.73-.91.43-.85,0-.58-.31-.53.36-.43-.17-.33-1.15,0-.13-.32-.3-.1.29-.36.32.09.34-.78-.15-.24.2-.15.11-.95.48-.31.2-.54.39-.14.36-.51.24-1.83.7-1.08.5-.16.14-.56.26-.23.19-.8-.09-.61.35,0-.15-.26.13-.44.43-.16.08-.49.34-.15-.19-.34.37-.23.24-.52-.12-.42.5-.69,0-.49L324,22l0-.33.57-.05,1-1.15.94-.66.14-.44.44,0,.13-.37.63-.18.43-.79-.2-.51.42-.4.26-.9-.29-.55.12-.48-.33-.1-.6-.62-.07-.36.24-.23.34-1.34-.09-.33.28-.36H328l-1.6-1.12-.56.29-.7-.05-.62.49-.84-.08-.26-.54.22-.84-.19-.77.72-.46.24.06.8-.69.05-.32.28-.06.08-.41.38-.21L327,5.81l.62-.33.43-.85,1-.78-.1-.2.16-.19,1.43-.14.21-.18.37.33.67-.09.69-.47Z"/><path id="CN-64" class="cls-1" d="M213.91,161.41l.81-.34.1-.42,1.15-.21,1,.29.63-.29,1.27-.05.85-.77.77-.38,1.23-.29,1.39.09.28-.69.84-.19.32-.57,0-.63.29-.59-.51-1.15.11-.6.56-.59-.26-1.28.31-1.6-.14-.33.39-1.31.57-.72-.14-.39.77-.68.12-.92.34-.61.17-.1.57.29.23-.13v-1.13l1.39-.17.81-.67,1-.14.24.15,0,1.15.45.86-.07.42.78.29.1.65-.07.33-1.06,1.11-.48.81-.28.09-.19,1.64-.38.89-.81.73-.06.34.46.48,1.76.93,1.36.32L234,155l.63.53.49.06.7.83-.14.42.79.46.9.19h0l-.19.82-.91.14-.16.6-.66.07v.34l-.54.34.42.49-.56.64-.17,1,.08.85.23.29-.19.07.4.51-.21.57-.21-.24v.42h0l-.77-.58-.47.21L233,164l-.1.21-.83-.32,0,.38-.75-.45-.22.57-.22-.26-.79-.12.27.68-.07.82-.25-.06-.15.23-.29-.32.41.72.32.07-.15.24.25.36-.21.6.14.24-.45-.25-.43.19-.29.83-.29.11.09.49-.64-.06,1.1.79-.23.54.24.25-.05.79-.27-.12.15.33.39.11.13-.31.38.24.39,0,.58.44.46-.11.6.94.23-.11v1.24l-.36.33.3.15-.61.37.53.7-.19,0,.08.33-.23-.06-.05.3-.25,0-.13.29-.41-.11-.12.38-.38-.34-.28.12-.7-.31-.71.43.27.93-.24.49.27.41-.08.2.25.08,0,.74-1,1.05-.78-.88-.1-.6h-.3l-.12-.23-.45.64-.37-.58.16-.26-1.24.39v-.43l1.07-.22,0,.3.26-.4-.48,0v-.25l-.89-.22-.35.51-.16-.68-.18,0-.7-1,.11-.24.29.09V176l-.74-.09-.55.48-.08-.33h-.44l-.26-.24-.22-.57-.35.14.16-.45-.44-.3,0-1.06.69-.73h.45l.12-.39-.32-.78.09-.48-.49-.58-.38-1.26-.71-.3.14-.27-.44-1.21.66-.33.24-.34-.4-.69-.34-.24-.26.09-.13-.86-1.37-.51-.43-.46-.42-1-.45-.26-.53.44-.25,0-.32-.28-.23-.41.81-.57-.26-.22.44-.5-.5.11-1.32-.29-.4.29Z"/><path id="CN-63" class="cls-1" d="M135.09,146l.17.21.46,0,.5-.29.24.18,1.07-.45.95-.08.39-.6,1.45.31.94-.26.29.24.86-.08.87-.16.13-.29.74-.21.19.3h2.44l.71.61,1.18.17.14-.19,1.63.58.94-.23.87,1.17.6.46.47.06.11.4.71.78.5.24.09-.2.88.95,1,.24.06.55.29.3.32-.22.61.47.64-.17,1.42.91-.06.58.2.2.57.24.52,0,.76.59,1.05.17.22-2.23-.37-.28v-.49l.35-.25-.13-1,.16-.26-.24-.26.25-.44,0-1.12-.37-.45.56-.87,2.23.32,1.07.79,1.25.61.15.42,2.19.93.5.55L172.1,148l.14-.73.65.07.51.68H174l.25.18,1.24-1.34h.41l1.22,1.11.19-.21.59.28-.27.49,2,1.59.6,1,.41-.07.17.59,1,1,2.81,1.38.63.56-.09-1-.25-.11-.3-.61.25-.24,0-.48.74.31.29.75.29-.11.21.57.69.19.16.27.25-.16.73.34.26,1.26,1.32.48.64.51.27-.14,1,.55.69.81,1,.48,2.06,1.68.53.13.26.55.56.13.21-1.39.77-.85.14,1.37.55.34-.44.87.66.12.64.46.06-.14,1,.81.1.43.48-.08.35.59.77.49-.72.67.05.53-.27.46.65.44.1.32.45.21.67.84-.86.31,0,.21.26.51.6.27.79,2.35,1.32.74.27.4L205,172l-.41.79-.36.17.6.41-.2.82.07.92-1.15-.22-.66.51,0,.57.46,1-.25.78-1-.1-.31-.22-.75,1.15h-.91l-.1.42.2.36-.24.27.49.21v.27l.25.11,0,.55-.37.09-.4.88h-.42l-.63.35-.51.59-.49.08v.35l-.49.13v1.16l-.5-.27-.16.33-.7.27.75.65.59-.41.12.7.5.41h.53l.52.29.07.4.62.86h-.48l-.25.75-.57-.15-.08.48-.28,0-.13.53-.26,0-.05.44-.69-.37-.08.21-.48,0-.22.39-.26-.36h-.35l0-.23-.27-.29-2.06-.54v-.2l-.44-.23-1.44-.22-.47-.43-.61,0-.17.35-.37.15-.37,1.17.35.28,1.19,2,.52.39.64.13.29.43-.19,1.1.5-.2,1.09.27.23-.37.5-.08.61.25.28,1.43h.73l.27-.38h0v.76l-.44.07-.38.72,0,.32.59.37L195.6,198l-1.22-.95-.52,0-.06.59-.36-.52-1.26.51.06.4-.33.55,0,1,.46.19.34.51,0,.72-.24.41-.54.45,0-.3-.33-.08-.94.64-1.74-.63.26.56-.39-.08,0,.81-.26.13-.21.55-.57.25-.47-.53.41-.53.44-.2-.26-.14-.45-.94-.47-.51-.43.28-.55-.17-.33,1.13-.66-.27-.21-.27.33-.49-.18-1.05-.58-.33v-.38h-.43l-.49-.93-.22,1-.67-.05.16.6-.33,1.27-.24-.35-.4-.23-.24.08-.33-.41-1.44-.67-.33.24-.29-.05-.58-1.24-1.34-.43-1-.56-.32-.55,0-.32-.33-.18.14-.65-.33-.44,0-.54-.61-.52V194l-.24-.23.3-.24-1.37-1.66-.38-.17L172,192v-.56l-1.65-.33-.55.13-.19.31-.66.33-.36-.05-.19-.24.26-.31v-.37l-.81-.34-.21.79-.24-.1-1.47.34.05.33-.18.15.41,1.22-.16.55.28.27.51.06,0,.5.31.46,1.47.39-.66.6-.34,0-.18.72-.79.74,0,.46.38.55-.3.16.12.27-.91.24-.21.44.49,1.71,2.1,1.43h0l-.44.22,0,.21-2.11-.41.11.22-.32.45.34.18.19.6-.39.09.4.24-.33.26-.31-.22-.26.16-.17.82.31.83H165l-.22-.22.11.42-.47.22-1.47-.28-.15.2.2.35-.15.09-.3-.25-.29.32L162,207l-.62-.08.17.67.41.42-.34.34.55,1-.22.45-.49-.05-.39-.42-.21.17-.3-.23-.41.09-.73-.52-.87-1.25-.9.38.11.35h-.37l-.11.35.6.48.22.54-.25.65.28.14-.08.28-.33.1-.38-1.2-.3-.2-1.61-.06-.36.34-.46-.67-.86-.18-.41.29-.33,0-.43-.44-.62-1.3.14-.29.35-.08-.2-.27.27-.23-.13-.72-.23-.22-.31.09-.33-.65-1.58,0-.44-.52-.79-.31-.07-.21.27-.09-.25-.6-.57-.18-.4-.4.18-.14-1.16-1-.54.58h-.54l-.08.28-.41-.27-.2.65-1.11,0-.16.47-.31.2-.55-.29-.32.2-.33-.34-.3.2-.42-.08-.32-.66-.64-.21-.46,0-.31.42-.63.37-.3-.25-.11-.41-.57.24-.92-1.1-.52,0-.76.29-.35-.94-1,.38-1.24-.56-.33.36-1.31-.36H131l-.66.36-.43-.24,0-.43.21-.29-.6-.39-1.22.54-.5-.71h-.26l-.1-.34H127l-.76-.4-.85-.49-.19-.4-.4-.12-.73-1.12v-.22l.3-.09-.19-.26-1.15,0-.25.18-.14.52-1.08.15-.19-.15-1,1.08-1-.25-1.45-1-.83-.06-.92-1.11-.06-.82-.46-.45-1.23-.61.14-.52-.23-.3-.42-.07.1-.54-.62-.56h-.34l-.71-.77-.31-.75.34-.62.42,0,.41-.32.11-1.1.29-.32-.48-.55.16-.4-.08-.8-.25-.38.14-.31-.39-.18-.09-.64.51-.2.46-.59-.4-.47-.06-.38h-.66l-.49.3-.34-.13-.16-.3.17-1.53-.48-.18-.46-.81.53-.44-.21-.05v-.65l1.33-.47.51-.5-.39-.26,0-.31.08-.26.35-.13-.27-.53.51-1.69-1.86-.13.14-.09-.89-.38,0-.55-.18-.11.18-.36.52.13.77-.43.83-.06h0l1.52.06-.08-.42.45-.49,0-.82.88.29,0,.29.73.4,1.47.27.52-.17,1.13.19.65.36.48.58.6-.16.3-.57.87.1,0-1-.37-.39.22-.34-.35-.27.2-.85-.19-.17,0-.75-2.07-.47-.18-.81.3-.37-.23-.56.08-.29.84-.81,1.14-.05.27-.39.41,0,.44-.48h1l-.23-1.07-.63-.52,0-.56-.37-.56-.3-1.13-.58-.22-.45.14-.54-.51.1-.36-.53-.49-1-.6-1-.24-.21-.35-.45-.08.15-.24-.29-.69.54-.61-1-1.43-.69-1.6-.64-.77v-.41l1.88-.56.32-.27-.07-.26,1-.39.23-.35-.12-.3,1,.09,2.43-.44,1.26-.36,1-.55,1.77-.5,1.2-.1,1.35-.68,2.29-.41.13-.32.35-.05.31-.56,2.53-.28Z"/><path id="CN-61" class="cls-1" d="M237.38,157.5l.23-.1.47.47,1.49.36.33,1.1.85.43.81-.43.44.28.34-.33,1.11-.16.33,0v.3l.8-.07.19-.27.46,0V156.9l.31-.38-.22-.29.36,0,.67.83.79-1v-.48l-.85-.83.28-1.39.55-.95.55-.31.18-.69.42-.15.37-.45.52.07-.12-.78.48-.06.19-.81.62-.23.4.16.15-.51.59-.55.27-1.2,1-.26.63-.83,1.8-.86-.6-1.06-.07-.31.19-.22.67.16,1,1.17.26-.21,0-.22.71-.2.69,1.2.69-.33.13-.57,1-1.32,1-.62.45.1.26-.25.13.32-.62,1.14.26.51.29,0h0l.11.23.22-.1,0,.36.44.12-.3.21-.25,1.36-.34.64-.82.4-.19.28.27.87-.91,2,.24.62-.1.53-.21,0v.48l-.2.2-.44-.08-.31.75-.57.53-.53,0-.13.72-.3.09-.11.27.08,1.92.55.41.51,1.06.57.34-.34.4.66.5-.26.13.21.75-.3.81-.73.26-.05.53.49.22-.2.27.09.28-.2,0-.92,1.52-.79.6.26.23-.55-.07.39.44-.12.62-.22.17.3.12v.51l-.29.26.33.07-.05.34.21-.06-.12.4-.25-.12-.06.16.78.85-.39,3.58,1.14,4.57-.42.82-.22,1.09-.8,1.09-.29,1.46-.62,1.15.07,1.57-.26.75.34.65.62.11h0l-.12.21.24.13-.27.46.45.83.36,0,.13.66-.5.4.1.35,1.4.66-.39.55v.58l.25,0,.38.63-.56.43.08.36,1.18.48.39,1.06,1.21.84.14.85-.21.28.23.8-.21.13-.12.55h0l-.48.42h-.57l-.1.47-.5,0-.24.42-.37-.48h-.39l-.27-.83-1,.69-1.35.1-.47-.41-.93.14-1.25-.46-.93.12-.45-.13-.12-.22-.24.35-.66,0-.47.65,1,.34.77,0,.72.39-.19,1.34.23.23.49-.27,1.11.32.79.53.1,1,.36.47-.29.32-.52-.19,0,.3-.46.27-.75-.37-.65.13-.7-.27-.67.13.12.43-.41.26-.36.62-.22,1.1.39.62.37.15-.1.46.23.38-.24.64.3.66-.32.36.37.72-.32.18-.08.48h0l-2,.11-.2-.43.11-.26-.55-.18-.07-.32-1.06-.83-1-.24-.91-.6-.08-.32-.54,0-1-.82h0l-.26-.49-.91.06-.16.19-.62-.31-.34.42-.21-.13-.17.18-.41-.15-.35.15,0,.36-.28.24-.51-.47-.38,0-.63-1h-.34l-.36-.62-.42-.08-.51.23-.25-.34-.24.05-.18-.94-.36-.05-.53.47-.21.62-.28-.08-1-.93.1-1-.26-.23v-.25l-.3-.11-.68.19-.45-.18-.52.28,0-.37H231l-.91.59-1.07.07-.28.31-.49-.42h-.5l-1.11-.48-.35-.36.22-.38-.35-.43-.25.31-.33-.14-.95.21-.23.59-.28-.16-1.09.58-.26-.3-.42-1.44h0l1,.24,1.32-.59.24.1.39-.45.1-1.23-.25,0,.26-.38.2.39,0-.48-.33-.28-.85-.18-.61-1h.83l.12-.94.8-1h1l0,.34.55.18.7-.45.44.11.56-.26.18.72.32,0,.15.24.44-.69-.33-.9-.41-.13,0-.53-.18-.19.23-.44-.16-.21-.31,0,0-.22.39-.67.18-1.09.63-.31-.29-.85-.34.06,0-.16.21-.31.35.09.11.24.56,0,.31-1.05-.5-.16-.51-.81-.2.05-.54-.4-.46.17-.4-.09-.2-.49.75-.55.27,0-.09-.46.41-.44.32,0-.12-.26.24-.28-.53-1.06,0-.52.42-.71,2.57-.06.69.51.48.11,0,.43.55.27.2.47.5-.17.16-.29,1.64.21.29-.5.36.07.11.3,1.16-.25.35-.34-.74-.78-.68-1.31.44-.07.11-.44h.38l.57.37.63-.06,0,.21,1.49-.58.37.14.07.24.74-.37.18.18.83,0,.68-.22.14-.26.09-1.79-.67-.79v-1.52l-.18-.53.55-.53h.5l.25-.62.17-1-.44-1.06.29-.26.16-.67-1.39-.91-.57.34-.59-1-.32.1-.59-.23v-.53l-.46.62-.42-.35-.35,0-.32-.35.19-.14-.06-.23-.44.21-.35-.9-1.32-.37-.2-.25-.2.14-.78-.1-.39-.68-1.23-.09-.23-1.44h0V164l.21.24.21-.57-.4-.51.19-.07-.23-.29-.08-.85.17-1,.56-.64-.42-.49.54-.34v-.34l.66-.07.16-.6.91-.14Z"/><path id="CN-51" class="cls-1" d="M196.48,194.43l.22-.15,0-.46.26.06.48.58,0,.48.27.34-.4.54-.09.55-.69.48.46.46-.09.64.35.11.74-.74.62,0,.25-.61.66.38.12-.72-.26-.22.57-.69.65.22.72-.5v-.16l.14.07-.22-.95-.76-.35-.15-.43.17-.52-.32.17.17-.41-.57-.24.13-.51-.48-.82.39-.07.19-.26.82.15.28-1,1.6.06-.34-.66.59-.33.27-.55.39-.18.39.12.33-.36.4.2.22.81.89.16.12.5.3.2-.31.29.2.44-.25.36.44.51-.2.76,1.37.55.57-.06.23-.43.29-.06.17.26-.33.38.13.44.27.07.33-.34,1.25.45,1.94-.23.85.64-.09.58.44,1.15.33.07.2.49.54-.1.4.21-.2.3-.67-.14.5,1.58-.29.56.63.23-.3.17-.11.41-.56,0-.08.45.19.46.37.08.69.59.8.16.46.55.42-.1.28.31.66-.2.37.53,1.09-.4.52.44.56-.21.21-.38.41.1,1.18-.71-.53-1.12.41-.44.41.15h0l.42,1.44.26.3,1.09-.58.28.16.23-.59.95-.21.33.14.25-.31.35.43-.22.38.35.36,1.11.48h.5l.49.42.28-.31,1.07-.07.91-.59h.26l0,.37.52-.28.45.18.68-.19.3.11v.25l.26.23-.1,1,1,.93.28.08.21-.62.53-.47.36.05.18.94.24-.05.25.34.51-.23.42.08.36.62h.34l.63,1,.38,0,.51.47.28-.24,0-.36.35-.15.41.15.17-.18.21.13.34-.42.62.31.16-.19.91-.06.26.49h0l-.22.18-.54-.13-.22.14,0,.29.28.1.23.57-.71-.06.08.23-.17.21.23.29-.45-.07-.25.22.61.87.74.41,0,.21.31,0,.23.24-.14.23.19.47-.41.24v.18l-.34-.08-.71,1-.93.12.22.26-.11.45-.38.27.18.35-1.08.67v.23l.43.09-.53.81.31.47-.78.57,0,.46.31.15-.76.8-.75-.06-.31-.57-.57.58-.38-.31-.5.09-.61.78.6.85-.88,1.15-.16.69-.56.65-.34.82-1.11,1.34L233,223l-.32-.38-.34.4-1.23,0-.92-1.55.18-.37-.54-.3L229,221l-.12.36-.88.12-.07.25-.37.14-.67-1.06-1.75-.73-.32.14-.13-.33-.6.59-.18.45.1.38-.75-.15.24.53-.82.29,1.06,1.05.37.11-.22.81.11.56-.82.18-.31.8-.31.24-.28-.13-.06.35-.39,0-.52.72-.19-.11-.16.52.22.76.44,0,0,.2.37.15-.12.48.06.21h.26l0,.23,1.26.14.11.17.29-.29.32,1.24-.14.23.28.26-.1.19.39.84.55.08.15.22.58-.63.41.25,0,.33,1.17.1.3.38,0,.44.37,1.16.22.06,0,.64.31.21h0v.38l-.38-.1-.23-.35-.71-.36-.16-.43-.36.06-1-1-.57.75,0,.45-.88.06-.19-.15-.32.15-.5.85.13,1.34.61.35.35-.5.28.21.48.48-.16.63.13.32.48-.13.54.27.08-.27.75-.19.68.56.07.62.45.33-.12.51.22.25v.42l-1,.52-.81-.19-.38.25-1,.06-.21.23-.82,0-.13.23-.53.16-.25-.45-.78-.45-.6.08-.67.44h0l-.14-.6.2-.24-.4-.09-.13-.46.32-.35-.1-.53-.49.06-.09-.57-.95-.27-.49.28-.69,1.19-1,.09-1,.42-.53-.31-1.38-1.27.56-.1,0-.31.34-.16.12-.47-.29.05-.12-.18.41-.42-.08-.18h-.34l-.17-.49-.52.1-.3-.58,0-1.06.74-.24.46-.55-.4-.13-.39.19-.42-.36-.09.19-.71,0-.23.24-.36-.16-.66.2-.5-.16-.1-.39-.14,0-.07.61-.35.53.48,1,.09.7-1.09.79-.53-.45-1.28,1.06,0,.78.32,0,.13.48.38-.06-.39.46-.09.81L206.92,242l.09.48h-.45l-.6,1.15-.59.09-.46.32-.31-.36-.41.91.18,1.38-.28.73.19.9.59.9.3,1.05,0,.57.27.4-.23.39H205l-.06,1-.62.08-.14-.18-.21.31-.7.37L203,253l-.32.08-.47-.32.19-.67-.51-.22-.16.23-1,.32-.39.45-.53.12-1.08,1.16-.57-.22-.42.1-.21-.2-.61.51-.26-.89-.41-.43-.35-.2-.5.25-.2-.56.17-.24.3,0-.15-.69-1.67-1.23v-.31l.49-.08.14-.52-.21-.24.42-.46-.44-.14.06.38-.47.08-.22-.39.27-.51-.23-.35-.68-.15,0-.37-.86-.57.16-1.39-.68.07-.15-.2.07-.52-.32-.21.08-.19-.59-1-.24.14-.15-.15,0-1.06-.34-.07.09-.47-.38,0-.13-.53-.4-.41.06-.45-.22-.41-.35,0-.63.81-.81-.44-.37.87-.36.3-.26-.75.13-.38-.94-.32.1-.38-.74-.68-.4-.86.08-.26,1-.31.15-.28-.31-.26.19-.26-.82-.4.1-.48-.57-.33-.34-.84-.39-.17-.38.24v-.71l-.63-.39-.17-1-.66.25-.12.63-.46.36-.14.81-1,.38.05,1.2.17.21-.1.37.17.28-.21.35,0,.56-.59-.47-.2-.65-.25-.07-.51-.82.05-1.38-.51-1.73.17-1.07L178,229.3h0l-.33-.72-.08-1.73-.41-.9.18-1.37.36-.69-.2-1.21-.4-.61-.07-1.86-.5-2.42.39-.3v-.27l-1.25-1.07.12-.93-.42-.29-.46-.89-.49-.29.23-1.2.37,0,.64.67.72-1-1.83-1.73-.42-.5-.12-.55-.89-.91-.12-.6.21-.22,0-.65-.84-.83-.6-1-.21-1.06-.81-.34-.76-.58-1.67-.46h0l-2.1-1.43-.49-1.71.21-.44.91-.24-.12-.27.3-.16-.38-.55,0-.46.79-.74.18-.72.34,0,.66-.6-1.47-.39-.31-.46,0-.5-.51-.06-.28-.27.16-.55-.41-1.22.18-.15-.05-.33,1.47-.34.24.1.21-.79.81.34v.37l-.26.31.19.24.36.05.66-.33.19-.31.55-.13,1.65.33V192l1.05-.22.38.17,1.37,1.66-.3.24.24.23v.42l.61.52,0,.54.33.44-.14.65.33.18,0,.32.32.55,1,.56,1.34.43.58,1.24.29.05.33-.24,1.44.67.33.41.24-.08.4.23.24.35.33-1.27-.16-.6.67.05.22-1,.49.93h.43v.38l.58.33.18,1.05-.33.49.21.27.66.27.33-1.13.55.17.43-.28.47.51.45.94.26.14-.44.2-.41.53.47.53.57-.25.21-.55.26-.13,0-.81.39.08-.26-.56,1.74.63.94-.64.33.08,0,.3.54-.45.24-.41,0-.72-.34-.51-.46-.19,0-1,.33-.55-.06-.4,1.26-.51.36.52.06-.59.52,0,1.22.95.61-1.36-.59-.37,0-.32.38-.72.44-.07Z"/><path id="CN-37" class="cls-1" d="M308.49,154.15l1.15.66.1.42.5-.1,2.45.29.37.4h.18l.41-.63.9.12.71-.18.73.42.35,1.22.63.4,0,.65.69.37-.1.25.65-.42.05.23-.46.2.71,1.05-.13.13-.6-.42h-.55l-.06-.2-.44.11-.53.56-.33.84,0,1.65.26.51,1,.69.16.65.05-.28.2,0,.13.33.41-.08-.08.6.43,0,.86-.33,0-.2.3.16.39-.23.15.06-.05.54.19,0,.11-.51,1.13-.12.26-.49.75-.61.07-.45-.46-.61,1.71-.63,1.46-1.2.18-.68-.7-.25,1-.06.58-.44,1-.13,1.09-.64.53.19.41-.19.47.17-.08.31.5.25v.27l.92.05-.09.4.21.2-.16.28.3.25h1.12l.24-.21-.19-.2.61.27-.4,0,0,.19.57.49V161l.83.44.66,0,.06-.24.43.05.23.31-.06-.33,1.24-.15.11.18-.2,0,.06.25.35,0-.17-.58.78-.45,0-.17.17.13.34-.13.1.31-.26.12.33.68.51-.29.58.47,1.08-.2-.14.39.29.13.17-.09-.2-.2.47.05.44-.22.53.24-1.06.41.25.17-.07.16-.23-.2.15.27-.15.22.53.74-.44.1.11.31-.59-.08-.25.71-.34.37,0,.25.41-.28.46.09-.11.65.15.27-.18.21h-.2l.11-.33-.51.06-.05.53-.31,0-.12.24-1.3,0,.19-.54-.31-.12-.1-.27-.32,0-.4.43-.2-.56-.3.06-1.42.67-.08.32-.82.3.07.66-.32-.07,0-.26-.27-.06-.3.25-.26-.19.82-.59-.76.28,0-.27-.2.13-.11.58-.28,0-.36.38-1.33.35-1.06.82-.19-.18-.43.12-.22-.5h-.29l-.33.37.47,0,.11.34H330l.11.19-.22.43.13.11-.36.22-.16.66-.25-.07.07-.29-.32-.47-.5.09-.39.54v.27l.31.29-.5-.07-.11.45.27.1,0,.89.2.35-.71.07-.17.21-.27-.14-.86.52-.6.12-.36-.15.56-1,0-.28-.27-.29-.28.12.18.29-1-.13-.41.42,0,.47.48.33,0,.27.44-.26-.11.33-.32.16,0,.25.38-.25v.32l.39-.43.06.4-.39.12-.46.55.23-.51-1.1.62-.26,1.33-.67-.34-.06.22.27.17-.33.33.11.34-.29.2-.32-.06.19-.33-.23-.09-.42.74-.18-.65-.06.29-.36.26-.33,0,.08.27-.55,1.44-1.1,1.15-.25,1.38-.5,0h0l-.27-.24-.45.06-.35.13-.23.38-1.16.11-.19-.17-.4.26,0,.69-.49.87h-.2l.07.44h-.26l-.1.26.36.3-.59.37-.64-.28H313l-.41.33,0,.36-.28.22.09.7-.25.74-1.4.43-.25-.06.08-.5-.29-.28.25-.54-.65-.08.23-.45-.11-.32-1-.23-.31,0,0,.23-.64,0-.06,1.09-.81-.19-.2.35-.66.3-.66-.22-.44-.71-.32-.14-.62.48-.1.62-.32,0-.41-.6-.14-.92-.44-.14.15-.44-.24-.54-.45-.39-.09-.44-1.32-.62-.11.22-1-.18-1.21.32-.24.35-.08.87-.25.08.18.33-.13.56h0l-.39.33-.26-.06-.3.47-.32-.23h0l-.4.16-.23-.38-.44.1-.24-.26-.21.29-1,.22-.91-.33-.16.36-1-.15-.64-.79-.1-1-.92-.62-.36.12.05-.47-.4-.1.12-.36-.43-.08-.27-.31-1.35.3-.35-.38-.3.19-.13-.22.28-.61v-.68l.6-.27.53-.78.11-.64,1-.61.3.25.35-.42.57-.19-.17-.77.31.13.89-1.41,1.1-.09.37-.44.08-.45.18.11.21-.3h.72l-.11-.32.41-.57.8,0,.47-1-.05-.27-.27.06-.4.45-1.36.36-1.81,1-.25,0-.16-.22v.33l-.89.83-.19-.31.23-.76-.09-.49.64-.4.23-1.34h0l-.06-.76-.34-.57-.42.11.05-.27-.2-.48-.28-.12-.11-.71.4-1,.76-.72.25-.57,1.39-.46.14-.53.6-.74-.09-.27.62-.68.27-1.1.4-.27.13-.91,1.25-.39.57.16.28-.35-.37-.22V161l.33.07.17-.29-.18-.14.08-.27.29-.26.26.11.51.79.12-.36,1.07-1,.47-.81.48-.3.36-.68,4.43-.15,1-1.93.87-.09.47-.68.21,0,.13-.58.34-.32h0Z"/><path id="CN-31" class="cls-1" d="M340.34,217.24l.13.34.4-.07,0,.21h-.74Zm-4.52-5,.54.19-.09.49-.41-.21Zm-2-.92,1.75.88.15.53-2-1.33Zm-1.27,0,.59.16.7.75.57.17,1,.86.81,1.19.47,1.47-.09.58-.19.1-.53-.09-2,.29-1.39,1-.45.07h0l-.06-.45-.32-.31h-.59l-.18-.54-.8.19.19-.38-.21-.2.09-.83-.26-.2-.43.12h0v-.6l-.26-.19.13-.18,1.18-.07.18-.17-.09-.85.13-.16.46,0-.28-.77.31-.12,0-.4,1.21-.53h0Zm-.24-3,2.6,1.8,1.59.48.48.39,0,.43-.37.32-.56.08-3.14-1.49-1.51-1.35Z"/><path id="CN-14" class="cls-1" d="M282.44,131.87l.51.78,0,.23.56.33-.09.95.31,1.06.54.17.38-.19.58.37-.54.66-1.37.21-.15.36-.73.2-.35-.11v1l-.31.14-.28-.63-.17.76-.41.29.77.16.26.67.95.25.17.22h1.2l.31.67-.19.25,0,1,.18.34.44.05.39.54-.56,1.25,0,.5-.35.49,0,.5.31.27-.17.31-.38.08-.2.72-.49-.31-.58.65-.62,0-.45-.76-.34.37h-.32L281,147l-.29,0-.83.85.05.75.55.5-.11.63-.26,0-.27.55-.35-.07,0,.48-.68.08,0,.47-.31.31.15.81-.41.74.23.35-.09.64.26.37.43,0,.64.31,0,.2.71.14-.12.38.44.46,0,.52.56.81.12.79.49.44-.36.57.52-.13.5.4-.15.75-.57.84-.15.61-.28.18-.1.48-.39.28-.12.67-.38.62-.45.21-.07.59.21.14-.11.37.16.19-.23.34.21.7-.29.2-.14-.29-.23,0-.11.79-1,.5-.32,0-.17.26.29,0-.2.56.46.15,0,.25.34.27-.23.57.27.33.8.3.15.54h0l-.32,1.2.13.1-.22.07.18.16-.28.14.34.24-.36.13.21.5-.16.26.27.1-.09.31-.34,0,.13,1.3-.57.16.35,1.55-.52-.09-.37,1-.7.17-.32.31-.35,0v.43l-.64-.13-.63.91-.61-.25-.26.1.05.4-.4.14-.1.33-.78-.06-.41.45-.55-.17-.17-.37-.24.38-1.16,0-.37-.18-.45.27-.34-.05v-.27l-.49.19-.05-.21-1-.21v1.84l-.19.26-.14-.28-.4-.13-.89.08-.17.35-.91.34v.37l-.71.83-1.29.29-.33-.13-.79.32-.49-.14-.39.46-.93.42-.26-.25-.19.6-1,0-.48.53-2.1-.09h0l-.62-.11-.34-.65.26-.75-.07-1.57.62-1.15.29-1.46.8-1.09.22-1.09.42-.82-1.14-4.57.39-3.58-.78-.85.06-.16.25.12.12-.4-.21.06.05-.34-.33-.07.29-.26v-.51l-.3-.12.22-.17.12-.62-.39-.44.55.07-.26-.23.79-.6.92-1.52.2,0-.09-.28.2-.27-.49-.22.05-.53.73-.26.3-.81-.21-.75.26-.13-.66-.5.34-.4-.57-.34-.51-1.06-.55-.41-.08-1.92.11-.27.3-.09.13-.72.53,0,.57-.53.31-.75.44.08.2-.2v-.48l.21,0,.1-.53-.24-.62.91-2-.27-.87.19-.28.82-.4.34-.64.25-1.36.3-.21-.44-.12,0-.36-.22.1-.11-.23h0l-.1-.22.28-.24,1.31-.09.11-.47.45-.31-.06-.91.24,0-.12-.29.42-.13,1.07.21.76.41,1.18-.21.31-1.72,2.28-4,1.06-.43,2,1.19.69-.35.3-1.09.68-.28,1.81-.51.46.84,1.69-.25.84-.86.62-.31.18-.37.48.56.67-.57.7-.08.15-.34-.28-.4.17-1Z"/><path id="CN-12" class="cls-1" d="M305.07,136.51l.45-.16.67.15.3.6.4.27v.3l.72.22,0,.5.38.09.06.27-.25.18-.39-.24-.46.14-.39-.22-.31.12-.21.87.35.74-.11.28.82,1-.31.65.5.12.13.36.37-.51h.77l.39.2-.44,1.14,0,.49.49-.1.47.39.4,1.26h0l-1.05.12-.58.28-.7.75.4,1-.51.08-.59.93-.42,1,0,.87h0l-.12.41-.67-.07-1.35.42-.18-.09.14-.26-.17-.16-.86.36-.58-1-.72.1-.55-.45h-.6l-.3-1.72.34-.84,1-.33.2-.64-.08-.21-.38,0-.07-.33.22-.3-.18-.46.2-.41-.2-.25-.24.16.22-.76-.42-.28.16-.63-.18-.2,0-.54h0l.34-.47.35-.14,0-.16h0l.37-.13.18.61.39-.1.86.24.06-1,.22-.34-.27-.45.71-.23-.71-.28-.16-.4.34-.51,0-.64.23-.19-.11-.11h0l1.29-.8Z"/><path id="CN-71" class="cls-1" d="M334.22,284.36l.15.64-.37-.16-.27-.43Zm-13.35-11.43.31.43-.34-.07-.52.41-.22-.22.14-.36Zm-.47-.52.19.32-.16.11-.11-.31-.37.26v.48l-.34,0,.32-.72Zm-8-6.42.26.36,0,.4-.53-.07-.38.35-.24-.06-.14-.14.17-.08-.06-.42.61.13.09-.36ZM325,279.38l-.53-1.63-.91-.8.37-.41-.11-.4.29-.54-.08-.3.23-.67.2,0,0-.77-.26-.08.23-.21-.06-.84.25-.45v-.79l.65-.19-.15-.23.24-.11.3-.86.64-.72-.29-.1.72-.75,0-.47.26-.38.15.05,1.19-2.26,1.3-1.14.1-.75.91-1.46,1.14-.55,1.23-.28.43-.79,1-.32.88,1,1.37.39.12.68.47.11-.55.31-.7,1-.06.58.16.82.31.41-.06.54-.24.1,0,.32-.34.35-.19.95-.7.78-.06.54-.32.37.21.6-.27.34-.72,3.33.09.3L333,276l.05.69-.32.19-.76,1.55-.41.25.08.4-.19.29-1,.69-1,2.5,0,2.21-.4.35.16.67-.7-.45-.18.3-.19-.11-.18-.71.21-.57-.52-1.49-.38-.49-1.6-1-.75-1.07Z"/><path id="CN-65" class="cls-1" d="M99.47,49l.24.6-.24.74.58.66-.28.33-.75.19L98.9,52l.5.36-.12.39.84.54h.52l.59.58-.49.55-.31,1.12.06.4.15-.64,2.35,1,.52.9.73-.22,0,.3.61.53-.23.55.09.53,1.24,1,.46.22.47,0,.6.41.37.52-.11.7.13.16,1.15,0,.58-.71.53-.05,0-.19,1.37-.06.24.25-.16.26.28.56.75.56.49.76.67-.12.36.14.14-.7.73.23.07,1,.45.45,1.35.67-.06.43.89,1.32v.68l.24.41-.1.67.28.73,1.51,2.47.87.19.38.3.35.85,0,.55.71,1.15-.24,1.11.35.29-.69,2-.47.64.26.65-.08.4.59.87v.91l-1.1,1.23-1.11,1.89-.28,1.91.92,1.36.12.91.31,0,.26.29-.12.69,1.77-.09.76.63.92.32.6-.39.46.59.46.23,3-.08,1.08.38,1.42-.18,1,.38,3.86-.08,3.05.52,1.46.73.29.43,3,1.8.79.74.11.58.73.18,1,.58.83,1,1.64.57.41.33,3-.34,0,.28-.4.5-.18,1.59.21.23,1.22.31.78,2,.19,1,1.33,2.65.09,1.3,1.25,1.34.56,1.09,1.18,1.21.29,1.57h0l-1.87,1.1-.5,4.59.21.94-.45,1.08-.91.5-1.2.17-1-.3-3.19.7-2.79,1.46-1.83,2.13-2.88,2.79-1.36,2L139.88,133l-2,1.29-3.06-.24,0,3.58-1.07,2,.77,3,.48.83,0,1.14-.16.32.17,1.09h0l-.61.27-2.53.28-.31.56-.35.05-.13.32-2.29.41-1.35.68-1.2.1-1.77.5-1,.55-1.26.36-2.43.44-1-.09.12.3-.23.35-1,.39.07.26-.32.27-1.88.56V153l.64.77.69,1.6,1,1.43-.54.61.29.69-.15.24.45.08.21.35,1,.24,1,.6.53.49-.1.36.54.51.45-.14.58.22.3,1.13.37.56,0,.56.63.52.23,1.07h-1l-.44.48-.41,0-.27.39-1.14.05-.84.81-.08.29.23.56-.3.37.18.81,2.07.47,0,.75.19.17-.2.85.35.27-.22.34.37.39,0,1-.87-.1-.3.57-.6.16L120,173l-.65-.36-1.13-.19-.52.17-1.47-.27-.73-.4,0-.29-.88-.29,0,.82-.45.49.08.42-1.52-.06h0l-1.7-.58-1.76-1.23-.37.37h-.37l-.64-.54-.51,0-.27-.39-.61.09-.49.45-.54-.57-.47-.18-.24-.56-.63.07-.19-.31h-.64l-.36.22-.54-.11-.8.38-1.06-.1-.62.58-1.12-.13-1.13.37-.68-.17-.1-.46H96.3l-.5.46-.79.12-.3.45-1.07-.1-.66.36-.25-.35-.74.11-.58.5-1,.08-.17.21-.37-.16-.44.12-.24.33-.73.08-.38.27-.13.82-.33.28,0,.52-.5.8-.69.53-1,0-.77.26-.7.89-.5-.1v-.45l-1-.14-.83-.45h-.37l0,.16-.45.13H80l-1.15.61-.21.3-2.68.78.16.28-.17.31-1.89,1-.59-.05-.26-.4-.45-.09-.56.12-.29.39H70.6l-.44.23-.56,0-.31-.45-.7.11-1.07-.32-.35.23-.45-.05-.42-.55-.48-.18-.26-1.59-1.15-.15-.45.43-.71-.47-1.19-.22-.29.1-.16.44-.4,0,.1.34-.21.49-1.89.89,0,.73-.25.3-.61.07.11.22-.55.28L57,180l-.43.24-.82-.08-.82-1-.36.18-.45-.16-.72.31-.19-.39h-.34l-.3-.36-.47.23.15.31-.19.3-1.26-.31-.87.08-.21,0-.23-.47-.39-.13-.28.13-.16-.46-.49-.09-.73.68-.46.16-.16.51.17.3-.18.3-.3.19-.54.92-.68.33-.41,1.68-.74.09-.13.86.36.41-.4.28.17.32-.31.59.13.25-.42.41h-.64l-.44.28-.7-.25-.22.24L40,187l-.43.21-.53-.23-.51.24-.28.66-.56-.44-.21.14h0l-.71-.35L35,185.54l-1.06.05-.13-.36-.8-.16-.37-.42-.33-1.39-.7-1.7.29-.44-.57-.57L31,179.31l0-.39.7-.52.05-.25-1,0-.41.45-.61-.77-.83.32-1.12-.14-.93.24-.62-.53-.88,0-.9-.61-.72-.06-.7-.55-.7,0-.6-.72-.49-.23-.2-1.13-1.21.39-.31.33-.88-.15-.33.15-.09-.81-.49-.74-.62,0-.39-.44-.06-.55.57-.28-.09-.47.34-.06-.47-.56v-.48l.29-.42-.13-.48-.53-.83-.1-.61-.46-.48-1.39-.8-.74,0-.11.38h-.53l-.46-1.64.09-.28-1.14-.13-.63-.54-.85.08-.71.66-.5-.46L9,164.6l-.63.34L8,164.31H7.71l-.52.52-1-.71.39-.46-.13-.24.13-.4,1.2.08.57-.37.44.54.59-.07.3-.59,1.27-.27-.11-.48.25-.48-.57-.85-.3-.2-.08.29-.51-.34-.21-.89.69-1-.61-.6.15-.39-.11-1.13-.37-.19-.52-1.36.11-.36-.16-1,.58-.38v-1l-.29.18-.28-.37-.43,0-.61-.54-1.85-.64-1.67-.08-.38,1.19-1-.05-.22-.33L1.71,151l.14-.31L1.54,150l-.14-1-.24-.29.31-.59.62-.07.06-.32-.17-.5-.53,0L1,146l-.46-.62-.36,0-.05-.17.77-.9-.07-1,1.29,0,.66-1.17L2.6,141l-.54-.4.21-.6.39-.3,0-.41.48-.75-.25-.21.65-.6.5.1.09-.22.73-.2.78.37,1.27-1.09.44-.64.68.07.14-.72.68-.05.39.31.29-.19-.77-1,.23-.18,0-.53,1.11.67,1.61.09,1.39-1.08.29-.45.93-.45.33,1.38.56.26-.05.38-.5.49.33.43.07.53.55-.2.32-.37.09.27.56.22.33-.82.87-.28.67.22.73-.71.27.92.85-.44.47-.5.12-.66.75-.87-.08-1.16,1.06-.86v-1l.55-.56,1.27-.35.74.4.53-.11.31.19.6-.23,1.32.36.53-.18.26.13,1.49-.68.74,0,.52.41.41-.34.5-.09.58-1.23.78-.54.17-.4-.2-.37.08-.51.59-.1.7-.45h.44l.47-.75.89-.23.7-.65.51-.11,1-.66.49,0,.31-.46.69-.17.34-.37.46,0,.12.2-.23.26.16.13,1.3-.09.63-.67L43.9,120l.26-.19,1-.13.66.16,1.08-.24-.22-.31.14-.38-.17-.81.22-.13.07-.35-.55-1.46,0-.53.43-.3-.6-.5-.14-.85.33-.43.28-1.16h1l1.34-.65-.15-.27-.61-.16-.54-.43-.07-.57.75-.29.64-.52,1.27-.16.16-.3L50.26,108l-.59,0-.1-.17.6-1.4-1.58-3.59-.75-3-.47-3.21.42-1.24-.3-.46.88-.49,0-.26-.82-.53-.16-.32-.36,0-.06-.24-1.74.38-.29-.16-.2-.6-.41-.18-.34.13-.05-.16,1.44-1.11.21,0V91l1,.18.62-.35.51.22.62-.72.94.08.63-.27.23-.36,1.13.43.42-.36.86-.07.21-.45.41.09.1-.19,1-.37.29.12.34-.32.14.18.35-.06,1-.77.44-.13.69.59.21,1,.55,0,.4.52,2.07-.78.38.09,1.25,1L63,89.23,63.29,88l-.2-.71-1.3-.39-.87-.6-.13-.38.25-1,1.36-3.1.17-2L64,76.42l.48-2.34.58-1.29.32-1.38.4-.44.26-1.59,1-.12.48.46.75,0,.4.52.34-.1.85.76,2.76.63.43.31,1.22-.35,1.5-.11.54.33,1.25-.27.69,1-.63.7.77.13,1.09-.46.09-.43.66-.19.83-.75.23-.48,2.14,0,.32-1.34.84-.42.07-1.48L84,66.23l.12-.91-.55-3.42L84,60.41v-.77l.87-2.23.8-.59,1.14-.23,1.39.14.72-.68.5-.09.3.16,1.08-.51.32-.86.36-.15.53-.8-.11-.69.46-.65-.55-.76-.07-.8.74-.64.25-.65.72.13,1.15-.54.61.39,1.36.33.62-.24,0-.38.4.15.92-.45Z"/><path id="CN-54" class="cls-1" d="M37.51,187.55l.21-.14.56.44.28-.66.51-.24.53.23L40,187l1.55-.07.22-.24.7.25.44-.28h.64l.42-.41-.13-.25.31-.59-.17-.32.4-.28-.36-.41.13-.86.74-.09.41-1.68.68-.33.54-.92.3-.19L47,180l-.17-.3.16-.51.46-.16.73-.68.49.09.16.46.28-.13.39.13.23.47.21,0,.87-.08,1.26.31.19-.3-.15-.31.47-.23.3.36h.34l.19.39.72-.31.45.16.36-.18.82,1,.82.08L57,180l.89,0,.55-.28-.11-.22.61-.07.25-.3,0-.73,1.89-.89.21-.49-.1-.34.4,0,.16-.44.29-.1,1.19.22.71.47.45-.43,1.15.15.26,1.59.48.18.42.55.45.05.35-.23,1.07.32.7-.11.31.45.56,0,.44-.23h1.3l.29-.39.56-.12.45.09.26.4.59.05,1.89-1,.17-.31-.16-.28,2.68-.78.21-.3,1.15-.61h.83l.45-.13,0-.16h.37l.83.45,1,.14v.45l.5.1.7-.89.77-.26,1,0,.69-.53.5-.8,0-.52.33-.28.13-.82.38-.27.73-.08.24-.33.44-.12.37.16.17-.21,1-.08.58-.5.74-.11.25.35.66-.36,1.07.1.3-.45.79-.12.5-.46h.55l.1.46.68.17,1.13-.37,1.12.13.62-.58,1.06.1.8-.38.54.11.36-.22h.64l.19.31.63-.07.24.56.47.18.54.57.49-.45.61-.09.27.39.51,0,.64.54h.37l.37-.37,1.76,1.23,1.7.58h0l-.83.06-.77.43-.52-.13-.18.36.18.11,0,.55.89.38-.14.09,1.86.13-.51,1.69.27.53-.35.13-.08.26,0,.31.39.26-.51.5-1.33.47v.65l.21.05-.53.44.46.81.48.18-.17,1.53.16.3.34.13.49-.3h.66l.06.38.4.47-.46.59-.51.2.09.64.39.18-.14.31.25.38.08.8-.16.4.48.55-.29.32-.11,1.1-.41.32-.42,0-.34.62.31.75.71.77h.34l.62.56-.1.54.42.07.23.3-.14.52,1.23.61.46.45.06.82.92,1.11.83.06,1.45,1,1,.25,1-1.08.19.15,1.08-.15.14-.52.25-.18,1.15,0,.19.26-.3.09v.22l.73,1.12.4.12.19.4.85.49.76.4h.36l.1.34h.26l.5.71,1.22-.54.6.39-.21.29,0,.43.43.24.66-.36h.67l1.31.36.33-.36,1.24.56,1-.38.35.94.76-.29.52,0,.92,1.1.57-.24.11.41.3.25.63-.37.31-.42.46,0,.64.21.32.66.42.08.3-.2.33.34.32-.2.55.29.31-.2.16-.47,1.11,0,.2-.65.41.27.08-.28h.54l.54-.58,1.16,1-.18.14.4.4.57.18.25.6-.27.09.07.21.79.31.44.52,1.58,0,.33.65.31-.09.23.22.13.72-.27.23.2.27-.35.08-.14.29.62,1.3.43.44.33,0,.41-.29.86.18.46.67.36-.34,1.61.06.3.2.38,1.2.33-.1.08-.28-.28-.14.25-.65-.22-.54-.6-.48.11-.35h.37l-.11-.35.9-.38.87,1.25.73.52.41-.09.3.23.21-.17.39.42.49.05.22-.45-.55-1,.34-.34-.41-.42-.17-.67.62.08.29.31.29-.32.3.25.15-.09-.2-.35.15-.2,1.47.28.47-.22-.11-.42.22.22h.4l-.31-.83.17-.82.26-.16.31.22.33-.26-.4-.24.39-.09-.19-.6-.34-.18.32-.45-.11-.22,2.11.41,0-.21.44-.22h0l1.67.46.76.58.81.34.21,1.06.6,1,.84.83,0,.65-.21.22.12.6.89.91.12.55.42.5,1.83,1.73-.72,1-.64-.67-.37,0-.23,1.2.49.29.46.89.42.29-.12.93,1.25,1.07v.27l-.39.3.5,2.42.07,1.86.4.61.2,1.21-.36.69-.18,1.37.41.9.08,1.73.33.72h0l-.63.46-.27-.1-.14.15.39,1.05-.68.61,0,.57.4.26-.08.34-.39.2-.44-.05-.44-1.52-.51.27-.51,0,.39,1.89-.66.5.2,1.32.42.24.49,1.07-.27.26-.05.59-.57.53-.53-.15-1,.59-.32-1.46-.52-.81-.56.32.43.86-.69.3.06.29-.26.18h0l-.48-.47-.37,0,0-.48-.86-.87-.68.32-.62-1.39-.53.33-.4-.58-.68,1.29,0,.83-.34-.16-.13.37-.33.11-.92-.53h-.36l-.56-.55-.67.42-.49-.23-.19-.32-.81.12-.22-.4-.6-.35-.59,0-.48.35h-.36l-.41.59-.2-.39-.72-.13.73-.61-.33-.37.57-.23,0-.24.19.06.45-.41-.15-.39.79-.27.21-.45-.54-.83-.13-.69-.22,0-.07-.23.33-.67-.62.33-.62,0-.68.71-.58.29-.14-.25.28-.4-.49-.71.49-.14.52-.52.6-.08.32-.68-.21-.23-.49.39H158l-.42-.59-.06-.43-.65-.79-.86.64-.53-.07-.59.44-.13-.16-1,.84-.27-.09-.09.35-.34,0,.06.67-.35-.09-.07.51-.27.32-1.26-.17-.11-.41-.9-.06-.86-.44.18.33-1.06-.43-.51.16-.14-.6-1-.86-.49.95-.88,0-.51.58-.49,0-.51.51-.41,1-1.12.9.05.52-.53.81-.56-.28-.48.31-.3-.16-1.38.24-.3-.2-.12.24-.2-.18-.75.29-.43,1.06-.65.51.35.31-.09.53-1.36.24.07.32-.23.25-.26-.24-.48.44-.47.26-.19-.24-.78.6-.17.5.53.57-1.24,1.32-.42-.16-.32.3-.4-.14-.57.34-.36-.63h-.37l-1.08.77-.5-.08-.45.43-.41-.17-.25-.57-.54.05-.76-.4.25-.23,0-.44-.3-.19-1-.1-1.14-.88-.82.35-.7.59-.56,0-.62-.54-1.17,0-.27-.35-1.87.43,0-.19.47-.64.7-.58-.84-.06-.85-.32-.18.1-1-.54-.51.3-1-.33-.39.28-.27-.11-.69.61,0,.39-.61.2-.72-.05-1,.82-.23.56-.6.14.08.8-.68.24-.94,1.66-.34,0-.74.87-.16.81.31.73-.18.23-1.12-1-.2-.41-.11-.87.55-.8.06-1.15.21-.34-.34-.57,0-.62-.57-.49h-.59l-.32-.45,0,.22-.43.14-.11.37-.34-.08-.67.54-.39-.07-.65.31-.1-.15-.28.19-.38-.15-.15.75-.79-.38-.57.78-.3.07-.41-.23-.14.19-.31-.16-.17.14-.21-.23-.67.25-.14-.43-.81.35-.31-.23-.52.18-.52-.11-.25.2-.67,0,.08-.29-.72-.61-.76-.16-.58-.54-.38.07-.66-.7-.47.26-.37-.05-.47.45-.1.34.17.46-.36-.1-.38.2,0-.45-.5.18-.23-.25-.73-.1-.17-.7.14-.17-.31-.55-.63.63,0,.6.33.58-.43.24-.43-.09-.35-.18.07-.32-.48-1-.87-.75-.27.1-.7-.44-.46-.47-.85-.13-.43.37-.26-.14-.62.15-.34-.47-.63.06.55-2.24-.43-.47-.53.13-.39.45-.42-.08-.56.36-1.17-.35.09-.34-.31-.56-1.67-.08.12-.58-.25-.33-.78-.24-.19-.24-.76.22.11-.8-.34-.5.55-1.28-.7-.52-.51,0-.15-.25-.58-.06-.92.6-.51,0-.56.58-.69-.31-.63-.63-.34-.89-.46-.44,0-.36-.49-.16-.11-.49-2.22-.95-.53-.06-.65-.42-.34-.62-1.41-1.34-2.09-.68.08-.67-.35-.44-.07-.78-1-.06-2.59-.79-.34.06-.07.45L55.3,220l-.53.07-.15,1.69-.33.41-.51.06-.07.7-.39.22-.72-.39,0-.58-.33-.43-.18,0-.13-.48-1.39-.46-.51-.63-1.06-.71-.41.26-.88-.62-1.31-.41-.21-.74.39-.53-.51-.56-.42.24-.42-.52-.89-.38-.44-.72-.76-.21-1.17.42-.3-.16-.21-.52H40.9l-.22-.65-.58-.25-.18-.66-.27-.19.09-.35-.82-1.15-.57-.26-.4.89-.45.24-.08.57-.24-.08-.35-.48,0-.34-.4-.23.14-.42-.32-.31-.23,0L36,211.1l.86-.78-.36-.61-.31,0-.07-.58-.23-.24.55-1.69-.27-.06-.58-.81-.35-.12-.16-.3.13-.5-.37-.25-.7,0,.17-.87.38-.54-.56-.32.07-.27-.3-.29,0-.25.92-.46.57,0,.19-.35.64-.38.24.8v1l1.36,1.09.5-.34.39.1.15-.76.53-.38.39-.1.37.3,1-.82.68-.17.13-.52-.22-.74-.43-.35-.16-.71-.67-.75.4-1.64-1.56-.11-.77-.31-.06-.56L36.79,195,36,193.54l.51-1L36,191.31l0-.35.38-.46-.44-.44,1.26-.78.6-.64L38,188Z"/><path id="CN-53" class="cls-1" d="M178,229.3l.14,2.43-.17,1.07.51,1.73-.05,1.38.51.82.25.07.2.65.59.47,0-.56.21-.35-.17-.28.1-.37-.17-.21-.05-1.2,1-.38.14-.81.46-.36.12-.63.66-.25.17,1,.63.39v.71l.38-.24.39.17.34.84.57.33-.1.48.82.4-.19.26.31.26-.15.28-1,.31-.08.26.4.86.74.68-.1.38.94.32-.13.38.26.75.36-.3.37-.87.81.44.63-.81.35,0,.22.41-.06.45.4.41.13.53.38,0-.09.47.34.07,0,1.06.15.15.24-.14.59,1-.08.19.32.21-.07.52.15.2.68-.07-.16,1.39.86.57,0,.37.68.15.23.35-.27.51.22.39.47-.08-.06-.38.44.14-.42.46.21.24-.14.52-.49.08v.31l1.67,1.23.15.69-.3,0-.17.24.2.56.5-.25.35.2.41.43.26.89.61-.51.21.2.42-.1.57.22L199.8,253l.53-.12.39-.45,1-.32.16-.23.51.22-.19.67.47.32L203,253l.21-.44.7-.37.21-.31.14.18.62-.08.06-1h.22l.23-.39-.27-.4,0-.57-.3-1.05-.59-.9-.19-.9.28-.73-.18-1.38.41-.91.31.36.46-.32.59-.09.6-1.15H207l-.09-.48,1.51-1.43.09-.81.39-.46-.38.06-.13-.48-.32,0,0-.78,1.28-1.06.53.45,1.09-.79-.09-.7-.48-1,.35-.53.07-.61.14,0,.1.39.5.16.66-.2.36.16.23-.24.71,0,.09-.19.42.36.39-.19.4.13-.46.55-.74.24,0,1.06.3.58.52-.1.17.49h.34l.08.18-.41.42.12.18.29-.05-.12.47-.34.16,0,.31-.56.1,1.38,1.27.53.31,1-.42,1-.09.69-1.19.49-.28.95.27.09.57.49-.06.1.53-.32.35.13.46.4.09-.2.24.14.6h0l0,.66-.54.59.22.24-.47,1.11-.16-.24-.66-.1-1.45,1-.09-.38-.26-.1-.29.29-.26-.21-.83.25-.57-.2-.16-.52-1.06-.5-.4.8-.4.24.07.24-.51.25-.42-.48-.75-.35,0-.45-.58,0-.44,1-.84.73-.31.58-.52.17.21.35-.4,0,.1.47.58-.34.53.76v.61l-.38.16-.13.35.21.61.25,0-.15.85.47.68,1.36.15.37-.14.47-.84,1.46.17.47-.7.37.45,0,.38.21.18.56,0,0,.45.63.71.13.46-1,1-.16,1.22-.45.17.09.45-.34.82.14.25-.43,1.06-.37-.13-.09.73.12.4.69.17.05.78.89-.32-.13.9.69.33.07.5,1.17.35,0,.64-.5-.37-.48,1.08-.35,0,.39.07.23.48-1.15,1.31-.1.7h0l-.35.61.17.59.75,1.25,0,.21.61.45.18-.14,0-.8.32-.1,1.27.39.73-.25.37.14.07.38.59.27-.1.41.36.7-.37.38.55.53.43-.36.63.6.51.13.33-.81.51-.08.4.73.75-.23.23.12-.09.17.34.05.11-.23.3.06.13-.54.58,0,.66.76.34.93.36.26-.17.07.13.28-.39.22.15.65-.26.83.15.23-1,.92-.09-.31-.54-.08-.2-.23-.38.11-.13.36-.33.06-.41.44-.35,0,.29.52-.26-.16-.45.3-.43.5.1.41h0l-.27-.06-.42-.75-.21.09-.27-.23-.31-.55-.51.41-.19.51-.37-.14-.41.32-.2-.18-.61.5h-.26l-.08.24-.4,0-.13.38-.53,0,.45,1.37-.94.73,0,.2-.89,0-.18-.18-1.5,1.21-.65-.37.06-.74-1.13.21-.53.66-.42,1.62-1.08-.82-1.14-1.29h-.25l-.41.66.11.29-.34.52-.73-.91.08-.35-.82-.43-.28,1.05-.66.26-.19.38.17.26-.7.36-.07.46-1-.27-.48-.95-.51-.11-.59-.53-.33.05-.34-.32-.26.21-.49-.56-.28.13-.16.45-.37.14.12.39-.88,1-.08.64-.52-.16-.29.26-.19-.29-.66-.13-.72.16-.22.41-.68-.87-.71.19-.18.41.12.33-.33.64-.43,0-.17.25.4.66-.19.34.4.75-.07.33.35.26.21-.07,0,.38.5.45-.2.81.52.9-.45.19.11.48-.2.22-.06,1.25.74.46,0,.3-.42.07,0,.47-.57-.07-.22-.37-.48.17,0-.41-.32-.13-1.16.17-.78.35-.37-1,.25-.46-.49-.28.15-1.06-.45-.07.12-.55-.38-.18.07-.84-2,.94-.24.47-.85.76-.7.24-.6-.05-.38-.53-.39-.09-.51.45-.76.28-.44-.44-.15-.58.41-.59-.23-.26-.88,0L184,287l-.21-.62.37-1.15-.21-.57-.61-.1-.23.31-.71-.4-.31.26-.35-.46-.86,0-.36-.27-1,.28-.78-.11-.41-.33.25-.09-.15-.1.66-1.22-.17-.29,1-.84-.17-.21.15-.44-.42-1.24.38-.1.47-.65,0-.72.44.29.38-.22-.31-.5,0-.6-1.14-.39-.91.32-.46-.14-.28.14-.42-.3.05-.3-1.2-.14.38-.77-.06-.24-.32,0,.27-.19v-.5l-.32-.5L176,274l-.15-.52.59-.58-.48-.62v-.45l-1-.39.17-.15-.11-.59.13-.22-.21-.16,1.11-.69.34-.4-.05-.39-1.89.46L174,269l-2.76.22-1.77.69v.22l-1.63,1-.15-.35-.64-.35.35-.42.33,0,.87-1.29-.21-.26.23-.56-.64-.22,0-.26.38-.1-.26-.69-1,.07.25-1.44-.13-.88,1.1-.73.35.1.18-.18-.49-1,.1-.68.78-1.51.46.4.27-.07.49-.64.36-.07.25-.57.22,0-.1-1,.39-.3-.07-.54,1,.6.33-.13.85-1.89.49-.31.59.34.49-.48,0-.28-.71-.66-.26-1,.53-.21.12.43.36-.34.11-.4-.19-.42-.24-.07,0-.51.42-.53.31-1.82-.1-1.47-.2-.41.14-.39-.17-.72.21-.36-.44-.44-.1-.82.32-.8-.32-1.17.12-.78-.26-.37-.48.1-.29-.44-.19.18-.42-.44h-.28l-.07.87-.31.37-.28,0-.3-1-.48-.65.06-.75-.45-.24.29-.4-.47-.47.15-1-.16-.43h0l.26-.18-.06-.29.69-.3-.43-.86.56-.32.52.81.32,1.46,1-.59.53.15.57-.53.05-.59.27-.26-.49-1.07-.42-.24-.2-1.32.66-.5-.39-1.89.51,0,.51-.27.44,1.52.44.05.39-.2.08-.34-.4-.26,0-.57.68-.61-.39-1.05.14-.15.27.1Z"/><path id="CN-33" class="cls-1" d="M336.25,223.59l-.18-.19v-.47l.26-.29.32.29.06.4Zm1.13-.2.28-.13.7.13.86.54.33-.77-1.63-1.08-.86,0-.2-.27-.1.19.29.42v.41Zm2.86-3.37-.05-.27-.4-.26-.66,0,0,.42ZM340,221.5l.05-.29-.49,0-.47.24.71-.09Zm-1.23,0-.05-.8-.3-.06-.59.39-.3-.07.62.39Zm-.73,3.53-.37.12-.16.49.43,0,.19.43.3.1.19-.31-.53-.5Zm1.43-1.16.54.83.11-.9-.52-.1Zm-.75.84.65.51-.11-.56Zm-6.64,13-.2-.23-.23.37-.51.27.16.78,1-.41-.23-.41Zm4.93-8.57.16-.06v.15l-.44.55-.87.29-.19-.31.28-1.14-.12-.3-.27.17.12.72-.18.65L335,230l-.4-.14-.21-.5-.08.09-.32.15-.08.25.54.39-1-.12,0,.41,1.32,0-.07.42.51.31-.33.28.45.22-.61.34-.59-.35-.3,0,.28.34.63.17,0,.25.27.2-.15.19.17.11h-.21l-.22.65-1.14.16.38.15.31,1,.27.15.05-.19.16.06-.35.76.31.71-.09.18.46-.2-.21.53-.38.28v-.49l-.84-.16-.09.28-.23-.07.17.31-.53.31.19.33-.36.32-.42-.41,0-.38-.32-.16-.29-1-.45.84.09.28-.24.62-.53.19L330,239.3l-1.09-.05-.66-.38.19.42.88.41,0,.53L328,241.59l-.11.59-.4.19.18.7.42.19-.35.4.06.48-.71-.3.11.19-.35.34.3.14,0,.27-.23.06.17.23-.16.39-.32.26-.2-.44-.09.33-.22-.53.15-.13-.49-.66h0l0-.38h-.51l-.21-.3-.76.1-.72.6-.22-.29h0l-.44.31h0v.19l-.45.1-.17-.16-.1.17h0l-.47,0h0l.08-.17h0l-.67-.85.15-.54h0l-.54-.67.06-.61-.57,0-.13.25-.31-.1-.3,1.12-.52-.16-.92.88-.79-.1,0-.38-.46.1-.32-.21-.36.28h0l-.3,0-.25-.45h0l-.15-.05.35-.4-.26-.89.16-.21-.55-1.52-.62-.53-.07-.61.56-.52,0-.35-.24-.11.26-.51-.3-.06-.36-.46-.7.44-.21-.28-.54.08-.07.32-.42-.4h0l.4-.35-.3-.57.2-.51-.35-.19.11-1.4L312,233l-.57-.38-.27-.7-.45.1.15-.26-.24-.3-.59-.09-.39-.83-.08-.64.31-.39V229l.64,0,.29-.44-.12-.32h0l.35-.32.44.08.06-.57.59.14.13-.25h.46l.45-.82.7-.29.62-.67.11-.88.49-.31.1-.43.37-.1.05-.6-.23-.65.18-.38-.31-.06.52-.42-.22-.16-.07-.68.51-.36.62.43.3-.15,1,.27.16-.4.52-.25.25.17.26-.13-.35-.39-.16-.91-.37.15L318,219l.17-.34-.17-.29.5-.06.49-.51.2.32.21,0,.31-.49v-.56l.28,0,.31-.47-.08-.63.48-.81,0-1h0L321,214l.79-.13.1.15.8-.09.58,1.2,1.1.73.86,0,.65-.2-.06.53.38-.07h0l.11-.22h0l.16.86.38.42.52-.74h.46l.4-.35-.16-.43.13-.15.27.06.56-.34.13.19.39-.23h0l.44-.11.25.2-.09.82.21.2-.19.38.81-.19.18.54h.59l.31.3.06.45h0l-.68.34-.26.34-1,.38-.38.63.19.35-.38.21v.29l-1,.42-.24-.48-.57-.19.3,1.12.29.31h.56l.39.55,2.15-1.37,1.08,0,.68.34.56.63,1.21,1.81.79.12.84.38.11.22,1.37-.1.06.2-1.07.5-.54.52-.29,0-.08.47-.54.35-.53.74-.9.09-.34.25-.05-.27-.19.05-.44.56.16.48.44-.6.08.26-.24.56.54-.7,1.08-.53.56.51L336,227l-.58.05,0-.15.34-.37.86-.31.55.34-.5.49.43.66-.46.29.14.19-.17.4.27.05-.25.08-.08.25Zm-.73,1h-.61v.24l.36.15.51-.14.15.44h.16l.22-.23-.28-.78Z"/></g></g></svg>