<svg xmlns="http://www.w3.org/2000/svg" viewBox="0 0 461.23 314.41"><defs><style>.cls-1{fill:#ccc;stroke:#fff;stroke-width:0.21px;}</style></defs><title>Etats-Unis</title><g id="Calque_2" data-name="Calque 2"><g id="Calque_1-2" data-name="Calque 1"><path id="US-AK" class="cls-1" d="M138.65,216.22l-.05,2.1,0,2.08,0,2.08,0,2.07,0,2.06,0,2.06,0,2,0,2,0,2-.05,2,0,2,0,2,0,2,0,2,0,2,0,2,0,2,0,2,0,2,0,2,0,1.95,0,1.93,0,1.94,0,1.93,0,1.92,0,1.91,0,1.92,0,1.9,0,1.9,0,1.9,0,1.89,0,1.89.76.28.75.27.25-.51.81.4.71.36.46-.44.5-.49.67,0,.75,0,.5,0v.42l-.19.68-.16.58.42.53,0,.05.57.31.52.28.25.79.58.6.44.46.43.44.61.63.43.44.58.58.35.35.17.68.21.81-.11.49.27.07.52-.55.49-.35.61-.43.4-.29.77,0,.34-.82,0-1.15h.39l.22-.16.09-.34-.26-.45.72-.24.53-.18.73-.45.72-.44.36.31.36.29.72.72.05.17,0,.35-.05.36.46.95.13.11.35.12.43.3.19.27.62.42.11.18.07.3.11.25.12.18.12.26.28.29.51.32.35.22.5.31.53.65.46.57.52.56,0,.47.53.7.58.88.46.78.31.44.39.63.48.78.54.87.41.56.54.79.28.47-.14.34-.17.43.64.15.44.1-.08.47-.09.61.51.2.34.14,0,.32.21.35.08.59.59-.09.26,0,.38.23.5.31.5.28.43.24.54.11.68.18.37.45.61.15.29.65.71.18.39-.2.18.25.14.31.07.39V306l-.13.34-.1.37-.05.38v.41l.06.42.1.37.29.67.11.42,0,.28-.38,1-.12.49,0,.21-.3.52-.58.76-.25.42-.16-.12-.84,0-.39-.85-.22-.68-.3-.57v-.14l.18-.41.79-.41v-.13l-.32-.06-.09-.13-.14-.64,0-.57-.05-.38-.21-.75-.25-.46-.61-.87-.06-.23.21-.31.11-.28-.84.54-1.17.6-.5.39-.09.15,0,.12.12.32v.1l-.09.2-.08.56-.22.6-.13.13-.49-.17-.15-.18-.29-.74,0-.2.16-.19.21-.38.25-.59.45-1.48.37,0,.62-.34-1-.06-.16-.06-.15-.19-.15-.31-.23-.33-.4-.09-.17-.12-.29-.41-.19-.18-.11-.23,0-.29-.09-.13-.27,0-.15-.09-.09-.73-.54-.14-.23-.15-.37-.43-.11-.22-.05-.18.05-.51,0-.09-.3.07-1.94-.66,0-1-.43-1.35-.4-.53.06-.22.07-.12h.16l.75.36.7.43.09-.08-1.15-.94-.29-.28-.08-.36,0-.2.08-.11,1,0,.06-.08-1-.24-.21,0-.2.44-.1.1h-.22l-.07-.06-.3-.5-.26-.34-.49-.48-.1-.35,0-.52,0-.5.31-1.15.14-.21,0-.13-.11,0-.1.11-.28.55-.27.88-.25.3-.16-.06-.27-.34-.54-.4-.6-.08-.39-.42-.62-1.2-.1-.6-.07-.15-.31-.19-.2-.29-.34-1.47-.42-1-.11-.54v-.55l-.05-.06-.11.44,0,.22-.23.07.24.42.06.21h-.11l-.22.07.41.71.22,1.13.29.83.19.67.1.51.13.49.35,1.08,0,.21,0,.18-.09.21-.17.09-.54-.12-.22-.26-.31-.48-.41-.21-1,.15-.08,0v-.41l.09-.72-.11-.29-.55-1v-.2l.7-.51-.35,0-.28.2-.11-.12-.19-.68-.12-.25,0-.05v.65l.13.33,0,.2v.27l-.07.2-.13.12-.13,0-.24-.13-.28-.25-.24-.12-.08-.1-.12-.28-.19-.21L151,288l-.53-.31,0,.09.17.34,0,.2-.13.06-.23.34.07,0,.25-.11h.27l.47.19.42.24.16.14.07.22,0,.08.42.24,0,.13-.25.4.54-.06.32.13.42.6.15.33,0,.43-.08.14-.16.09-1.11.18-.38.53h-.09l-.3-.13-.57-.41-.7-.38-1.6-1.15,0-.05,0-.23-.11-.12-.22-.09-.29-.3-.39-.49-.24-.39-.09-.28-.22-.32-.71-.66-.37-.26-.33-.14-.28,0-.08-.09.13-.15,0-.09-.62-.13-.59-.31-1.5-.89-.77-.56-.44-.27-.19-.15-.09-.12.11-.13.3-.13.2-.15.32-.56,0-.18-.17-.41-.08-.37v-.21l0-.2,0-.13.13-.14.1-.06.11.05.38.51.05.19,0,.7.11.82,0-.06,0-.27,0-.52.05-.25.08-.24.13-.13.42.08.2,0-.83-.37-.51-.7-.09-.07-.29,0-.3.28-.77.91-.22.16-1,.5-.65.1-.74-.1-.63-.17-1.57-.84-.24-.2.38-.48,0-.16-.11-.51-.1-.15-.15-.08,0,.05v.16l0,.28-.12.14-.27.15-.45.15-1.39-.45-1.42-.39-1.27-.12-1.81.19-1,.22h-.56l-.54-.08,0-.19.25-.09v-.14l-.28-.45-.46-.28-.62-.13-.36-.15-.08-.16-.21-.17-.35-.16-.14-.27.17-.79.16-.47.13-.32.34-.53-.11,0-.46.37-.41.39-.39.52-.23.23-.29.21-.42-.09-.56-.37-.48-.21-.41,0-.16-.07.31-.28.17-.23.25-.37.07-.19-1.5-.17,0-.21v-.15l0-.13-.21-.11-.31.05-.51.2-.2-.2.09-.09.17-.07.35-.32-.42-.21-.21-.23-.1-.17.06-.62.15-.39,1-.3-.3-.17H120l-.45.29L119,274l-.35.14-.16-.13-.22-.06H118l-.2.1-.11.2-.13.12-.13.06-.09,0-.11-.22-.27-.15-.12-.18-.09.1-.12.29-.12.14-.49.11-.26,0-.28-.41,0-.13.14-.32.81-1.23h-.07l-.24.19-.49.47-.21.13h-.34l-.16-.07-.19,0-.24.12-.16.13-.09.16.05,0,.35-.15.2,0,0,.1-.33.55-.21.54-.17.13-.24-.05-.28,0,0,.15.46.5.17.08.22.18,0,.16-.13.42-.09.16-.11.07-.41-.05-.13,0-.31.23-.16.21,0,0,.25-.16.36-.06.46,0,.34-.06.24-.16.21.07.19.3,0,.26-.11.2-.19.13-.27.07-.18.12-.09.17-.07.27-.05.35V279l-.06.08-.11,0H114l-.14.14-.4.82-.12.08-.12-.11h-.12l-.11.1-.24.06-.35,0-.29-.05-.5-.24-.19-.16-.14-.23-.49.17-.11-.11-.23-.62-.07,0-.12.63-.12.21-.33.43-.25.77,0,0,0-.12-.09-.72-.07-.17-.31.38,0,.14v.53l-.07.07-.5-.34-.12,0,0,0,.13.43,0,.15-.84.69-.19-.05-.11-.09H107l-.51.24-.13,0-.16-.2h-.08l-.07.17,0,.35-.22.32-.64.46-.18.23-.16.33-.09,0-.3-.26-.37-.2-.06.07.09.22,0,.12-.17,0-.21-.05-.25-.12-.37.05-.5.21-.38-.06-.47-.53-.15-.06,0-.13.16-.35.19-.26.13-.11.56-.28.6-.05.39-.16.5-.38.28-.3.58-.8,0-.07-.1-.06-1.12.67-.16.06-.19,0-.77-.42-.15-.15-.06-.41.34-.85.22-.41.48-.61.61-.64.23-.43.43-1.19.06-.56,0-.7,0-.41.13-.11,1.23-.48.61-.4,1.15-.56.28,0,.19.26.22.23.26.18.36,0,.47-.12.69.15,1.39.63.31,0v0l-.18-.35-1-.3-.39-.24-1.08-1-.23-.35.13-.14.3-.09.11-.1.07-.2.2-.27.33-.32.48-.3.88-.43-.32-.06-.6,0-.23.07-.44.33-.19.24-.28.48-.1.08-.43,0-1.13-.09-.16-.28-.1-.06-.14,0-1.12.53-.42.29-.31.35-.45.23-.58.11-.45.16-.5.38-.19.32,0,.15,0,.52-.12.08h-.27l-.45.28-1,.86-.16.34,0,.13.11.3-.13.16-.29.25-.61.37-.39.12-.23,0-.21-.09-.36-.35-.31-.07,0,0,.39.38.38.47.23.37.07.28,0,.27-.14.27-.39.44-.34.1-.82,0-.27.08-.09.07.51.29,0,.12-.14.39-.17.11-.49.17h-.43l0-.06.13-.31v-.08l-.15-.09-.23.09-.62.38-.07.07.17.16-.06.09-.35.29-.16.2-.23.2-1,.56,0,.18-.33.57-.22.51.12.25.7.38.35.12.4.26.7.62.2.36,0,.16,0,.16-.13.21-.31.39-.69.54-.29.13-.43.08-.15.08-.62.51-.19.3,0,.28-.14.18-.73.28v.07l.24.07-.15.33-.12.46-.13.06-.42-.07-.56.09,0,.05-.07.34H90.29l-.42.59-.19.17-.63.36-.38.13-.4,0L88,291l-.05.2-.14.16-.39.23-.23.33-.13,0-.64,0-.14.08-.15.48h-.12l-.2-.15-.31,0-.75.43-.18.17V293l.08.13.09.36,0,.22-.37.57-.11.07-.33.09-.19.32-.28-.09-.24,0-.19.2-.19.1h-.18l-.25.13-.33.28-.29.16-.24,0-.22,0-.21-.09h-.19l-.2.09-.2.15-.24.51-.22.2-.11,0-.21-.08-.31-.18-.34,0-.6.21-.23.21.33.13.15.11v.06l-.19,0-.3-.06H78l-.25.1-.58,0-.24.06-.54.53-.09.12,0,.05.25,0,.25.16.12.16.06.19,0,.32,0,.06-.64.4-.2.19-.11.06-.05-.08.05-.59,0-.11-.12,0-.16.15-.41.63-.37.28-2.39.39-.37.13-.14.35-.17.31-.2.22-.21.13V301l.23-.91v-.19l-.19-.16h-.1l-.15,0-.26.15-.15,0-.16-.06-.33.13-.82.46-.48.05-.15.1-.27.3-.16.09-.19,0-.22-.16-.22,0-.21.21-.18.06-.39-.29-.22.08-.32.26-.31.15-.29,0-.73-.06-.27-.14,0-.11.11-.4.19-.27.14-.11.17-.08.2,0,.36.19v-.11l-.11-.15-.3-.29-.32-.19-.22,0-.32.08-.23.13-.16.18-.29.63-.12.16-1.11.95-.41.27-.32-.11-.21.14-.29.23-.24.08-.18-.06-.13-.09-.07-.12,0-.09.16-.05v-.24l-.13-.44-.11-.25-.3-.11-.09.16-.13.91-.07.2-.26.2-.57.14-.15-.06-.31-.68-.39-.22-.08.17v.4l-.2.31-.4.24-.28.08-.16-.05,0-.22.26-.4.14-.36v-.3l.07-.22.12-.14.68-.27h.26l.09.14.16.05.21,0,.15-.1.11-.2.31-.2.52-.2.66-.47.79-.72.84-.59.92-.44.94-.29,1.81-.28.11.07-.21.18.07.17L67,298l.63,0,.27-.09,0,.15-.13.16-.4.09,0,.15.36.83.14.15.14,0,.08-.07.07-.52.2-.06.38.07.22.12.07.18.18.18.28.17.2,0,.11-.15-.08-.23-.49-.57-.11-.22,0-.26.16-.3.29-.43.44-.57.36-.38.63-.38.41-.16,1.06-.56,1.87-.39.53-.41.69-.43.27-.08,0,.21,0,.21.35.21.23.1h.13l.07-.2,0-.38.07-.35.09-.32.11-.24.35-.41.49-.44.64-.5.38-.21.33-.08.36-.2.63-.53.18-.07.39-.05.12.08,0,.18.07.11.35.17.28-.09,0-.08-.19-.09-.11-.12,0-.4-.19-.28V290l.12-.39.41-.9.23-1,.29-.51.41-.12.85,0-.43-.35-.18,0-.28-.18v-.63l.09-.44.31-.46.93-.71,1-.43-.1-.07-.07-.2.62-1.12.57-1-.67.81-.72.59-1.86.46-1.29.43-.59.05-.32-.25-.15-.71-.11-.26-.11-.47.21-.52.24-.35h.37l.37.27.34.09-.37-.47-.58-.46-.31,0-.35.48-.38.3-.23-.18-.13-.19v.47l-.35.64-.18.45,0,1.29-.16.49-.58.11-.34-.5-.54-1.76-.21-.52-.53-.89-.25.05-.37.3-.31,0-.62-.71-.25-.49-.21-.57-.57.15-.52.22-.63.39-.35-.08-1,.21-.1,0-.19.21-.16.07-.22.43-1.35,0-1.2-.52.5-.14.54-.07.55-.37,0-.68,0-.34.11-.41.6-.46-.47-.12-.36.13-.18-.51.08-.88.46-.43L70,276l.27-.5.12-.46,0-.84L70,272.4v-1.32l-.38-.8.69-1,.71-.87.71-.29,0-.08-.33-.08h-.22l-.28.27-.26.19-.95,1.09-.57.5-.31.11.36.35,0,.21,0,.47-.25.52-.19.28-.5-.16-.57.32-1.2.2-1.51-.13-.7-.22-.58-.77.1-.32.11-.27L63,269.38l-.31-1.13-.42-.14-.3-.36-.31-.53.13-.3.13-.21-.22-.24-.34-.08-.37-.23,1.4-.93.59-.73.32,0,.34.24.42.47.39.27.12.2.08.34-.31.44-.26.29.22,0,.7-.37.53-.35.18.1.1.12.1.54.14.56.74-.29.49-.49-.2-.33-.3-.25-.81-.44.26-.1.55.17.25-.1-.16-.28-.22-.28-.93.45-1.35-.42-.84-.65-1-.21-.13-.12-.12-.26.67-.33.45-.16.07-.15-.22-.08h-.44l-.12-.28.14-.38h-.07l-.23.17-.2-.17-.14-.24.16-.15.28-.2-.08-.07h-.2l-.27.29,0,.28-.11.39-.33,0-.24-.12-.07-.45.06-.89-.45-.38v-.47l.49-.45-.06-.32-.31-.2-.48.16-.1-.3.05-.28.11-.39h.12l.07.1.85,0,.1-.08-.52-.52-.08-.4.32-.11.47.13h.71l-.16-.45V257l.05-.34.27-.53L64,255.06l1.06-.85.31-.18.37,0,.28.19.27.33.09-.08-.09-.13v-.48l.51,0,.41-.42.06-.14-.35.12-.4.26,0-.37.14-.8.35-.71.2-.3.34-.25.76.08.11.1.07-.14-.3-.59.28-.32.21-.15,1,0,.45.23.5.51.22.52-.11.21-.12.11-.22.09-.09.09v.1l.33-.19.51-.19.2.19.12.3.2.06.71,0,.4-.13.56-.48.64-.24,1.06-1,.35-.43h.28l.22.1.06.45.21.18,1.37.24h.74l.57-.27.66-.54.4-.38.28-.55v-.79l0-.67.12-1.49L79.81,245l-.39-.4-.31,0,.36-.55.61.22.44,0,.4-.21.16-.19.27-.42.06-.49,0-.28-.16-.34-.16-.49-.15-.19-.17,0-1,.65-.48-.1-.31-.25-.42.41-1,.2-.56.31-1.12.83-.34.42-.27-.05,0-1-.68-1.12-.35.22.08.32.15.25.31.18-.21.23-.21.32-.26-.43-.48-.65-.56-.42-1.65-.43-1.23.19-.06-.13-.1-.08-.21.07-.14.18-.15.09-.23,0-.43-.2-.76-.56-1.8-1-.42-.44-.22-.79.14-.44.25-.13.19-.65-.32-.28-.47-1.16-.15-.48.07,0,.11.15.23.16.66.07.41-.53.52,0,.4.22-.05-.2-.07-.16-1-.65-.18.05-1.82-1.18L63.39,232l-.07-.22v-.45l.35-.33.27-.12-.06.23,0,.22,1.06-.21.67-.51.92.17.26-.12.38-.27.58-.48.65-.14.47-.17.54,0,.33.41.12.08.74.28.28,0,.14-.06.12-.13-.59-.73.16-.26.16-.18,1-.33h.73l.35.11,1.25-.47.63-.06,1.1.15.88.21.16.34-.45-.19h-.22l.12.13.11.25-.12.24-.49.68-.15.61-.24.14-.26.23.66,1.12,1.39.44.8,0,.38.38.34.16,1,.12.71.38h.33l1-1.13.32-.14.24.3.35.28.27-.07.12.39.08-.72-.07-.3-1-.77-.82.05-.17-.34.21-.52L81,229.15l-.26-.36-.39-.11-.09-.52v-.64l.4-.15.33,0,.23.26.12.87.27.19-.28.76.19.81.68.89.74-.08.48.13.25.21.56.77.34.16,1.19,0,.16-.59v-.45l-.2-.33-.77-.13-.48-.59H84l-1.09.45-.4-.38-.2-.43-.37-.49.12-.71.59-.7.38-.31-.18-.34-.6-.36L81,226.82l0-.28.08-.29-.6.45-.44-.24-.65-.11-1.24-.88-.32-.75-.07-.57,0-1.48-.22-1-2.35-3.88-1.22-1.17-.44-1-.37-.33-.38-.21-.45-.43.46-.22.28,0-.36.26.16.15.37-.1.24-.19.55-.92.71-1.44.12-.62,1.68.64,1.17.23.42,0,1.51.18.43-.06.84-.32,1.07-.7,1-1,.2-.3,0,.1.08,0,.2-.44L84,208.7l.62-.93,2.06-2,.91-.76.33-.37.31-.26.09.34,0,.11V205l-.15,0-.3.24-.36.13-.11.08.19,0,.61-.08.37-.19,1.66-.12,1-.61.08-.18,1.47-.73.16.08.16.17-.49.6.19.23-.4.76.45.12V206l.1-.31.1-.46.14-.45.14-.29.28.21.78-.18-.85-.23-.34-.86-.28-.07,1.2-.86,1-.46.19.05.06.15,0,.2-.22.09-.23.19,0,.22.12.06.45-.07.24-.17.88.21.29-.1.09-.13,1.15.21.24-.06.83-.44.8-.57.38-.33.72-.88.57-.56.85-.5.16.11-.26.08-.22.24.16.41,1.4,1,.38.11.07.48-.21.41-.48.4-.9.34.21.23.08.47.23.09.42-.09.35-.21.79-.76.28-.45.17-.1.5.21.26.31.26.5-.2.4-.18.22.38.41.48.15.42.35.75-.44.53,0,.48.1.68-.2,1,.57.29-.06.41.13.42.31.13.29-.57.49-.17.56.14.27.3.09v.34l.18.11,1,.11-.1.15-.07.19-.37.38,1.71.48.26-.2.38-.05.8-.23.27.18.3.37.3.11.3,0,.74-.4.79.07.31.2.35,0,1,.65.37.11.44.76.26,0,.33-.27.25,0,.23.32.4.13.15.47.2.19,1.54.48.79-.09,1.13.13.54.26.57,0,.89.85.5.16.08.19,1.42.28.52-.38.88-.06.8-.3.44,0,.52.11.19,0,.15-.14,1.24.65.68.71.29.51,1.46.76.42.42.29.44.17,0,.13-.12.52,0ZM69.77,229.33h-.12l0-.1.39-.17.65-.16,0,.07-.38.16ZM49.65,241v.17l.3.08.38.22.4.31.47.11.73-.26h.38l.36.05.33.25.27.37.08.2,0,.29,0,.34,0,.26.58.51.39.26,0,.19,0,.24.31.28.39.08.19.12.63.23.72.5-.34.56-.34.18-.7-.33L54.5,246l-.41.21-.39.3-.17.38-.21.12-.17,0,0-.26.06-.7-.06-.22-.08-.16-.29-.33-.31-.25-.2-.09-.07-.28,0-.36-.09-.22-.19-.33-.22-.3-.76-.73-.27-.16-.32-.06-.39.06-.41.16-.39.09-.35-.07-.27-.24-.19-.38-.08-.25,0-.35.13-.33.16-.3.44-.7.34-.05Zm65.92,33.94h-.41l-.17-.1,0-.09.11-.32v-.14l.21,0,.21.17.06.17Zm-77-15.83.49.64.42.12.21.46,0,.32-.42-.38L38.6,260,38,258.8l-.27-.32.26-.42.45-.09,0,.68Zm63.71,17.27h-.15l.24-.29.23-.6.18.12,0,.12-.4.58Zm13.9,1.06v.17l-.12.15.07.31-.22.49-.09.32-.11.2-.1.07-.08-.06V279l.07-.17-.21,0,0-.45.13-.13.06-.19,0-.12.19-.56.06,0v.13l0,0,.08,0,.13-.25,0,0Zm4,.35.06.18h.61l.17,0,.06.09-.09.12-.25.14-.71.22-.59.32-.08,0-.07-.41-.09-.17,0-.22V278l.11-.15.22-.21.16-.07Zm4,1-.12.15-.27-.07-.14-.11.52-.38.08.09ZM58.35,266.42l.19.39.14.07.5.05.15.12.13.18,0,.23-.08.36-.18.29-.11.45-.07.19.17.33,0,.37-.07.38-.59-.05-.55-.14-.55.1-.15.15v.3l-.15,0-.1-.1-.16-.32-.21-.2-.82-.45L55,268.07l-.42-.3-.31-.69-.22-.82.32,0,.3,0,1.24.51.31-.44.2-.08h.45l.46-.15.17,0,.14.16.4-.05.2,0Zm57.22,15.05-.36.06-.07-.2.23-.45.17-.25.12-.06.46-.49.48-.35.47-.53.49-.77.1-.3h.2l.3.23.18.3-.11.21-1.17,1.06-.1.14-.13.38-.1.13-.15.05-.12.16-.08.27-.15.14H116l-.14.06-.09.14Zm-.77-1.7-.18.18-.62-.18.17-.37.5-.2.49.43Zm11,2.45-.16,0,.26-.4.34-.45.3-.28.39-.1-.05.21-.52.37Zm-54.12-.15-.26.05-.24-.11-.05-.66.16,0,.41-.33.78-.16h.18ZM99.08,288l-.1,0-.21-.23-.13-.23.13-.14.51-.26.23,0,.08.07,0,.1,0,.15-.12.17Zm.11.82.11.07.18-.36h.09l.35.37.24,0,.1.41.14.05.13,0,.07,0-.08.41-.35.37-.15.09-.17-.14-.06,0-.1-.2-.06-.25h0l-.26.24V290l.06.21,0,.12-.25,0-.23-.07-.31.14,0-.12V290l-.09,0-.19.36-.18.22-.3.16-.07.09-.2,0-.31.08-.18-.05-1-.57-.22-.19,1-.82.52-.29.26.06.25.15H98l.07-.42-.2-.35,0-.13.58-.13.2.06.21.14.19.21Zm59.09,4.1.86.1.62-.07.62.92.4.74.23.52.15.51.19.49v.07l-.35-.32-.28-.66-.14-.26-.12-.11-.14-.25L160,294l0-.18-.12-.16-.13-.07-.14,0-.05.07.05.45.14.49.68,1.06.44.59.1.2.09.56-.17.27.25.51v.1l0,.1-.58.26-.5,1-.57.59-.27.11-.14-.09-.13-.21-.09-.29,0-.36.13-.23.24-1.2v-.39l-.39-.53-.24-.43-.15-.61-.28-1.63-.12-.52-.15-.43-.18-.34-.15-.38-.1-.41,0-.17.3.21.38.59Zm1.21-.49,0,.16H159l-.47-.21-.24-.29,0-.14.42-.15.42.27Zm-4.75.12.51.6v.14l-.08.43-.25.13.08.16.2.12.13-.11.48-.61.15-.14h.1l.62.15.56.26.16.22.11.39-.1.86-.44.17h-.21l-.23-.12-.35.31.31.22h.91l.3.47.1.37-.16.69-.53-.17-.48-.37-1-.52-.23,0-.14.11,0,.34,0,.73-.24.39-.75-.14-.32-.54-.3-.88-1-1-.28-.2-.39-.62.14-.5,0-.29.19-.08.28-.22.14-.49.27.38.35.36v-.35l.16-.28h.33l.16-.07.21-.27.31-.15ZM97.09,292l0,.35.15,0,.56-.28.29-.06.35,0,.25.21,0,.13,0,.14-.26.27,0,.19.19.4.56.27,0,.12,0,.13-.49.53-.17.12-.11,0-.71-.22L97,294l-.26-.08-.11.05-.22.15.13.07.58.14.17.29.06.21,0,.22-.13.07-.27,0-.3,0-.41.19-.25.24-.77,0-.63.28-.23.14-.11.21-.24.12-.51.08.27.19,0,.13,0,.16-.06.14-.49.57-.82.41-.18-.06-.07-.08-.05-.11v-.1l1.12-.89,0-.06-.25-.07-.36-.36-.32.14-.06,0,.12-.23.23-.26v-.09l-.09-.09-.23-.08-.37-.08-.28,0-.2.12,0,.06.38.05.09.1.08.16,0,.18v.19l-.12.25-.23.29-.26-.1-.41-.81-.06-1.09-.32-.88v-.2l.21-.47.59-.62.53-.11.4-.24.35,0,.21,0,.27.18.07.29-.09.11,0,.07.18.2.12.6.18.55.14.23.2.16-.17-.42-.06-.5.08-1,0-.26.14,0,.36.1v-.15l-.33-.38-.2-.3,0-.23,0-.18.25-.23.14-.06h.12l.24.1.1.1.21.65.12.22.12,0,.13-.08.14-.19.13-.11.11,0,.34.15.12,0,.08-.14,0-.27.1-.08,0-.2-.14-.32.23-.06.69.34.27.29ZM96,291.62l-.11.16-.08-.06-.16-.23-.33-.35-.14-.24v-.09l.15-.07.41.31.15.25Zm61.58,6.48.32.68.24.52.22.63.38,1.32.17.49.06.28.07.71,0,.16-.09.15v.21l.12.54,0,.83-.05.48-.1.07-.24-.14-.21-.25-.16-.25-.39-.82-.12-.39,0-.28,0-.2.11-.13.19-.35,0-.06-.15.09-.31.06-.28-.26-.22-.13,0-.49-.06-.13-.42.17-.16-.13-.05-.18V301l.07-.24.37-.62,0-.11-.2,0-.26-.19-.14-.67-.29-.37-.16,0-.32,1.1-.17.25-.52.17.1-.3,0-.28-.22-.81v-.31l.11-.24.36-.11.19-.14.14-.24,0-.22.25-.59.13-.11h.35l.76.61.22.08ZM39.33,281.61l-.43.16-.27-.21v-.24l0-.09,1,.08Zm56.73,14.65-.46.14-.08,0-.33.36-.23.14-.22-.36.15-.48.29-.3,1.16.29.08.11v.08l-.1,0ZM163.14,300l.24.19.11-.22h.23l.44.15.28.26.16.3,0,.19,0,.43.07.43v.23l0,.19-.09.16-.11,0-.36-.37-.43-.68-.31-.19v.07l.09.2.26.36.06.23.19.26.08.21.07.28v.24l0,.21-.07.14-.11.06-.59,0-.34.16-.41-.05-.11-.12-.08-.2-.06-.49-.15-.71v-.55l-.3-.48-.24-.29-.34-.24-.23-.26.05-.21.32-.18H162Zm-2.08,1.13.25.42.32,0,.21.31.16.48-.08.33-.15-.07-.15.19-.06.61.08.61v.6l-.15.63,0,.41-.07.13-.08,0-.11-.1-.15-.08-.18.36-.23,0-.24-.78.1-1.32.38-.29-.25-.35-.51-.39,0-.23-.4-.65,0-.16,0-.57.31-.51.44-.12.33.2.19.17Zm4.41,1.73,0,.09-.44,0-.16-.06-.08-.27,0-.24.09-.2.09-.38.06-.62.69.64.22.29.14.37-.22.16-.27.09Zm-126-17.52.39.27h.27l.19.13v.16l-.48.17-.14-.07-.31-.52Zm51.88,14.07H91.2l-.23-.21L91,299l.4-.17.35.09V299l0,.14,0,.08-.13.07Zm-1.71.22-.25.1-.07-.06v-.12l.09-.18.13-.18.43-.3.4-.18.18,0,0,.17-.28.28Zm78.21,5.66v1l-.15-.05h-.13l-.26.17-.28,0-.14-.11-.06-.13,0-.31-.17-.16-.53,0-.21-.06-.13-.31,0-.43.07-.16.26-.13.17-.53.11-.08.35-1.06.23.06.43.59.55.86Zm-2.39-.69-.18,0-.21-.08-.53-.47,0-.15.06-.17.27-.33.11-.08.68,0,.22.07.06.14v.15l-.06.15V304l0,.16-.07.17Zm-2.77-.39.67.09.61,0,.22.25.16.26.09.25,0,.23v.17l-.07.19,0,.06,1.23.51.6.58.25.31.15.27.29.67.56.77.27.22.17.23h-.09l-.36-.14-.8-.48-.06,0,0,.3-.1.26-.16.19.14,0,.61-.16.55.49.21.08.22.36,0,.14-.09.29-.08.12,0,.07.15,0,.56-.12.12.13v1.09l.11.39v.18l0,.25v.2l.07.2,0,.19-.11.49-.15.1-.24,0-.21-.13-.31-.39-.32-.63-.11-.09-.36-.07-.06-.07h-.23l-.17-.25V312l-.16-.35v-.16l-.16-.05-.12.11.1.34-.06.28L166,312l-.52-.84-.57-.66-.22-.15.05-.21.25-.12h.21l0-.12-.48-.65v-.19l.13-.35-.2-.13-.54.14-.19-.06-.18-.26-.1-.23-.48,0-.17.05-.33-.34-.15-.22,0-.12.27-.22.17,0,.33.2.12,0,.29-.31,0-.26.22-.23-.05-.22-.15-.38-.29-.09-.58.27-.48.38-.21-.12-.06-.22.51-.62.22-.34-.06-.19-.19-.23-.05-.63Zm9.45,4.6-.06.69-.18.72-.34.41-.27-.06-.22-.28-.18,0-.19-.05-.13-.24.07-.33-.11-.25-.07.23-.15.22-.41.29-.24.53-.11.34-.2-.35-.18-.83,0-.35.26-.57.35-.54,0-1.54,1.18-.87.12,0,.46.53.5.77.14.35.06.63ZM86,302.85l-.16.17-.26-.06-.14-.09v-.18l.49-.44.11-.05.07,0v.21Zm78,6.24.09.17v.11l-.49.44v.08l-.11.27-.1.1-.17.29-.35.32V310l-.39-.5.35-.29.24.06h.4l.37-.26ZM67.63,302.2l.05,0,.12,0,.3-.28h.08l0,.1-.19.32.08.49.11.26,0,.07-.46.05-.3-.19h-.17l-.19.12-.07-.2.13-.85.06-.14.25-.24.26-.08.09.07,0,.13V302Zm1.26.15-.17.47-.4-.42-.09-.18.11-.1.46.08ZM165.78,313l.09.08L166,313l.13-.23.26,0,.19.06.12.08,0,.33v.52l-.09.19-.09.27-.37-.13-.32-.31-.47-.54-.26-.4,0-.17-.16-.12-.34-.69-.2-.55-.27-.05-.34-.13-.15-.3.07-.28.46-.16.75.65.13.29.28.33.08.47.14.19Zm-95.61-9-.24.08-.11.15-.17,0-.17.1-.61.52-.23.06.35-.47.08-.16,0-.11,0-.42.13.05.13-.06.3-.3h.21l.31-.37h.12l0,.07-.15.23.15.29-.11.21Zm100.94,7.45.44.77,0,.29-.34.13-.27,0-.15-.08-.05-.13.06-.41-.21-.23-.22-.06-.17.15,0-.4.11-.3-.11-.39,0-.29,0-.1h.18l.41.28Zm-99.67-7.31-.13.48-.06.06-.07-.15-.22.1-.09-.13.09-.16v-.13l.15,0,.09-.23v-.11l.12-.2.12,0Zm.29,1.21h-.12l-.08-.09,0-.38,0-.14.22.16,0,.27Zm-14.24-3.61.06,1.08.1.23.18.17.28.19.14.19.09.27v.1l-.84-.65-.76.42-.2,0-1.71-.44h-.36l-.28.13-.53.42-.26.14-.24.07h-.48l-.53-.18-.26-.14-.07-.3v-.53l0-.14.12-.22.57-.19.21-.13.93-.95.22-.1h.2l.49.23.54-.21,1.09-.23h.22l.69.17.17.14.1.18Zm3.85,1.89h-.09l-.19-.25-.05-.16V303l.57-.18.1,0,0,.2,0,.14-.24.35Zm-1.59,2.43-.33.06-.29-.22-.2-.33,0-.31.55.36.11.12Zm-10.92-1.36h-.16l0-.07.06-.27v-.45l.27-.08h.14l0,.08.07.36.13.13.1.1-.23,0Zm-1.09.1-.16.06h-.11l-.07-.08-.38,0-.06-.06-.05-.4,0-.19.11-.12.2-.08.3,0,.25.1.34.46.16.25v.13l-.19.07Zm-3,.18.07.32.32-.1.26-.18.25-.27.13-.09.08.21.29.33-.41.26-.75.33-.31.29-.06.15.61.06.15.07.07.15-.2.1-.35,0-.35.16-.77.23-.35.29-.32,0-.4-.09-.74,0-.48.09-.14.08-.15,0-.15-.06-.2,0-.24.14-.18,0-.25-.05-.15,0-.15-.05-.31-.36-.05-.17.43-.16.28,0,.39.08.46-.13.87-.09.3-.11.36-.6.21-.06.17-.22.43.14.1.35.06.06,0,0,.09-.22.27-.1-.09-.15-.34-.28-.27-.16-.19,0-.13-.13-.06-.22v-.19l.06-.17.16-.16.25-.16.24-.05.48.05h.45l.21,0,.14.11Zm1.09,1.48h0l-.05-.18,0-.13.09-.08.23-.18.14,0h.16l0,.07-.21.23-.21.13Zm-6.83.27-1.28.27-.5.34-.42.36-.29.16h-.16l-.21.06-.46.18h-.16l-1.39.32h-.08l.12-.17.44-.15.31-.16.39-.31.19-.1.11-.19.16-.39.11-.13.35-.23.23-.1.26,0,.45.21.25-.09.1-.1-.08-.15,0-.19.14-.31.23-.24.33-.17.39-.09H39l.3.1.46.47,0,.16-.23.25-.17.25Zm-7,.85-.14.22-.08.06-.5-.31-.37-.08v-.15l.07-.11h.64l.23.08.12.15Zm-4.2.24-.29.1,0-.09,0-.24.19-.14.52-.24.23.16.05.14-.06.14-.16.16-.16.05-.15-.06Zm-15-2.22-2-.54-.21-.28.32,0,.35.08.81,0,1,.13h.79l.66,0,.28-.23-.45-.36-.05-.16.3,0,.29-.12.57-.05.31.48v.24l-.13.22-.19.22-.43,0-.11.11.06.45H14ZM21,307.32l-.29,0-.25-.19.25-.25.19-.11.33-.1.27.2.15.35Zm-4.12-.72.6.51.86.31.3.17,0,.07-.58-.12-.17-.1-.53-.06-.33-.11-.7-.41-.6-.15-.14-.09-.14-.18-.13-.26,0-.12.21,0,.44.35.08-.06.49,0ZM8,303.81l-.15.13-.27-.32,0-.2,0-.15.21-.2.27.11.11.17.08.25v.14Zm-2.31-.1-.07.19.41.15.09.15-.16.37-.1.08H5.8l-.11-.14-.25.12-.94.13-.12-.36-.61.21.77-.9H5l.19-.06.1-.32.39-.44.34.18.07.28-.07.13Zm-2.3,0-.13,0-.2,0-.5-.3-.33-.13-.38-.12-.31,0V303l.06-.11,1.29.22.33,0,.26-.13.32-.31.17-.06.07,0,.1.22L4,303l-.22.1-.12.14Zm-2.69-.76-.17.15-.08,0-.32-.51,0-.14.34,0,.13-.08,0-.16-.1-.29-.26-.43-.05-.26.14-.07H.56l.57.24.15.46.18.21.5.32H1.63l-.22.07-.43.42Zm6.88,1.95H7.25L7,304.48l.16-.28.32.42Zm-1-.3-.36.24-.1-.22.14-.48.17-.06.2.47Z"/><path id="US-AL" class="cls-1" d="M349.51,152.69l.34,1.17.34,1.17.35,1.17.34,1.17.34,1.17.34,1.17.35,1.17.35,1.17.34,1.17.35,1.17.34,1.17.35,1.17.36,1.17.35,1.17.35,1.17.35,1.17.26.52.26.86,1.44,2.48.46,1,0,.47.18.36.42.27,0,.38-.45.48-.27.56-.13.93h0l-.29,1.65.11,1,.62,1.27h0l.17.58v2.63l.41,1.65.61,1-2.61.32-2.62.3-2.61.3-2.63.28-2.62.28-2.62.27-2.63.26-2.62.25-.05.68.11.64.35.59,1.28,1.06.14.27-.12.92.09.64-.09.35-.26.32,0,.33-.18.11-.81,1.06-3.11.6.15-.24.66-.1.9-.4-.23-.5-.41-.54-.34,0-.25-.32-.09-1.06-.26-.6-.57-.59-.16.14-.28,1.12-.18,1.46-.12.47-.93.11-.83,0-.4.06-.27-1.93-.24-1.77-.23-1.76-.23-1.77-.23-1.76-.24-1.76-.23-1.76-.23-1.76.05-1.76.05-1.75.05-1.75,0-1.76.05-1.75,0-1.75.05-1.76,0-1.75,0-1.75.05-1.75,0-1.75,0-1.74,0-1.75,0-1.75,0-1.75,0-1.75v-.82l-.74-.56-.14-.11-.1-.11h.09l1.24-.1,1.24-.09,1.24-.1,1.23-.1,1.24-.1,1.24-.11,1.24-.1,1.23-.11,1.24-.11,1.24-.12,1.24-.11,1.23-.12,1.24-.12,1.23-.12,1.23-.12Zm-14.94,46.55-.71.26-1.07.08-.22-.06.42-.17,1.25-.29Z"/><path id="US-AR" class="cls-1" d="M317.41,146.2l0,.17.18.37,0,.21-.11.14-.25.09-.19.11,0,.16v.07l0,.18.05.16-.11.22-.84.57-.33.7.18.81-.25.85-.71.88-.26,1,.18,1-.32.87-.84.69-.27.41v0l0,.29.1.23-.27.45-.71.49-.37.46,0,.43-.17.22-.31.11-.16.64-.07,1.49-.35.86-.63.25-.32.35,0,.46-.35.55-.69.63-.21.59.27.52,0,.22-.21.19-.77.29-.13.14-.07.14.18.27.11.4-.08.7-.17.3-.17.29-.63.52-.16.39.3.25v.29l-.32.33.12.34.09.22.31.19.14.58-.18.76.07.6.4.49.09.21-.28,1.69,0,.23-1.56.09-1.42.07-1.43.07-1.42.07-1.43.07-1.43.06-1.42.06-1.43.06-1.43.05-1.42.05-1.43,0-1.42.05-1.43,0-1.43,0-1.42,0-1.43,0,0-1.28,0-1.28,0-1.27,0-1.28-.41-.21-.73-.09-.37.08-.45-.05-.29.21-.2,0-.16,0-.1-.18-.33-.13-.42-.45V153.53l-.2-1.3-.19-1.31-.2-1.3-.19-1.31-.19-1.3-.19-1.31-.19-1.3-.19-1.31,2.11,0,2.11,0,2.11-.05,2.11-.06,2.11-.06,2.12-.07,2.1-.07,2.12-.08,2.1-.09,2.12-.09,2.1-.1,2.12-.11,2.1-.11,2.11-.12,2.11-.13,2.11-.13.38.71.36.46.08.34,0,.36-.51.8-.49.38-.25.4-.36.38-.53,1,1.25-.1,1.25-.1,1.25-.11Z"/><path id="US-AZ" class="cls-1" d="M171.47,131.44l-.48,3.29-.47,3.3-.48,3.29-.48,3.3-.48,3.3-.47,3.3-.48,3.3-.48,3.3-.48,3.3-.48,3.31-.47,3.3-.48,3.32-.48,3.3-.48,3.32L164.3,181l-.48,3.33L162,184l-2.84-.41-2.84-.43-2.83-.44-2.83-.45-2.84-.46-3.56-2-3.53-2-3.53-2.05-3.5-2.08-3.49-2.09-3.47-2.11-3.45-2.12-3.44-2.14.49-.44.79-1.29,0-.08h0l1.1.13.59-.24.44-.57.2-.64,0-.7-.36-.58-.69-.48-.25-1,.19-1.51.31-.77.41,0,.45-.28.49-.54.4-.6.32-.69L125,154l.12-1.12,1-1.21.85-.7,1.49-.77.35-.25.05-.25v0l-.19-.4-1-.95-.38-.61,0-.48h0l0-.49-.83-2.13-.19-1.13.17-.77v0l.82-3.24-.2-1.23,0-.66.29-.75.06-.5-.11-.47.11-.78.17-1-.21-.68v-.29l.33-.62.42-.26.62-.12.67,0,.72.23.5.41.27.59.31.34.36.09.57-.33.61-.82.16,0,.81-4,.73-3.61,2.3.47,2.31.45,2.31.44,2.31.44,2.31.43,2.31.43,2.31.41,2.32.41,2.32.39,2.32.39,2.31.39,2.32.37,2.33.37,2.32.35,2.32.36Z"/><path id="US-CA" class="cls-1" d="M103,69.42l-.46,1.7-.46,1.7-.46,1.71-.46,1.7-.46,1.7-.46,1.7-.46,1.71L99.3,83l-.46,1.71-.46,1.69-.46,1.7-.46,1.7L97,91.53l-.46,1.7-.46,1.69-.46,1.7,1.25,1.93,1.27,1.93,1.28,1.92,1.29,1.92,1.29,1.92,1.31,1.92,1.31,1.91,1.32,1.92,1,1.58,1,1.58,1,1.59,1,1.58,1,1.58,1,1.58,1,1.57,1,1.58,1.46,2.25,1.47,2.24,1.49,2.24,1.49,2.24,1.5,2.23,1.52,2.23,1.53,2.23,1.65,2.38-.17.77.19,1.12.82,2.14.06.48h0l-.05.48.38.62,1,1,.19.4v0l-.06.25-.35.25-1.48.77-.85.7-1,1.21-.12,1.12-.22.91-.32.68-.4.61-.48.53-.46.28-.41,0-.3.78-.2,1.51.25,1,.69.49.37.58,0,.7-.2.63-.43.58-.59.24-1.1-.13h0l0,.08-.91-.09-2.27-.27-2.28-.28-2.27-.3-2.28-.29-2.27-.31-2.27-.31-2.27-.32L102,161v-.07l.19-1-.28-.43-.51.11.1-1.36.26-.59.09-.61-.08-1.58-.72-2.07-1.92-2.82-1.07-1-.75-1.18-.56-.42-.76-.26-.34.37-.81-.52.39-1-.49-1.66-.66-.34-1.8-.36-2.16-1.41-.57-.65,0-.91-.91-1L87.37,139l-.85,0-1-.4-1.36-.92-.85-.31L81.53,137l-.61-.28-.41-.82-.54-.5.35-.77.13-.75.25-.54.06-1.33.54-1.09-.07-.47-.27-.41-1-.79,0-.65.41-.76-.14-.63-.76-.76-.53-1.38-.9-.93L77.87,123l-.47-.84-.07-.63L76.46,119,75.37,117l0-1,.31-1.27.83-.59.53-.58.15-.63,0-.48-.3-1L75,110.43,73.94,108l.35-1.52-.2-1.72.29-1,.22-1.1.57-.09.41.21-.17.42-.08.81.34.73.42.4.28.69.29.27.34.14-.08-.41-.14-.29,0-.81-.17-1.09-.38-.68,0-1-.16-.3,0-.39.64-.27.78-.1,1,.2,2.59.91.64-.08.43.22.35.06-.64-.46-.42,0-.46-.19-1-.22-.36-.22-.32-.43-.27-.11-1,.27-.37-.18-.75-.84-.37-.2-.74.13-.5,1.38-.12,1.1h-.41l-.32-.57-.62-.46-.45-.56-.57-1-.34-.4-.66.46.07-.28.44-.63.3-1.19L73,98.7,73,98l-.34-.89-.34-.38-.14-1.46-.94-1.14-.56-1.55-1.29-2.69L69.8,88l0-2.52.71-1.22.25-.94.1-1.52-.11-.87-.88-2.58-1-1.88L69,75.33l.24-1.11.63-.85.6-.92.29-.2,0,.14-.13.19.19.13.22-.41.2-.19-.21-.1.06-.14.22-.24.88-1.17.49-1.68,1.13-1.89.2-.68.15-1.55,0-1-.35-.79.53-.83.26-.86L74.55,61l1.82.58,1.77.56,1.76.55,1.77.55,1.77.54,1.77.54,1.77.53,1.77.53,1.78.52,1.77.51,1.78.51,1.78.51,1.77.5,1.79.5,1.78.49ZM84.45,141.49l1.42.88h.89l.09.27-.16.17-2-.15-.52-.4,0-.35-.1-.38Zm-3.34-.37L80.7,141l-.59-.27.27-.15.39-.06.07.14Zm1.73,1.51-.57,0-.37-.23-.41-1,1.4.26.48.54,0,.13Zm11.66,8.23.22.77-.54-.23-.59-.11-.09-.41,0-.55-.09-.16L93,150v-.31l.15-.09,1.1.88Zm-8.76-.61-.34-.07L85,150l-.11-.56.39.07.34.16.18.46ZM93.19,156l-.46,0-.46-.31-.2-1-.3-.81.31-.13.21.76.71,1.25Z"/><path id="US-CO" class="cls-1" d="M225.92,108.87l-.12,1.76-.11,1.75-.11,1.76-.11,1.76-.11,1.75-.11,1.76-.11,1.76-.11,1.76-.11,1.75-.12,1.76-.11,1.75-.11,1.76-.11,1.76-.11,1.75-.11,1.76-.11,1.76-1.86-.13-1.85-.12-1.86-.14-1.86-.14-2.83-.23-2.83-.23-2.84-.25-2.83-.26-2.84-.27-2.83-.29-2.83-.29-2.83-.31-2.83-.32-2.82-.33-2.83-.34-2.82-.36-2.82-.36-2.82-.38-2.82-.39-2.82-.4.33-2.33.34-2.32.34-2.32.33-2.33.34-2.32.34-2.32.33-2.33.34-2.31.33-2.33.34-2.32.33-2.32.34-2.33.33-2.32.34-2.32.34-2.33.33-2.32,2.22.31,2.21.31,2.21.3,2.22.3,2.22.28,2.22.28,2.21.27,2.23.26,2.22.25,2.22.25,2.22.24,2.22.23,2.23.23,2.23.22,2.22.2,2.22.21,1.77.15,1.78.15,1.77.14,1.77.14,1.77.14,1.77.13,1.77.12,1.77.12-.07,1.17-.08,1.17L226.3,103l-.07,1.17-.08,1.17-.08,1.17L226,107.7Z"/><path id="US-CT" class="cls-1" d="M437.11,69l.14.48.19.68.14.5.19.68.22.77.2.71.17.63.08.37.12.58-.11.26.05.54-.61.12-.95.4-1.23.66h-.77l-.65.53-2.5.75-.58,0-.52.81-1,.65-2.4,2.1-.27.35-.5-.48-.39-.38.47-.5.36-.38.33-.35.22-.23-.3-.3-.29-.29-.17-.88-.16-.89-.16-.87-.17-.88-.16-.88-.16-.88-.17-.88-.16-.88.57-.12.58-.12.58-.12.58-.12.57-.13.58-.12.58-.12.58-.13.07.24.28-.11v-.22l.81-.19.81-.21.82-.2.81-.2.81-.21.82-.2.81-.2.81-.21Z"/><path id="US-DC" class="cls-1" d="M407.55,106.28l-.22-.21-.39-.11-.16,0,.45-.75.5.46.53.51-.48.88Z"/><path id="US-DE" class="cls-1" d="M417.12,95.25l-.23.39-.13.64-.45.85.15.46.18.3.11.71.54.59,1,.94.54,1.69.85,1,1.21,1.14.78.22.15.49-.12.9-.34.48.53-.21.32.13.43.63.09.44-.77.18-1.6.37-1.59.37-.72.16h-.14l-.4-1.43-.39-1.44-.4-1.43-.4-1.43-.4-1.44-.4-1.44-.39-1.43-.4-1.44.37-.85.17-.28.28-.18.87-.24Z"/><path id="US-FL" class="cls-1" d="M387.48,188.11l.52.78,1.14,3.38.59,1.14,1.25,3.14,1.7,3L395,203l3.56,4.16.45.61-.27.62v.6l.12.88.25.83.51,1,.91,1.48-.41-.26-1.31-2.13-.34-1.32-.2-1.92-.2.08-.07.65,0,.74-.19.32-.5-1.06-.07-.5.24-.64-.14-.19-.59-.21-.2-.45v-.48l-.36-.19-.24,0,.36,1.12.37.66.61,1.63.69.94.45.8,5.14,8.55,1.05,1,.46.79.64,1.69.47,2.25.14,4.23.36,2.84-.1-.07-.11-.29h-.14l-.29,1.38-.5,1.29.09,1.85-.18,1-.85,1.13-.63.09-1.43,1h-1.12l-1.22.62-.86.1-.64-.78v-.39l.14-.42.31-.14,1.3.7.15-.41-.43-.39-.7-.14-.53-.2-1.32-1.89L396.42,235l-.32-.91-1.84-.29-1.4-.67-1.07-1.42-.9-2.66-.6-.22-.26-.18.38-1.1.43-.93-.42.28-.28.37-.3.82-.29.16-.3-.07-.55-1.39-.19-1.79.35-.73-.7.09-.68.36.2.58-.05.34h-.54l-.43-.15-.64-.53-.92-1.06-2-3-.37-.41-.57-.4.22-.19.41-.15.76-1.59.62-1,.16-.64-.08-.25-.4-.33-.39.4-.2-.07-.61-.69-.5-.14-.3.21.44.57.34.19,0,.92-.09.32-.25.3-.48-.07-.2.26-.31-.2-.33-.36-.39-.61.25-3.81.39-2.46-.31-2.68v-.41l-.17-.7-1.2-1.4-4.84-3.15-3.94-4L367.69,197l-2.12.65-.33.39-.11.46.2.48-.17.23-.59.05-.77.22-1.91,1.43-.73,0-.62.38-.47.29-1.28.28-1.06.39-.49-.08-.39-.65-.08-.71.31.52.43.37.16-.19,0-.38-.47-.69-1.34-.8-1.57-1.22h.43l.08-.31-.48-.34.13-.47.25-.5-.58.14-.5.39,0,.41-.06.33-.29,0-.58-.34L350,197l-2.34-.38,1.71-.47,1,.12-.16-.33-.25-.19-.78-.19-.94.21-.62-.07L347,196l-.64.47-.57.26-2.33.53-1.88.5.28-.36.3-.24,1.09-.44.11-.68-.33-.62-.28.18-.26.54-.42-.32-.42,0,0,.81-.49.59-.2.57-1.55.58-.22-.13.42-.55-.07-.29-.32.19.05-.33.26-.32.09-.34-.09-.64.12-.92-.14-.28-1.28-1.06-.35-.59-.11-.64.05-.68,2.62-.25,2.63-.26,2.62-.26,2.62-.28,2.63-.29,2.62-.3,2.61-.3,2.61-.32.43.7.83,1.46.07.36.77,0,1.3-.07,1.31-.08,1.3-.08,1.31-.08,1.3-.08,1.31-.09,1.3-.09,1.31-.09,1.3-.09,1.31-.09,1.3-.1,1.31-.1,1.3-.1,1.31-.11,1.3-.1,1.31-.11.05.3.29.46.14.54.14.25.28.13.42,0,.36-.38.15-.73-.05-.77-.29-.85-.09-.74.13-.47.23-.14.17-.27.16-.07.47,0,1.77.36Zm-26.31,14.15-.78.44-.93-.14.55-.11.41.05,1-.61.49-.43.6-.22Zm42.63,16.41.25.67L403,217.86l-1.4-2.36-.84-1.85.43.46.53,1Zm-14.93,9.51.07.55-.57-.86-.45-1,.46.27Zm.54.87-.27.3-.64-.09-.38-.28-.24-.61.63.59.22.12Zm16.25,10.1-1.41,2.08.12-.48.5-1.07.14-.49.4-.36.34-.59-.07-.6.53-.53.19-.1Zm-1.83,2.65-.22.09.28-.47.1,0ZM402.34,243l-.17,0,.06-.15.3-.33.13.08v.14Zm-1.73,1.14-.36.29-.44-.09.41-.3,1.31-.47-.46.39Zm-2.43,1.05-.23.23-.13,0-.05-.28-.47-.57v-.17l.95.48.05.16Zm-1.94.81-.55.18.4-.44.05-.6.34.4,0,.27Zm-1.81.82-.22.06,0-.14.36-.24.25,0,0,.2Z"/><path id="US-GA" class="cls-1" d="M390.55,175.16l-.27.86-.89.65-.3,0-.22.19.2.33.28.21,0,.24-.2.37-.5.17-.22.41.15.34.2.16,0,.34-.53.44-.08.35.31.05.2-.14.18,0-.26.61-.26.39-.2.66-.66.27.06.19.42.11.4.42-.47,1h-.39l-.27-.15,0,.7.12.35,0,.77-.1.93-.1.39.15.67.2.65-1.38.13-1.77-.35-.46-.06-.17.08-.17.26-.23.15-.13.46.09.74.29.85.05.78-.15.72-.36.38-.41,0-.29-.12-.14-.25-.14-.55-.28-.45-.06-.31-1.3.11-1.31.11-1.3.1-1.31.1-1.31.1-1.3.1-1.31.09-1.3.1-1.31.09-1.3.08-1.31.09-1.3.08-1.31.08-1.3.08-1.31.08-1.3.07-.77,0-.07-.35-.83-1.46-.42-.7-.62-1-.41-1.65v-2.64l-.17-.57h0l-.62-1.27-.11-1,.28-1.65h0l.13-.94.27-.55.46-.48,0-.38-.42-.27-.18-.37,0-.46-.46-1.06-1.44-2.47-.26-.86-.26-.52-.35-1.17-.35-1.17-.35-1.17-.35-1.17-.35-1.17-.35-1.17-.35-1.17-.34-1.17-.35-1.17-.35-1.17-.34-1.17-.34-1.17-.34-1.17-.34-1.17-.35-1.17-.34-1.17,2.5-.26,2.5-.27,2.5-.28,2.5-.29,2.31-.33,2.32-.34,2.31-.36,2.32-.35h0l-.28.69-1,1.34-.17.95,1.59.81h0l1,.69.64.24h.62l.42.22.32.62h0l2.25,3h0l2.1,1.4.86.71.5.74,1.78,1.06.65.62.11.53.25.35.39.17.41.43.43.68.74.54,1,.39.89,1.12.75,1.87.63,1.05.76.35,1.21,1.5.47.93.13.87.59.59Zm-2.74,10.59v2.34l-.29-.79-.14-.78.2-.5Z"/><path id="US-HI" class="cls-1" d="M195.37,246.16l-.61-.06-.13-.31-.4-.4v-.33l-.3-.56,0-.4.67-.23,1,.15,1,.86-.05.48-.17.25-.35.15-.36.31Zm-3.92-2.57-.26.13-.12-.16.11-.22.32-.17h.44l.56-.09.19.24-.31.12-.22.22-.43-.14Zm9.06,10.61.14.15.22.13-.24.44.06.4,0,.19-.36-.06-.53-.34-.14-.29,0-.43-.31-.14.11-.23v-.09l-.22-.09,0,.38-.46-.34-.11-.15.1-.38,0-.91.18-.2,0-.38.73.48.82-.07.29.17-.07,1.11-.17.19-.05.29Zm1.72,3.29.85.9.27.12.08.24.74.7.1.14-.35.13-.7-.18-.57-.78-1.17-1.05.2-.15.22,0,.21-.22Zm2.23,4,0,.18.59.26.39.22.34.79,0,.38.21.54v.28l-.27.12h-.7l-.65-.38-.46-.13-.43-.39-.09-.17.29-.47.22-.57-.33-.18-.21-.41,0-.66.15-.26.47-.22.37.21.08.4Zm-2.28-.53-.38-.08-.25-.3.2-.38.05-.65.57.31.18.34,0,.25v.37Zm-.85,13.25-.4.08-.24-.22-.56-1.24.1-.36,1.05-1.22.45-1.3.23-1.09.59-.18.61,0,.87-.28.25-1,.44-.39.26.08.54,1.3,1.34,2.36.08,1-.38.7.3.36-.16.57.24.77v.35l-.48.19-1.47-.06-1.43-.63-1.64-.06Z"/><path id="US-IA" class="cls-1" d="M306.61,85.61l.46.61.77.54.44.51.14.5.48.51.82.52.49.48.16.42,0,.68-.11.93L310,92l-.39.43-.26.59-.16.74-.59.71-1,.68-1.15.49-1.3.3-.74.57-.19.85.14.7.5.53.3.58.1.63-.27,1.06-.65,1.49-.75,1-.86.48-.37.65.14.83,0,.48-.36.18-.65-.47-.13-.34-.53-.33-.09-.21-.4-.19-.38-.66-1.81.09-1.8.1-1.8.08-1.81.08-1.8.08-1.8.07-1.81.07-1.8.06-1.81,0-1.8,0-1.81,0-1.8,0-1.81,0-1.81,0-1.8,0-1.79,0-.44-.7-.23-.65.15-.3,0-1-.09-1.79-.17-1-.26-.23,0-.32.2-.39-.06-.27-.32-.14-.09-.34.12-.55-.08-.33-.27-.12-.11-.19,0-.25-.15-.16L269,95.8l-.13-.61.07-1.16-.13-.82-.31-.48-.16-.45v-.43l-.33-.66-.66-.91-.42-1.2-.19-1.48-.46-.84-.21-.05-.17-.77-.19-.35,0-.27-.57-.67,0-.26.08-.32.37-.63.35-1,.08-.7.28-.52v-.29l0-.38-.15-.34-.44-.24-.06-.11,0-.38.19-.24,0-.28,0-.33L265.4,78l-.12-.59,1,0H273l2.23,0,2.23,0,2.23,0,2.23,0,2.23,0,2.23-.06,2.23-.06,2.23-.07,2.23-.09,2.23-.09,2.23-.09,2.22-.1,2.27-.13.08.59.15.41.3.33.43.24.1.49-.24.76-.05.92.15,1.08.27,1,.38.87.79.59,1.21.34.74.59.26.83Z"/><path id="US-ID" class="cls-1" d="M168.17,59.59,167.93,61l-.24,1.46L167.44,64l-.24,1.45L167,66.85l-.24,1.45-.24,1.45-.25,1.46L166,72.66l-.24,1.44-.24,1.45L165.27,77,165,78.46l-.24,1.44-.24,1.45-.24,1.45L163,82.58l-1.3-.22-1.29-.22-1.29-.23-1.29-.23-1.3-.23-1.29-.23L154,81l-1.29-.24-1.28-.24-1.29-.24L148.81,80l-1.29-.25-1.29-.25-1.29-.26L143.66,79l-2.56-.52L138.55,78,136,77.41l-2.55-.55-2.55-.56-2.54-.57-2.54-.59-2.55-.59.49-2,.47-2.05.48-2,.48-2,.48-2,.48-2,.48-2.05.52-2.25v0l.74-1.28.25-.65,0-.41.16-.35.34-.3.08-.38-.17-.49-.43-.39-.7-.31-.27-.58.18-.86.85-1.17,1.53-1.5.9-1.11.28-.7,1.06-1.54,1.84-2.37.85-1.59-.11-.81-.45-.86-.8-.9-.49-.94L132.7,38l-.1-.54,0-.66.25-.33,0-.66-.22-1,0-.66.1-.2.06-.08.35-1.48.34-1.48.34-1.48.35-1.48.34-1.49.34-1.48.35-1.49.34-1.48.35-1.49.34-1.48.35-1.49.34-1.49.35-1.49.34-1.49.35-1.49.34-1.48,2,.46,2.61.6,1.49.33-.52,2.3-.51,2.3-.52,2.3-.52,2.3.47,1.08.36.69.19.69.34.75,0,.25,0,.74-.24.47.15.56-.1.25-.22.08,0,0v.05l.05.1.58.64.53.83.76.66.22.33.84,1.61.41,1,.49.77.15.79.51.76.1.36,0,.08.08,0,.43-.06.1.06.14.29,0,.39.12.19.23.14.27.09h.92l.19,0,.08.1v.21l-.08.33-.18.46-.37.41,0,.45-.42,1L149,39l-.15.66-.33.33,0,.47-.23.67.05.2.25.38-.05.87-.09.15-.63.21-.24.18-.14.29.07.94-.35.44-.11.42,0,.12.48.33.53.64.19.14.14,0,.3-.12.37-.28.68-.22.87-.59.07-.2.08-.1.1,0,.2.14.37.54.34.32.06.07v.13l-.11.44L152,47l0,.59.11.61,0,.73.42,1,.2.7L153,51l.15.38.08.43v.34l-.32.55v.26l.14.31.5.74.11.07.58,0,.29.16.25.37.23.53.11.5-.05.56.2.68-.06.55.15.28.34.4.34.27.14,0,.13-.07.09-.29.19-.2.54-.24.44.09,1.65.58h.12l.1-.08.38-.44.26-.15h.37l1,.31,1.23.14.6.26.95,0,1,.32.15-.06.05-.09-.06-.2,0-.37.29-.4.14-.36.25-.18.31-.06.23,0,.19.24.19.37.3,1,.19.37.24.33Z"/><path id="US-IL" class="cls-1" d="M326.33,84.29l.12,1.46.22,1.2.26.52.28.38.29.23.37.76.47,1.29.4.84.28.33.22,2.51.26,2.8.25,2.8.25,2.81.25,2.8.25,2.8.25,2.81.24,2.65v0l-.31.32-.18.51.11.53-.05.39-.22.25.17.57.54.89.37.89.18.9,0,.66-.34.62-.27,1.32-.28.54-.39.21-.31.5-.25.81-.3.41h-.36l-.25.17-.14.32.05.32.24.32,0,.33-.33.32,0,.14.12.07,0,.15-.22.15-.09.45.07.71-.08.37-.24,0v.2l.46.77-.21.19-.36.71,0,.74.32.79-.56.7-1.44.63-.75.5-.06.39.15.58.36.75.1.53-.16.32-1.09-.11-2-.56-1.3.13-.6.8-.19.59.11.46-.57-.53-.37-.23-.07,0-.07.07,0,.18,0,.13.06.13,0,.1h-.08l-.4-.19-.51-.59-.62-1-.18-.82.26-.63,0-.64-.35-.65-.2-.65-.05-.64-.81-.91-1.57-1.18-1.14-.71-.72-.26-.85-.59-1-.92-.54-.72-.1-.52.34-1.41,1-3.1.11-.37,0-.13-.06-.13-.12-.12-.54-.32-1-.24-.92-.11-.7.4-.68-.69-.64-1.79L306.38,115l-2.22-1.91-1.29-1.3-.38-.71-.35-1.08-.32-1.44-.05-1.2.34-1.46.36-.18,0-.48-.14-.83.37-.65.86-.48.75-1,.65-1.49.27-1.06-.1-.63-.3-.58-.5-.53-.14-.7.19-.85.74-.57,1.3-.3,1.15-.49,1-.68.59-.71.16-.74.26-.59L310,92l.24-.68.11-.93,0-.68-.16-.42-.49-.48-.82-.52-.48-.51-.14-.5-.44-.51-.77-.54-.46-.61,3.19-.17,3.13-.19,3.13-.2,3.13-.21,3.13-.23,3.12-.25Z"/><path id="US-IN" class="cls-1" d="M348.13,89.48l.35,3,.35,3,.35,3,.35,3,.36,3,.35,3,.35,3,.37,3.09-.11.1-.12.43.24.38,0,.33-.17.28.09.18.36.09.17.27,0,.46-.67.56-1.35.69-.28.19-.24.09h-.13l-.19-.08-.28-.18-.46,0-.71.15-.23.47.23.79-.17.65-.59.5-.39.63-.2.73-.39.48-.59.22-.41.71-.25,1.2-.33.76-.41.33h-.61l-.82-.33-.49-.38-.17-.43-.25-.29-.23-.12h-.14v.07l.07.12-.06.14-.47.09-.18.21.09.31-.08.24-.26.16-.11.32,0,.48-.15.45-.33.44-.56-.08-.79-.59-.75-.07-.71.43-.5.53-.31.65-.33.18-.55-.41-1.27-.53-.64-.08-.44.2-.33,0-.12-.16-.09-.07-.08.09,0,.57-.08.36-.19.16-.17-.1-.14-.37-.27-.1-.4.17-.42,0-.38-.19-.13,0-.09.11.06.44,0,.35-.17.24-.27.08-.36-.09-.14.12-.46-.77v-.2l.24,0,.08-.37-.07-.71.09-.45.22-.15,0-.15-.12-.07,0-.14.33-.32,0-.33-.24-.32-.05-.32.14-.32.25-.17h.36l.3-.41.25-.81.31-.5.39-.21.28-.54.27-1.32.34-.62,0-.66-.18-.9-.37-.89-.54-.89-.17-.57.22-.25.05-.39-.11-.53.18-.51.31-.32v0l-.24-2.65-.25-2.81-.25-2.8-.25-2.8-.25-2.81-.25-2.8-.26-2.8L329,91.3l.05.07.29.21.22.12h.16l.1.2.41.09.73,0,.65-.15.59-.27,1.39-1,1.73-.17,2.12-.23,2.12-.23,2.12-.23,2.12-.25,2.12-.25,2.12-.26Z"/><path id="US-KS" class="cls-1" d="M279.8,138.4l-1.74,0-1.74,0-1.75,0H264.13l-1.74,0-1.74,0-1.74,0-1.74,0-1.73,0-1.74,0-1.74-.05-1.75,0-1.74-.05-1.74-.06L245,138l-1.73-.06-1.74-.07-1.74-.07-1.74-.08-1.74-.08-1.74-.09-1.74-.09-1.73-.09-1.74-.11-1.74-.1-1.73-.11-1.74-.11.11-1.76.11-1.76.11-1.75.11-1.76.11-1.76.11-1.75.12-1.76.11-1.75.11-1.76.11-1.76.11-1.76.11-1.75.11-1.76.11-1.76.11-1.75.12-1.76,1.51.1,1.51.09,1.51.1,1.51.08,1.51.09,1.51.08,1.52.07,1.51.08,1.51.07,1.51.07,1.51.06,1.52.06,1.51.06,1.51.05,1.51,0,1.52,0,1.51,0,1.51,0,1.51,0,1.52,0,1.51,0,1.51,0,1.52,0,1.51,0,1.51,0h10.39l1.67,1.2h.44l.52-.19.39.27.28.74,0,.38-.34,0-.42.46-.51.89.14.83.78.76.52.78.26.78.52.61,1.14.64v.35l0,1.23,0,1.22,0,1.22,0,1.23,0,1.22,0,1.23,0,1.22,0,1.22,0,1.23,0,1.22,0,1.22,0,1.22,0,1.23,0,1.22,0,1.22Z"/><path id="US-KY" class="cls-1" d="M367.85,117.62l.21.24.29,1.36v.28l-.16.6.05.3.29.43.94,1,.14.41.37.36.36.57,1,1.19,1.47.88,1.06.13L371.44,128l-1.16,1-1.12.84-.09.12-.17.77-.65.75-.37.74-1,.73-.69.88-1.88,1-1.08.42-.71.55-.05,0-.06,0-.05,0-.06,0,0,0-.06,0-.05,0-.06,0-2.61.26-2.62.25-2.62.24-2.62.22-2.62.22-2.62.21-2.63.2-2.62.18-2.5.31-2.5.3-2.51.29-2.5.27-.25-.27H329.1l.39.93.08.84h0l-1.19.1-1.3.11-1.31.11-1.3.11-1.31.1-1.3.1-1.31.1-1.5.11.34-.85.33-.25.16-.05.39.12.19,0,.38-.32.28-.87.14-.91,0-.95-.29-.73-.12-.46.19-.59.6-.8,1.3-.13,2,.55,1.08.12.17-.32-.1-.54-.36-.75-.15-.57.06-.39.75-.5,1.44-.63.56-.7-.32-.79,0-.74.36-.71.21-.18.14-.13.36.09.27-.08.17-.24,0-.36-.06-.43.09-.12.13,0,.38.19.42,0,.4-.17.27.1.14.37.17.1.2-.17.07-.36,0-.56.08-.09.09.07.13.16.32,0,.44-.2.64.08,1.27.52.55.41.34-.18.3-.65.51-.53.71-.43.74.08.79.58.56.08.33-.44.15-.45,0-.48.11-.32.27-.16.08-.24-.11-.31.19-.2.47-.1.06-.14-.07-.12v-.06h.14l.22.11.27.3.16.43.49.38.82.33h.61l.41-.32.33-.77.25-1.19.41-.71.59-.22.39-.48.19-.74.39-.62.6-.51.17-.64-.24-.79.24-.47.71-.16.45,0,.29.18.19.07h0l.12,0,.25-.09.28-.19,1.35-.69.67-.56,0-.46-.17-.28-.35-.08-.1-.18.17-.28,0-.33-.23-.39.12-.42.1-.1.36-.36.43-.09.37.28.49,0,.6-.23.59,0,.57.32.58.63.59,1,.92.52,1.23.07.92.28.63.5.48.12.5-.38.54-.24.59.11.83.38,1.1-.26,1.38-.91.88-.09.37.73.75.71,1.12.69Zm-49.12,23.76-.52.06,0-.11v-.26l0-.12.1,0h.12l.19.23Z"/><path id="US-LA" class="cls-1" d="M322.72,200.75l-.54.29-3.07-.76-.8-.73-.67-.13-.82,0-.82,1-.58,1.34,1.1.64.92.29,1.47-.39.79-.68.67,0,.31-.15.27-.35.6.22,0,.26-.38.39-.49.34-.29.39.64.69.94.18.34-.13.16-.84L323,202l.78.06-.08.34.13.31.39.51,0,.77.08.19-.8.4-.62.16-.46.48.28.24-.49.26-.35-.07-.17.1,0,.28-.25.27.44.73.82.45.59.59,2.29.65.54-.06.59.79.45.25.42.12v.57l-.7.48-.17.51-.16.29-.36-.33-.36-.23-.73.84-.37.2.13-.86-.32-.31-.51-.81-.69-.48-.48-.14-.38-.3-.44-.1-.37.06-.64-.15-.07-.45-.2-.32-.51-.37-2.39-.59v.31l.17.22.35.14.42.27.06.9-.15.39,0,.55-.12.56-.26.45-.62.34-.3-.23-.53-1.16-.67-.33-1,0-.68.3-.69,1.19-.6.23-2.14-.48-2.44-.78.05-.3.37-.12.73.09-.06-.31-.79-1-.16-.45.07-.56-.24,0-.42.49-1.54-.32-.45-.45-.95-1.29H304l-.6-.78-1,.39-.51.39-.43.6.19.3.48.46-.2.24-1.45.4-3.42-.25-1-.32-1.36-.71-1.87-.55-.89-.07-.87.14-2.53.14-.58.17-.5.28-.33-.29-.16-.51.29-.09.32-.31.28-.61,0-.36-.21-.23.53-1,.12-.34-.12-1.61-.26-.58,0-.34.24-.89-.06-.8.42-1,.32-.52.35-1.05.06-.67.15-.5-.13-.54.25-.4-.18-.54-.07-.73-.33-.27-.59-1.05v-.47l-.61-1,0-.34-.57-.51-.12-.33-.08-1.38-.16-.4-.5-.78-1.14-1.13,0-1.2,0-1.19,0-1.2,0-1.19,0-1.2,0-1.19,0-1.2,0-1.19,1.43,0,1.42,0,1.43,0,1.43,0,1.43,0,1.43,0,1.42-.05,1.43,0,1.43-.06,1.43-.06,1.42-.06,1.43-.07,1.43-.06,1.43-.07,1.42-.08,1.56-.08.07.46.39.25.05.49-.3.74,0,.5.36.26v.3l-.36.33,0,.34.29.35.14.42v.48l.39.61.57.37.39.46.05.26,0,.24-.07.35-.42.54-.33.4-.21.15-.1.26v.55l-.48.74-1,.87-.63,1.08-.28,1.28-.32.82-.36.36-.16.67.05,1-.21.55-.48.13-.08.56.33,1-.1.43-.32.35v.26l1.94-.09,2-.1,2-.1,1.95-.11,2-.12,1.95-.12,2-.13,1.95-.13-.16,1.1-.47,1.51v.38l.18.47,0,.27.24.39.5.36.45.58.45,1.05.13.49.35.67.17.12.23.06Zm2.51.85.07.44-.42-.19-.6,0,.25-.17.18-.16.08-.16.71-.61-.18.42ZM328.7,204l-.21.32.12-1.46-.42-1.19.39.51.16.62Zm-.44.94-.41.53v-.19l.29-.52.22-.21Zm-23.93,3.51-.3.15-1.41-.76-.1-.35.66-.35h.41l.68.39.24.1.12.17-.05.26Z"/><path id="US-MA" class="cls-1" d="M441.61,59.25l0,.51.32.41.26.45.44.38.27,0,.26-.16.21,0,.19.16v.26l-.31.15-.48.59-.49.31-.12.59-.24.69-.52,1.14.42.18,1.29,0,.63.17,1.3,1.47-.14.23,0,.33.85.23.58,1.16.72.24h1l1-.68.76-.78-.16-.4-.85-.8-.27-.42L448,65.4l-.08.29-.37-.24-.08-.17.23-.16.3-.06.39.07,1.19.8.65,1.31.32.87,0,.33h-.27l-.47.2-2.21,1.14-.4.55-1.07.78-.14-.2,0-.47-.34-.9-.24,0-1.43,2-.69.29-.49.61-.2-.21-.42-1.09.11-1.06-.2.08-.27.44-.35-.34-.3-.15-.31-.14-.08-.34-.13-.52-.31,0-.21-.62-.13-.4-.51.15-.42.12-.66.19-.7.21-.5.15,0-.1-.81.21-.81.2-.81.2-.81.21-.81.2-.82.2-.81.2-.81.2v.22l-.28.11-.07-.24-.58.12-.58.12-.58.13-.58.12-.57.12-.58.12-.58.13-.58.11-.24-.17,0-.82,0-.82,0-.82,0-.82,0-.82,0-.82v-.82l0-.82.67-.14.66-.15.67-.14.67-.15.67-.15.66-.14.67-.15.67-.15,1-.22,1-.22,1-.23,1-.22,1-.23.95-.23,1-.23,1-.23.52-.41.49-.91.37-.27.57-.61.31-.19Zm5.87,13-1.75,1-.38-.2.43-.26.4-.85.37-.19.72.21Zm3.91,0-.48.3-1.31,0,.92-.58.13-.15v-.45l0-.21.64.78Z"/><path id="US-MD" class="cls-1" d="M414.75,96.69l.4,1.44.39,1.44.4,1.43.4,1.44.39,1.44.4,1.43.4,1.44.4,1.43h.14l.72-.17,1.59-.37,1.6-.37.77-.18.05.27v.41l-.13.2-.08-.4-.16-.12-.15.22-.08.23.13.8,0,.43-.44.22-.24,1.15-.31.69-.08.4-.65.25-1.06.4-.19.47-.59-.05-.83.2,0-.59.13-.55-.55-.39h-.27l-.31-.14.21-.48.06-.47-.21-.5,0-.43-.2.11-.26.5-.18.21-.21-.34-.13.12-.05.28-.19.19-.55-.25-.77-.25-.53-.6-.34-.49v-1l.44-.27.65,0,.8-.18-.16-.19-.28.09-1-.59-.37-.42-.5,0-.12.5-.21.17.08-1.06.37-.12.5-.4-.29-.55-.41-.17-.58.46-.08-.41v-.54L413,104l.46.08.17-.92-.06-.38-.48.68-.39-1.15L413,101l.46-.62.7-.14.69-.24-.49-.11h-.49l.25-.52.27-.14.2-.46-.67.21-.09-.75-.3.22-.39.16L413,99l.15.51,0,.36-.25.35-.48.33-.14-.36-.21-.13.11.81-.08.3-.55-.66-.09.18.06.2v.39l-.29.26.12.47-.07.28-1.16-.17v.14l.8.75.5.2.16.47-.29.48-.6-.23-.08,0,.41.53.29.47-.08.47.14.52.06.49,0,.44.68,1.88.42.46.41.43.27.44-.31.14-.6-.28-.51-.2-.75-.82-.17-.36-.19-.27.21.67.36.72,2.05,1.34.46.59.35.46.05.5-.52-.25-.48-.36-1.11-.29-1.34,0-1-1,.11.49-.07.45-.55-.41-.37-.37-.19-.46-.54.15-.48.53-.58,0-.23-.79.06-.45.41-1.13.48-.64.11-.71-.3-1,.24.75.47-.89-.53-.5-.5-.47-.44.75-.54-.13-1-.61-1.4-.28-.24-.23,0-.31.09-.45-.48-.33-1.05-.21-.48-.25-.1-.06-.13-.41-.17-.24-.24-.08-.07-.17.07-.27-.18-.24-.45-.21-.19-.23.08-.24-.22-.06-.51.12-.55-.11-.59-.33-.61,0-.94.63-.55.22-.21.29,0,.45-.21.26-.57.11h-.77l-.5-.17-.11-.09v-.24l-.11-.08h-.14l-.1.15-.06.42-.92,1.29-.58-.12-.2,0-1.28,1.81-.43.33-.8.85-.19-1.18-.2-1.19-.2-1.18-.2-1.19,1.65-.3,1.64-.31,1.64-.32,1.65-.31,1.64-.32,1.64-.33,1.64-.33,1.64-.33,1.64-.34L405,98.8l1.64-.35,1.63-.35,1.64-.35,1.63-.36,1.64-.37Zm7.53,14.48-.19.07.12-.37.28-1.68.16-.59,0,1.14-.26,1.1Z"/><path id="US-ME" class="cls-1" d="M441,15.88l.09.19.38.25.48.11.33,0,.37-.12.85-.76,1.07-.65.55-.47,0-.3.26-.18.49-.07,1.06.38,1.31.65,1,.52.45,1.32.47,1.4.49,1.48.35,1.06.49,1.44.39,1.15.51,1.5.27.81.18.19,0,.34,0,.17,0,.12.1.15.06.22,0,.23,0,.25.1.39.19.2.23.07.15,0,.25.07.34.16.46.09.43-.06.26-.14.39,0,.23.3,0,.34-.14.21L456,29l0,.25.19.22.22.18.29.34,0,.35-.05.34,0,.31.2.22.45.22.31.26.39.07.12-.17.07-.21.09-.17h.56l.32,0,.06.29.33.4.43.84-.08.47.22.52.64,0,.2.12.09.18-.85,1.8-1.17.17-.49.55-.59.31-.08.7-.31.24-.48.12-.47-.05-.28.19-.09,1.24-.39,0v.44l-.13.24-.23.23-.4-.41-.3-.42-.25,0-.34,0-.3.11-.18.13-.16.38-.29.37-.35-.12-.32-.28v.61l-.09.68.25.67,0,.44-.29,0-.37-.28-.81-.06-.57.2v-.42l.38-.71L451,41l-.24.16-.14,0,0-.55-.15-.56-.18.27-.13.67-.59.69.27.77-.22,1.8.18.68-.28.68-.44.64-.82.1-.46.58-.16.55-.25.15-.31-.55-.15-.15,0,.93-.2.12-.27-.59-.23-.38-.2.44.08,1-.23,0-.17-.33-.18-.06.06.41.24.54,0,.33-.26-.1-.29-.2-.29.3-.29.18-.08-.28,0-.35-.58.37-.59.84-.34,1,.25.08.31.2L443,53l-.72,1.49L442,56.61l-.26.32-.18.44-.77-.7-.3-.65-.83-.64-.39-.49-.25-.6-.16-.68-.33-1-.34-1-.33-1-.33-1-.34-1-.33-1-.33-1-.34-1-.33-1-.34-1-.33-1-.33-1-.34-1-.33-1-.33-1-.3-.89.11-.18.32-.37.27,0,.32.32.26.21.19-.13.07-.42-.15-.5.15-.42.28-.14.28-.07.08-.21-.08-.24-.22-.37-.1-.48.44-1,.66-.81.21-.37-.09-.6.3-.74.14-.42,0-.31-.23-.34-.19-.71-.09-.89-.07-1,.19-1,.44-1.11-.16-1.24L436.7,23l.49-1.47.55-1.67.31-1,.56-1.73.39-1.23.21-.57.2-.67.64,0h.64l.16.83ZM454.84,41l-.33.29-.43.06.16.47V42l-.53-.1-.21-.11-.18-.63.21-.72.23-.33.45,0,.52.57Zm-2.44,2.11-.19.25-.28,0-.14-.44,0-.18.07-.09.17.08Z"/><path id="US-MI" class="cls-1" d="M314.42,33.77l0,.16.24,0,0,.08-.24.16-.69.35-.47.13-.26-.09,0-.19.18-.3,0-.15-.19,0,0-.11.28-.25L315.56,32l1-.61.56-.21.09.07-.57.59-.08.22,0,.15-.18.3-1.75,1.15Zm5.26,6.39-.09.32,0,.18-.71.88-.24.53-.24.1-.22-.33,0-.28.18-.23.16-.31V40.6l-.08-.14-.21.39.14.07.05.06,0,.13-.91-.12-.3-.27v-.41l.26-.54,1-1.2.45-.34,1.31-.61.73-.18.75-.06.56.11.36.28-.3.24-1.46.32,0,.06.29.15.07.12-.23.34Zm25.72,4,.21.1.17.19.41.54.22.37.18.57.09.19,0,.34-.2.26,0,.19.16.17.78-.05.37.13.17.19-.06.23.08.24.22.23.67.3.17.16v.19l-.17.15-.32.1-2.41,0-.71,0-.08.15-.07,0-.12,0-.2,0-.11-.07-.12-.23-.22-.13-.34,0-.26.21-.24.76.07.12v.47l.1.11v.11l-.09.09-.19,0-.31-.07-1.24-1-.91-.43L340,48.8l-.85-.1-.61.08-.47.33-.33.59-.57.38-.82.17-.44.2,0,.22-.3,0-.55-.15h-.56l-.55.15-.39.26-.36.71-.05.34-.29.32-.79.53,0,.17-.39.56-.11.29,0,.28h-.15l-.33-.28-.05-.42.22-.54.22-.28h.22l.11-.24v-.48l-.11-.24-.41.14-.19.22-.28.07-.35-.08-.27.29L330,53l-.27.44-.33.23-.27-.19-.18-.61-.05-.5.08-.6-.08-.11-.13.2-.18.52-.19,1.11-.17.37L328,54l-.35.7-.46,1.21-.53,1.19L326,58.27l-.38.62-.13.1,0,.2,0,.46-.33-.09-.31-.35-.19-.36-.06-.39.3-1,0-.16-.06-.09-.22-.09-.46.22-.49.08-.16-.06-.07-.16,0-.25.07-.32.24-.6,0-.54.1-.32-.18-.56v-.27l-.23-.29-.59-.34-1.32-.42.08-.6-.07-.25-.35-.35-1.37-.33-.93-.12-.9.07-.65-.11h-.73l-.48-.23-.49-.22-.48-.24-.48-.23-.84-.16-.83-.17-.84-.17-.83-.17-.84-.17-.83-.17-.83-.17-.84-.18-.2-.38-.21-.39-.21-.38-.2-.39-.39-.14-.2-.08-.16-.19-.33.11-.15-.34,0-.07.42-.12,1.19-.57,1-.67.81-.76,1.05-.51,1.28-.25.9-.32.53-.38.69-.72.4-.23.52-.1.38-.29.23-.48.46-.56.69-.63.4-.27.11.1.06.2v.3l.2.23.41.15.2.24v.31L318,42l.27.19.1.47-.05.73,0,.47.11.21.1.11.13-.12.15-.27.05-.16,0-.17,1-.82.21-.06.37.16,1.66.12.66.13.72.36.24.14,1,1.27.43.5.25.12.15.19.16.47.14.13,1.23,0,.54-.14.32-.23.38.09.46.4.42.09.38-.24.37,0,.38.17.17.14.11,0,.62-.75.78-.68,1-.77.61-.36.19,0,1-.32.92-.13h1.24l1.11-.28,1-.55.89-.35.79-.15.32.08-.16.32,0,.52.07.71v.46l-.1.2v.18l.11.16.79,0,.44.18.48,0,.5-.27.41,0,.33.33h.42l.36-.31.25-.29.23-.13ZM347,45.29l0,.2-.21,0-.18-.11-.17-.21-.24-.55-.3-.37.32-.5.22-.09.25.07.07.26-.12.46.07.44Zm.22,1.08-.08.07-.38-.33-.1-.21,0-.2.13,0,.22.14.14.19.06.22ZM351.58,48l.1.21-.12.32-.44.22-.93.11-.62,0-.31-.19-.08-.1V48.3l.13,0,.21.1.29-.1.36-.3.18-.21v-.12l-.15-.22.09-.12.5,0,.21.13.41.49Zm-6.66,2.73.86,0,.07-.08.27.22.07.2-.09.19-.13.11-.19.05-.33-.14-.55-.41Zm-1.32.43.5.12.91.47.85.24h.76l.58.13.39.26.3.32.2.37.4.17.58,0,.46.11.37.23,1.91.48.81.27.47.32.15.22v.24l.08.25.38.44.12,0,.1.23.09.42.13.28.18.12-.08.07-.6-.17-.31.12-.1.35,0,.3.14.27.84.76.3.76.17,1,0,.39,0,.82.12,1.27.05.44-.19.46-.56.69,0-.11h-.16l-.15.11-.17.56-.07,1-.17.55-.28.12-.16.17,0,.19-.3.18-.56.14-.35.34-.17.86.06.38-.07.51.07.41.19.33.51.28.81.24h.47l.29-.18.25-.62.29-.26.37-.15.11-.28.49-1.22,0-.25-.24-.06,0-.08.29-.09.24-.19.19-.29.36-.25.9-.42.46-.41.31-.11.49.12.67.32.57.54.47.74.76,2,1,3.22.65,1.8.26.36.13.18-.1,2.66-.23,1.13-.59.72-.6.71-.7,1.13-.87.63-.44.36-.08.21-.12,0L359,83l-.12.79v.6l.13.31-.17.23-.3.43-.05.15.06.23-.06.12-.17,0-.12.13-.26.44-.4,1.14-.07.21-.06.06-2.31.41-2.32.4-2.31.39-2.32.38-.07-.55-2.11.26-2.12.25-2.12.24-2.13.24-2.12.23-2.12.22-1.73.18.42-.31.69-.68.36-.59.32-.75.29-.93.65-1.4.3-.85.25-1.05L337,82.9l.07-1.13,0-1.16-.14-1.19-.31-1.18-.49-1.17-.26-.6-.1-.16L335,74.83l-1-2.08v-.19l.55-1.36V71l-.18-1-.2-.5-.42-.67v-.18l.61-1,.35-.73.3-.87.14-1V64l-.09-.73-.16-.36,0-.28.13-.22.72-.34.2-.46,0-.78.11-.39.25,0,.22-.19.17-.34.28-.12.37.09.44-.53.5-1.16.42-.66.32-.17.07.09-.17.35,0,.37.12.38,0,.38-.1.53.11.15-.17.86,0,.41.2.3.18-.13.17-.56,0-.29-.09,0v-.23l.11-.44.12-.22h.13l.06.23v.43L339.48,61l0,.32.1.08.36-.69.24-1.07.19-.81v-.43l-.21-1.1,0-.45.07-.32.33-.4.59-.47.61-.28.62-.1.43-.16.22-.22-.11-.14-.43-.06-.35-.21-.26-.35-.13-.42v-.5l.21-.51.4-.53.11-.36-.2-.21.18-.1H343l.39-.11.2-.22Zm-5,2.41-.22.07-.18-.09,0-.44.14-.8.18-.38.32.11,0,.1L339,53l-.07.38Zm-2.28,5-.06.14h-.19l-.16-.11-.19-.4,0-.1.37,0,.14.16Z"/><path id="US-MN" class="cls-1" d="M286,28.7l.75-.14h.65l.66,0,.35.06,1,.39.68.32,1,.6.53.26.28.65.33.84.42,0,.3-.51.8-.12,1.08.3,1,.95,1.39.83.84.4.84,0,1-.5L301,32.1l.8-.19.49.06.31.65.35.23.87-.13,1.83,0,1.44-.28.36.36.33.58.61.15.79-.25,1.27.05-.17.11h-.19l-.23.16-.28.32-.67.49-1.06.64-1.23.6-2.5,1.09-1.54,1.07-.68.62-2.61,3.08-1.6,1.64L295,45.48l-.25.29V46h-.11l-.43.55-.18.35-.44.11.06,1.37.05,1.36.06,1.36.05,1.37-.21.15-.26.33-.38.09-1.73,1.19-.28.33-.3.76-.55.87-.13.46.05.6.91.46.35.45.18.57v.5l-.42,1-.07.39.09,1.19-.22.38.22.95,0,.33L291,64.55l-.09.32.2.54,0,.06.88.73.74.39.65.11.51.3.39.5.5.32.63.13.65.41,1,1,.53.87.87.6,1.4.62.93.55.46.49.35,1.29.37,2.77-2.26.12-2.23.1-2.23.1-2.23.09-2.23.08-2.23.07-2.23.07-2.23,0-2.23.06-2.23,0-2.23,0-2.23,0h-8.92V73.17l0-2.12V66.81l0-2.12V60.45l-.51-.7-1.1-.58-.27-.34L264,58l-.2-.36,0-.29L264,57l1-.9.32-.42.16-.41.24-.94-.09-.73.07-1.13-.2-.85,0-.42-.12-.52-.74-1.39-.17-1.11-.18-.55-.05-1.41,0-.4.16-.77-.31-.52,0-.42-.11-3.37-.09-.48,0-1.56-.55-1.65-.26-.57-.12-.68v-.32l-.44-1.13-.29-1.24,0-1.07-.08-.82,0-.62-.07-1,.1-.53v-.84l-.57-3h.76l2.69,0h9.52V21.72l1.35.18.41.28.13.14,0,.44.13,1.33.26,1.1.59,1.33h0l.06.52.19.33.35.3,1.31.35,2.27.38,1.3.46.32.55.61.21.9-.13.63-.25Zm0,0h0Z"/><path id="US-MO" class="cls-1" d="M302.11,105.94l-.34,1.46.05,1.2.32,1.44.35,1.08.38.71,1.29,1.3,2.22,1.91,1.44,1.85.64,1.79.68.69.7-.4.92.11,1,.24.54.32.12.12.06.13,0,.13-.11.37-1,3.1L311,124.9l.1.52.54.72,1,.92.85.59.72.26,1.14.71,1.57,1.18.81.91.05.64.2.65.35.65,0,.64-.26.63.18.82.62,1,.51.59.4.19h.08l0-.1-.06-.13,0-.13,0-.18.07-.07.07,0,.37.23.57.53.3.74,0,.94-.13.91-.3.87-.38.32-.18,0-.39-.12-.15.06-.34.24-.34.85v0l-.14.1-.11-.08,0-.05-.09-.23-.19-.23h-.12l-.1,0,0,.12v.26l0,.11.17.69-.08.51-.35.22,0,.29.24.3v.15l-.08.13-.25.05-.19.08-.14.27.34.47,0,.6-.37.73,0,.27-1.39.11-1.25.11-1.25.1-1.25.1.53-1,.36-.38.25-.4.49-.38.51-.8,0-.36-.08-.34-.36-.46-.38-.71-2.11.13-2.11.13-2.11.12-2.1.11-2.12.11-2.1.1-2.12.09-2.1.09-2.12.08-2.1.07-2.12.07-2.11.06-2.11.06-2.11.05-2.11,0-2.11,0,0-1.17,0-1.17,0-1.18V138.4l0-1.23,0-1.22,0-1.22,0-1.23,0-1.22,0-1.22,0-1.22,0-1.23,0-1.22,0-1.22,0-1.23,0-1.22,0-1.23,0-1.22,0-1.22,0-1.23v-.35l-1.14-.64-.52-.61-.26-.78-.52-.78-.78-.76-.14-.83.51-.89.42-.46.34,0,0-.38-.28-.74-.39-.27-.52.19h-.44l-1.67-1.2-.12-.08-.52-.8-.22-1-.42-.62-.62-.29-.39-.63-.17-1-.4-1-.18-.29,1.79,0,1.8,0,1.81,0,1.81,0,1.8,0,1.81,0,1.8,0,1.81,0,1.8-.06,1.81-.07,1.8-.07,1.8-.08,1.81-.08,1.8-.08,1.8-.1,1.81-.09.38.66.4.19.09.21.53.33.13.34Z"/><path id="US-MS" class="cls-1" d="M329.88,154.68l.74.56v.82l0,1.75,0,1.75,0,1.75,0,1.75-.05,1.75,0,1.75,0,1.74-.05,1.75,0,1.76-.05,1.75-.05,1.75,0,1.76,0,1.75-.05,1.75-.05,1.75-.06,1.76.24,1.76.23,1.76.23,1.77.23,1.76.24,1.76.23,1.76.23,1.77.27,1.93-2.38.35-1.09-.4-.44-.06-.26,0-1.18.54-1.37.44-.33-.08h-.47l-.93,1.23-.61.34-.21-.07-.22-.06-.17-.12-.36-.67-.13-.49-.44-1.05-.46-.58-.5-.36L320,197l0-.27-.18-.47v-.38l.47-1.51.17-1.1-2,.13-2,.12-2,.13-2,.12-2,.1-2,.11-1.95.1-1.95.09,0-.26.32-.35.09-.43-.32-1,.07-.56.48-.13.21-.55,0-1,.15-.67.36-.36.32-.82.28-1.28.64-1.08,1-.88.47-.73v-.55l.11-.27.2-.14.33-.4.42-.54.07-.35,0-.24-.05-.26-.38-.46-.58-.37-.39-.61v-.48l-.14-.42-.29-.35,0-.34.37-.33v-.3l-.37-.26,0-.5.3-.74,0-.49-.4-.26-.07-.46,0-.23.28-1.69-.09-.21-.4-.49-.07-.6.18-.76-.14-.57-.31-.2-.09-.22-.11-.34.31-.33V169l-.31-.25.17-.39.63-.52.17-.29.18-.3.07-.7-.11-.41-.18-.26.07-.15.13-.13.77-.3.21-.19,0-.22-.27-.52.21-.58.68-.64.36-.55,0-.45.32-.35.63-.25.35-.86.07-1.49.15-.64.32-.12.16-.21,0-.43.37-.46.72-.49.26-.46-.1-.22,0-.29,2-.13,2.05-.13,2-.14,2.05-.15,2.05-.15,2.05-.16,2.05-.17Zm.73,45.24-.1.12-.74-.14-.46-.15-.09-.18,1.25.23Z"/><path id="US-MT" class="cls-1" d="M216.54,52l-.18,2.19-.19,2.19L216,58.58l-.18,2.19v.12h-.21l-1.46-.13-1.47-.14-1.46-.14-1.46-.14-1.46-.15L206.81,60l-1.46-.16-1.46-.15-1.47-.16L201,59.39l-1.46-.16L198,59.05l-1.45-.17-1.46-.18-1.46-.18-1.46-.18-1.46-.19L189.3,58l-1.46-.19-1.45-.2-1.46-.21-1.45-.2L182,57l-1.45-.21-1.45-.22-1.46-.22-1.45-.22-1.45-.23-1.45-.23-1.46-.23-1.44-.24L169,54.91l-.2,1.17-.2,1.17-.19,1.17-.2,1.17-.4-.32-.24-.33-.19-.37-.3-1-.19-.37-.19-.24-.23,0-.31.06-.25.18-.14.36-.29.4,0,.37.06.2-.05.09-.15.06-1-.32-.95,0-.6-.26L161.44,58l-1-.31h-.37l-.26.15-.38.44-.1.08h-.12l-1.65-.58-.44-.09-.54.24-.19.2-.09.29-.13.07-.14,0-.34-.27-.34-.4-.15-.28.06-.55-.2-.68.05-.56-.11-.5-.23-.53-.25-.37-.29-.16-.58,0-.11-.07-.5-.74-.14-.31v-.26l.32-.55v-.34l-.08-.43L153,51l-.29-.36-.2-.7-.42-1,0-.73-.11-.61,0-.59-.15-.39.11-.44V46l-.06-.07-.34-.32-.37-.54L151,45l-.1,0-.08.1-.07.2-.87.59-.68.22-.37.28-.3.12-.14,0-.19-.14-.53-.64-.48-.33,0-.12.11-.42.35-.44-.07-.94.14-.29.24-.18.63-.21.09-.15.05-.87-.25-.38-.05-.2.23-.67,0-.47.33-.33L149,39l.34-.64.42-1,0-.45.37-.41.18-.46.08-.33v-.21l-.08-.1-.19,0h-.92l-.27-.09-.23-.14-.12-.19,0-.39-.14-.29-.1-.06-.43.06-.08,0,0-.08-.1-.36-.51-.76-.15-.79-.49-.77-.41-1-.84-1.61-.22-.33-.76-.66-.53-.83-.58-.64-.05-.1v-.05l0,0,.22-.08.1-.25-.15-.56.24-.47,0-.74,0-.25-.34-.75-.19-.69-.36-.69-.47-1.08.52-2.3.52-2.3.51-2.3.52-2.3,1.13.25,2.62.58,2.62.56,2.62.55L156,14l.59.12,2,.41,2.63.51,2.63.5,2.63.49,2.64.48,2.64.46,2.64.45,2.65.44,2.64.43,2,.32.65.09,2.65.41,2.65.39,2.66.37,2.65.37,2.66.35,2.66.34,2.66.33,2.66.31,2.66.3,2.67.29,2.66.28,2.67.27,2.67.25,2,.18-.14,1.81-.16,1.81-.15,1.81-.15,1.81-.15,1.81L218,34l-.14,1.81-.16,1.81-.15,1.8-.15,1.8L217.29,43l-.15,1.8L217,46.61l-.15,1.8-.15,1.8Z"/><path id="US-NC" class="cls-1" d="M420,126l0,.76.2.39.49.33.67,1,.67,1.34-.6-.47-.56-.19-.83-.06-.78-.26.18.58.08.65-.58-.08-.41-.13.47.61-.74-.05-.46.14-.17.67-.33.45-.57.25-1-.36-.43-.6-.28-.72.14.89.36.89.09.71.89-.06.78-.29,1.09-.21.68-.28.37-.32,1.07,0,.26.83.07.86.13.9.29-.06.27-.36-.19-1.63.8-.8.32,0,.41.44.22.5.27.69,0,1.14-1.16,1.59-.77,1.41-.47.36-.8,0-.93-.1-.44,0-.3.17-.27-.32-.27-.64-.38-.14-.25.08,0,.74-.77.37-1.16-.06-1.27-.34.63.52,3.1.57.37.16.37.25-.29.6-.19.64.06.45-.05.31-1,1h-.65l-1.88-1,1,1,.69.39,1.22,0,2.08-.92.82.33-.39,1-.45.73-.76.23-.64.31-.11.46-.48.13-.74.18-1.16.29-.66,0-.72,1-.31.18-.51-.06-.34-.64-.28-.29.26,1.28.15.33.23.22-.91.91-.83,1.07-.32.31-.32.52-.59,1.43,0,.95-.1,1.08-.13-.45-.1-.78-.39-.84.2,1.65-.18.82-3,.54-1.15.62-1.32-.91-1.25-.85-1.23-.86-1.24-.86-1.24-.87-1.22-.86-1.23-.87-1.23-.87-1.08.16-1.09.15-1.09.16-1.08.15-1.09.16-1.08.15-1.09.15-1.08.14-.17-.72-.11-.51-.83-.77-.48-.45-.77.59-.08-.22,0-.39-.1-.12-.24-.06-1.22.15-1.22.14-1.21.14-1.22.14-1.22.14-1.21.13-1.22.14-1.22.13-.29-.05-.5.39-1.36.68-.65.51-.26,0-1.16.57-1.17.57-.14,0-2.31.36-2.32.35-2.31.34-2.32.34,0-2,.14-.49.21-.13.79-.11.48-.29.29-1.26.88-1.07.42-.3.66-.27,1.58-.45,1.6-1.16,1.12-1,.95-.38.26-.37.16-.44.06-.58.09-.14.57,0,.36-.55.38-.34.39-.22.25,0,.12.13.13.41.11.12h.18l.23-.14.28-.31.7-1,.51-.41.82-.31.68.34.35-.2.81-1.88.38-.37.3-.17.56-.12-.07-.47.08-.73-.05-.49.23-.76.15.12,2.71-.41,2.7-.42,2.71-.43,2.7-.45,2.71-.45,2.7-.46,2.7-.48,2.7-.49,2.69-.49,2.7-.51,2.69-.52,2.69-.53,2.69-.54,2.68-.55,2.69-.56Zm.58-.12.23,0,1.4,2.78,2.21,2.86.31.52-.46-.41-1.58-1.87-1-1.39Zm3.32,5.94-.07.21-.73-.9.58.21.16.25Zm2,5.49-1,.48-.11-.06,1-.78-.06-1.93-.15-.86-.51-1.46-.07-.31.3.44.49,1.36.18,1.07,0,1.62Zm-1.69.86-1.22,1h-.16l.79-.67Zm-4.34,6.24-.17.15.45-1.3,1-1.76.32-.3-.86,1.49Zm-.35,0-.17.06-.32,0-.45-.11-.12-.12.4,0Z"/><path id="US-ND" class="cls-1" d="M265.71,54.33h-1.53l-1.54,0H261.1l-1.54,0-1.54,0-1.54,0-1.53,0-1.55,0-1.53-.05-1.54,0-1.54,0-1.54-.06-1.53-.06-1.54-.06-1.54-.07-1.54-.07-1.53-.07L238,53.52l-1.53-.08L235,53.35l-1.54-.09-1.53-.09-1.54-.1-1.53-.1-1.54-.11-1.53-.11-1.54-.11-1.54-.12-1.53-.12-1.53-.13-1.54-.13L216.54,52l.15-1.8.15-1.8.15-1.8.15-1.81.15-1.8.15-1.81.15-1.8.15-1.8.16-1.81L218,34l.16-1.81.15-1.81.15-1.81.15-1.81.16-1.81.14-1.81.68.06,2.67.22,2.67.22,2.68.2,2.67.19,2.67.18,2.68.16,2.68.15,2.67.14,2.68.13,2.68.11,2.68.1,2.68.09,2.67.08,2.68.07,2.68.05,1.91,0,.58,3v.84l-.11.54.08,1-.05.63.09.81,0,1.07.28,1.25.45,1.12,0,.33.13.68.26.56.55,1.65-.05,1.57.1.48.11,3.36,0,.43.31.52-.15.76,0,.4.05,1.41.18.56.17,1.11.74,1.39.12.52,0,.42.2.85-.08,1.13Z"/><path id="US-NE" class="cls-1" d="M266,86.71l.21.05.46.84.19,1.48.42,1.2.66.91.33.66v.43l.16.45.31.48.13.82-.07,1.16.13.61.34.08.15.16,0,.25.11.19.27.12.08.33-.12.55.09.34.32.14.06.27-.2.39,0,.32.26.23.17,1,.09,1.79,0,1-.15.3.23.65.44.7.18.29.4,1,.17,1,.39.63.62.29.42.62.22,1,.52.8.12.08H263.72l-1.51,0-1.51,0-1.52,0-1.51,0-1.51,0-1.52,0-1.51,0-1.51,0-1.51,0-1.52,0-1.51,0-1.51-.05-1.51-.06-1.52-.06L241,109.7l-1.51-.07-1.51-.07-1.51-.08-1.52-.07-1.51-.08-1.51-.09-1.51-.08-1.51-.1-1.51-.09-1.51-.1.07-1.17.08-1.17.08-1.17.08-1.17.07-1.17.08-1.18.08-1.17.07-1.17-1.77-.12L223,99.26l-1.77-.13L219.45,99l-1.77-.14-1.77-.14-1.78-.15-1.77-.15.21-2.35.2-2.34.2-2.34.2-2.34.2-2.35.2-2.34.2-2.35.2-2.34,2.39.21,2.38.19,2.38.19,2.39.18,2.39.17,2.38.16,2.39.15,2.39.15,2.39.13,2.38.12,2.4.12,2.39.11,2.38.1,2.39.08,2.39.08,2.74.09,2,1.45,1.23.46.59-.4,1.27-.21,1.95,0,1.23.22.51.45,1,.51,1.48.57.89.6.3.65.52.42Z"/><path id="US-NH" class="cls-1" d="M441.59,57.36l0,1.26,0,.63-.8.18-.31.19-.56.61-.38.27-.49.91-.51.41-1,.23-1,.23-.95.23-1,.23-1,.22-1,.23-1,.22-1,.22-.2-.29-.53-.48-.15-.22-.05-.28v-.78l.09-.27,0-.47-.21-1.76-.05-1-.33-1.83v-.57l.07-.36.05-.92.31-.82.09-.94.19-.84-.06-.45,0-1-.25-1.73.12-.32.82-.47.23-.25.74-1,.21-.36.11-.35v-.5l.07-.16-.05-.26-.63-1-.12-.4.37-1.43-.35-.69.05-.2.15-1.94.37-1,.88.05.43-.15.24-.37.3.89.33,1,.33,1,.34,1,.33,1,.33,1,.33,1,.34,1,.34,1,.33,1,.33,1,.34,1,.33,1,.33,1,.34,1,.33,1,.16.68.26.6.39.49.83.64.3.65Z"/><path id="US-NJ" class="cls-1" d="M425.1,82l.06.74-.32,1.61-.21.41-.27.38-.22.19-.18.28-.19.43-.08.79.32.63,1.39-.09.31-.29.3.43.27.63.07.73,0,.78.05.94.19,1.4.09,1.28-.13-.37-.23-1.52-.18.21L426,92l.07,2-.32,1.17-.35.84h-.57l.26.54-.08.33,0,.64-.22.49-.32,0-.36.39-.13.26.09.41-.21.43-.61,2.13-.79.78-.24,0,0-1-.05-.94-.65-.25-.58-.08-.61.16-.83-.54-1-.3-1.53-1.1L417,98l-.18-.64.14-1.09.19-.79.4-.48,1.31-.69.22-.65.1-.52.28-.39.67-.75,1.06-1L419,89.13l-.44,0-.7-1-.59-.19-.16-.15-.23-.85-.07-.5v-.31l.38-.35.14-.55-.06-.26-.52-.72-.06-.25.52-.63.6-1.14.25-1.15.13-.35.18-.27.47-.43.79.26.78.25.78.25L422,81l.79.25.79.25.78.25Zm1.4,12.34L426,95.91l-.09-.26.61-2Z"/><path id="US-NM" class="cls-1" d="M216.36,141.13l-.32,0-.21,2.63-.22,2.63L215.4,149l-.22,2.63-.21,2.63-.22,2.64-.22,2.63-.22,2.64-.21,2.64-.22,2.64-.22,2.64-.22,2.64-.21,2.64L213,178l-.22,2.64-.22,2.65-1.8-.14L209,183l-1.81-.15-1.8-.15-1.8-.16-1.8-.17-1.8-.17-1.8-.17-1.81-.18-1.8-.18-1.79-.19-1.8-.19-1.8-.19-1.8-.2-1.8-.21-1.79-.21h-.05l.61,1.8h0l.92.59-.06,0-1.77-.22-1.76-.22-1.76-.22-1.76-.23-1.76-.23-1.75-.25-1.77-.24-1.75-.24-.15,1-.14,1.05-.15,1.06-.15,1-2.85-.38-2.84-.4-1-.14.48-3.33.48-3.31.48-3.32.48-3.3.48-3.32.47-3.3.48-3.31.48-3.3.48-3.3.48-3.3.47-3.3.48-3.3.48-3.3.48-3.29.47-3.3.48-3.29,2.82.4,2.82.39,2.82.38,2.82.36,2.82.36,2.83.34,2.82.33,2.83.32,2.83.31,2.83.29,2.83.29,2.84.27,2.83.26,2.84.25,2.83.23,2.83.23-.08,1.17-.09,1.17-.09,1.17Z"/><path id="US-NV" class="cls-1" d="M134.42,125l-.73,3.61-.81,4-.16,0-.61.82-.57.33-.36-.09-.31-.34-.27-.59-.5-.41-.72-.23-.67,0-.62.12-.42.26-.33.62v.29l.21.68-.17,1-.11.78.11.47-.06.5-.29.75,0,.66.2,1.23-.82,3.24v0l-1.65-2.37-1.53-2.23-1.52-2.23-1.5-2.24-1.49-2.24-1.49-2.24-1.47-2.24-1.46-2.24-1.06-1.58-1-1.57-1.05-1.58-1-1.58-1-1.58-1-1.58-1-1.59L106,112l-1.33-1.91-1.31-1.92-1.3-1.91-1.3-1.92-1.28-1.92-1.28-1.93-1.27-1.92-1.26-1.93.46-1.7.46-1.7.46-1.7.46-1.7.46-1.7.46-1.7.46-1.7L99.3,83l.46-1.7.46-1.7.46-1.7.46-1.7.46-1.7.46-1.71.46-1.7.46-1.7,2.53.68,2.53.67,2.53.65,2.54.65,2.54.64,2.54.62,2.54.62,2.54.6,2.55.59,2.54.59,2.54.57,2.55.56,2.55.55,2.55.54,2.55.53,2.56.52-.29,1.44-.29,1.44-.29,1.43-.29,1.44-.29,1.44-.29,1.44-.28,1.44-.3,1.44L141.06,92l-.29,1.43-.29,1.44-.29,1.44-.29,1.44-.29,1.44-.28,1.43L139,102l-.29,1.44-.29,1.43-.29,1.44-.29,1.44-.29,1.44-.28,1.43-.3,1.44-.28,1.44-.29,1.43-.29,1.44-.29,1.44-.29,1.44-.28,1.43-.29,1.44-.29,1.44Z"/><path id="US-NY" class="cls-1" d="M389.11,39.92h0Zm36.43,24.89,0,.82,0,.82v.82l0,.82,0,.81,0,.82,0,.82,0,.82.24.18.16.88.17.88.16.88.17.87.16.88.17.88.16.88.17.88.29.3.3.3-.22.23-.34.35-.36.38-.46.5.39.38.5.49-.22.3-.55,1-.39.55-.38.24-.16.42-.22.3.07-.86.12-.74-.08-1.36-.33-1-.41-.36-.38-.21.62,1,.37,1.26v0l-.76-.25-.79-.25-.78-.25L422,81l-.78-.25-.79-.26-.78-.25-.78-.25-.23-.31-.31-.21L417,79.28l-.39-.23-.38-.35-.31-.46-.23-.51-.11-.42,0-.5-.35-.25-.08-.29-.23-.16-.88-.17-.36-.44-.63-.35-.95.21-.94.22-.94.21-.94.21-.94.21-1,.21-.95.21-.94.21-.95.2-.94.2-.95.21-.95.2-.94.2-1,.2-.95.19-.94.19-.95.2-.94.19L395,79l-1,.19-.95.18-.95.19-.95.19-.95.18-1,.18-.95.18-.95.18-.95.18-.95.17-1,.18-.95.17-1,.17-.22-1.24-.22-1.25v0l.36-.3,1.16-1.08.55-.73.6-.64.65-.54.48-.62.3-.72.38-.55.46-.41.21-.37,0-.35-.18-.44-.34-.54-.12-.45.1-.37v-.23l-.12-.1-1.13-.12-.25-1.6,0-.05.05,0,2.32-1.18,1.52-.54,1.89-.44,2.34-.11.94.13.65.29.66,0,.7-.34,1-.27,1.31-.21.71,0,.11.1.08,0,.05-.22.3-.3.89-.54.15,0,.16-.21.18-.46.39-.56.61-.64.59-.4.58-.15.36-.21L404,62l0-.21-.11-.16v-.29l-.05-.07-.1-.15-.23-.79-.2-.35-.21-.25-.24-.13,0-.2.29-.3,0,.22.1.05.14-.14.26-.57v-.19l.21-.24.13-.33h-.22l-.47.2-.13-.06.17-.45-.1-.21-.1-.08H403l-.47.47-.17.07-.06-.18-.37-.33.6-.88,2.25-2.58.2-.36,0-.29-.12-.22-.09,0,0-.07,2-3.12L408,48.24l1-.93.83-.52.63-.1.34-.13.3-.07,1.51-.37,2.71-.67,2.71-.68,1.6-.4.2.59,0,.75.32.76.26,1.66.73,1.16.12.87.25.9,0,.24-.19.6-.05.56,0,.55.09.33.65,1.42.22.64.1.38.06,1.29.07.36.1.08.09,0,.18-.45L423,57l.18,0,.55.48.24,1,.18.75.2.84.29,1.27.22.92.2.84.15.65,0,.49Zm-22.41-9.42-.19.12-.07-.1V55.3l.14-.16.29-.06v.1Zm-.41,2.86-.09,0,0-.2.07-.15.18-.1,0,.11ZM386.63,70.86l-.15.36h-.2l-.17-.08L386,71V70.7l.15-.14h.5l0,.1Zm48.15,8.71-.34.71.46,0,.34-.28.26-.44.71-.7.66-.39.21-.1.43.24.6-.45.65-.34-2.59,2.32-.57.33-.76.68-.75.54-.57.27-2.69,1.9-.24.09-.28-.05L428,85.06l-1,.32-.88.43.57-.64,0-.18-.2-.09-.36.13-.25.57-.56.31-.25-.49.11-.46.17-.45.44-.75.75-.6.35-.43.37.21,0-.41.17-.28.22-.19.6-.15.3-.14.2-.19.23-.09h.7l.63-.21.45-.38.51-.22,1.4-.42,1.35-.54.48-.47.94-1.21.61-.43-.78,1.32Zm-10.55,7.17-.32.12.12-1,.51-.55.24,0,.08.31,0,.28-.31.51Z"/><path id="US-OH" class="cls-1" d="M379.61,94.84l-.76.54-.09.4.33.43.25.59.14.76-.19,1.73-.53,2.72-.22,1.69.1.66-.5,1-1.08,1.28-.78.78-.47.31-.43,0-.38-.2-.35.23-.33.68-.34.38-.37.07-.25.45-.14.81-.17.48-.22.16.05.39.3.63,0,.24-.11,0-.1,0-.23.19-.23.41-.1,0-.08,0-.16-.47-.28-.31-.4-.15-.45.53-.49,1.2-.18.75.19.48.16.71-.11.32-.35.17-.22.43-.1.7-.44.5-.78.3-.89-.19h-.06l-1.12-.69-.75-.71-.38-.73-.87.09-1.38.91-1.1.26-.83-.38-.59-.11-.55.24-.49.38-.48-.12-.63-.5-.93-.29-1.23-.06-.91-.51-.6-1-.58-.64-.57-.31-.59,0-.6.24-.49,0-.37-.27-.43.09-.36.35-.37-3.09-.35-3-.35-3-.36-3-.35-3-.35-3-.35-3-.35-3,2.31-.38,2.32-.39,2.31-.4,2.31-.41.07-.06,0,0,.12.15h.65l.45.13.38.25,1.29.39.43.3.39.14h.37l.24-.15.09-.28.18,0,.24.19.72.15,0,.07-1.83.7-.37.25.49.07.48-.1.45-.28.56-.06.5,0,.14-.1.06,0,.9.43.33,0L365,90l.3-.26.69-.38,1.07-.51,1.06-.3,1.05-.1.64-.2.55-.44,1.14-1.36,1.37-1.16,2.3-1.56,2.27-1.3.13.78.17,1,.17,1,.16,1,.17,1,.17,1,.16,1,.17,1,.17,1,.16,1,.17,1,.17,1Z"/><path id="US-OK" class="cls-1" d="M279.87,143.09l.19,1.31.19,1.3.19,1.31.19,1.3.19,1.31.2,1.3.19,1.31.2,1.3V169.9l-1.78-.45-.45-.3-.82-.33-.74-.71-1.45-.86-.55-.2-.17,0-.3.44-.76.34-.42,0-.76-.12-.14-.11-.11-.26-.31-.18-.22.14-1.1.36-.16.26-.62,0-.62-.19-1.56.57-.53.45-.56.16-.29.43-.17-.06-.58-.54-.6-.17-.82-.54,0-.47-.09-.06-.15-.05-.18,0-.36.4-.21.1-.21,0-.78-.27-.33-.49-.17-.15-.18,0-.34.14-.2.53-.15.14L261,168l0,.26-.3.73-.17.15-.2,0-.21-.18-.16-.26-.06-.23.12-.58-.06-.2-.16-.06-.39.27-.34,0-.44.27-.28.08-.25-.07-.4-.45-.7-.3-.26-.53-.12-.15-.15,0h-.15l-.25.17-.83.67-.37.21-.32,0-.3-.08-.19-.18,0-.7-.17-.21-.74-.45-.15-.42-.06-.58-.9.07-1.11-.08-.52.49-.26.08-.31-.11-.88-.71L248,165l-.54-.09-1.31-.55-1-.08-.43-.1-.23-.13-.07-.78-.39-.67-.13-.18-.69-.49-.11,0-.08.1-.18.51-.21,0-.81-.18-.75.12-.4-.27-1.37-1.26-.56-.33-.45-.12.05-1.12,0-1.13.05-1.12,0-1.13.05-1.12,0-1.12.05-1.13,0-1.12,0-1.12,0-1.13.05-1.12.05-1.13,0-1.12,0-1.12.05-1.12.05-1.13-1.42-.06-1.42-.07-1.42-.07-1.42-.07-1.42-.08-1.41-.08-1.42-.08-1.42-.08-1.42-.09-1.42-.09-1.42-.09-1.41-.1-1.42-.1-1.42-.1-1.42-.11-1.41-.1.09-1.17.09-1.17.09-1.17.08-1.17,1.86.14,1.86.14,1.85.12,1.86.13,1.74.11,1.73.11,1.74.1,1.74.11,1.73.09,1.74.09,1.74.09,1.74.08,1.74.08,1.74.07,1.74.07L245,138l1.74.06,1.74.06,1.74.05,1.75,0,1.74.05,1.74,0,1.73,0,1.74,0,1.74,0,1.74,0,1.74,0h10.44l1.75,0,1.74,0,1.74,0v1.17l0,1.18,0,1.17Z"/><path id="US-OR" class="cls-1" d="M92.85,25.71l.7,0L94,26l.51.6L94.74,28v2.26l-.08.73.35.56.56.19,2.19,1,.34.08h0l.44,0,1.52-.41,1.48.15,1.64.53,1,.52.26.5.88.29,2.23.13,2.42.33h1.34l1.61-.31,3.46,0,1.63.32.91-.12.23-.12.11,0,1.7.44,1.7.43,1.7.42,1.7.42,1.7.41,1.7.41,1.71.41,1.59.37.08.45.49.94.8.9.45.86.11.81-.85,1.59-1.84,2.37-1.06,1.54-.28.7-.9,1.11-1.53,1.5-.85,1.17-.18.86.27.58.7.31.43.39.17.49-.08.38-.34.3-.16.35,0,.41-.25.65-.74,1.28v0l-.52,2.25-.48,2.05-.48,2-.48,2-.48,2-.48,2-.47,2.05-.49,2-2.54-.6-2.54-.62-2.54-.62-2.54-.64-2.54-.65L108,70.77l-2.53-.67L103,69.42l-1.78-.49-1.78-.49L97.63,68l-1.78-.5-1.78-.51-1.77-.51-1.78-.52-1.77-.52L87,64.87l-1.77-.54-1.77-.53-1.77-.54-1.76-.55-1.77-.56-1.76-.55L74.55,61l-.5-1.36.16-1.74.15-.71.69-1.79v-.85l-.22-1.48.63-1,.51-.58,1.66-2.72.25-.18.29.1.68-.34-.2-.19-.44.12.69-1.06.68-.89.35-.29,1.17-3.23,1-2.43.59-.72.16-.89.5-1.11.28-1.19,2.49-5.39.12-.7.5-.84.57-2.47.94-2.66-.07-.4,0-.39h.18l.2.5,1.5.47,1.06-.07.31.23.25.62.48.26Z"/><path id="US-PA" class="cls-1" d="M418.85,80l-.47.42-.19.27-.13.35-.24,1.15-.6,1.14-.53.63.06.25.52.72.06.26-.14.55-.38.35v.31l.07.51.22.85.18.14.58.19.7,1,.44,0,2.23,1.9-1.06,1-.67.76-.28.39-.51,1-1,.51-.49.44-.11.17-.68-.11-.87.24-.28.18-.17.28-.37.85-1.63.37-1.64.37-1.63.35-1.64.35-1.63.36-1.64.34-1.64.34-1.64.34-1.64.34-1.64.33-1.64.32-1.64.32-1.64.32-1.65.31-1.64.31-1.65.3-.93.18-.93.17-.93.16-.92.17-.93.16-.93.17-.94.16-.93.16-.18-1.07-.19-1.07-.18-1.07-.19-1.07L380.16,98,380,97l-.19-1.07-.18-1.06-.17-1-.17-1-.17-1-.16-1-.17-1-.17-1-.16-1-.17-1-.17-1-.16-1-.17-1-.17-1-.13-.78,1.2-.7.51-.41.53-.42.26-.23.31-.22,1.94-1.59v0l.23,1.25.22,1.24.95-.17,1-.17,1-.18.95-.17.95-.18.95-.18.95-.18,1-.18.95-.19.94-.18,1-.19.95-.18L395,79l1-.19.95-.19.94-.2.95-.19.95-.2,1-.2.94-.2.95-.2.95-.2.94-.2.94-.21.95-.21.94-.2.95-.21.94-.21.95-.22.94-.21.94-.21.94-.22.64.35L414,76l.88.17.23.16.07.29.36.25,0,.5.1.42.23.51.32.46.38.35.39.23,1.34.17.31.21Z"/><path id="US-RI" class="cls-1" d="M441.72,70.66l-.19.3-.37-.27-.24-.35-.26-.16-.23,0,.42.79-.26.75.34,1.66-.35.83-1.57.89-.51.09-.05-.54.11-.26-.12-.58-.07-.37-.18-.63-.2-.71-.21-.77-.19-.69-.14-.49-.19-.68-.14-.49.51-.15.69-.2.67-.19.41-.13.51-.14.13.4.21.62.31,0,.13.51.08.35.31.14.31.15Zm.49,2-.27.34-.38.06.09-.39-.06-.51,0-.59.06-.19.18-.21Zm-.83.29-.14.22-.19-.42v-.54l.13,0,.14.25Z"/><path id="US-SC" class="cls-1" d="M405.5,154.75l-.1.05-1.77,1.77-.49.73L401.89,160l-.15,1.58-.46-.56v-.49l-.06-.39-.27.91.63,1.13-.28.53-1,1.07-.59.25-.64.38-.07.89-.79.95-.49.45-1,0,.44.7-.26.63-.56.56-.74.42-.46,0-.37.22-.24.41-.68.48L393,170l-.89,0-.46.28.88.2.53.41,0,.68-.18.29-.46.43h-.24l-.19-.29-.28-.62-.22.17v.31l-.18.15-.92-.91.17.78.36.56.31.27.28.14.11.27-.39.77-.24.2-.44.18-.19.47.14.35-1.73-.48-.59-.59-.13-.87-.46-.93-1.21-1.5-.76-.36-.63-1-.75-1.87-.9-1.12-1-.39-.74-.54-.43-.68-.41-.43-.38-.17-.25-.35-.11-.52-.65-.62-1.79-1.07-.49-.74-.87-.71-2.09-1.4h0l-2.25-3h0l-.32-.62-.42-.22h-.63l-.64-.23-1-.7h0l-1.6-.81.17-.95,1-1.34.28-.69h.05l.14,0,1.17-.57,1.16-.57h.26l.65-.51,1.36-.68.5-.39.29,0,1.22-.13,1.21-.13,1.22-.14,1.22-.13,1.22-.14,1.22-.15,1.22-.14,1.21-.14.25.05.1.12,0,.4.08.21.78-.59.48.45.83.77.11.51.16.72,1.09-.14,1.09-.15,1.08-.15,1.09-.16,1.09-.15,1.08-.15,1.09-.16,1.08-.16,1.23.87,1.22.87,1.24.86,1.23.86,1.23.86,1.24.86,1.24.86Z"/><path id="US-SD" class="cls-1" d="M265.71,54.33l-.23.94-.16.41-.32.42-1,.9-.25.31,0,.29.2.36.51.85.27.35,1.11.57.5.71v17l-1,0,.12.59.27.58,0,.33,0,.28-.19.24,0,.38.06.11.44.24.15.34,0,.38v.29l-.28.52-.08.7-.35,1-.37.63-.08.32,0,.26.57.67,0,.27.19.35.17.77-.53-.13-.52-.42-.3-.65-.89-.6-1.48-.57-1-.51-.51-.45-1.23-.22-1.95,0-1.27.21-.59.4-1.23-.46-2-1.45-2.74-.09-2.39-.08L245,81.64l-2.38-.1-2.39-.11-2.4-.12-2.38-.12-2.39-.13-2.39-.15-2.39-.15-2.38-.16-2.39-.17-2.39-.18-2.38-.19-2.38-.19L214,79.66l.21-2.35.19-2.34.21-2.35.2-2.35.2-2.35.2-2.35.2-2.35.2-2.35h.21v-.12l.18-2.19.18-2.19.19-2.19.18-2.19,1.53.13,1.54.13,1.53.13,1.53.12,1.54.12,1.54.11,1.53.11,1.54.11,1.53.1,1.54.1,1.53.09,1.54.09,1.54.09,1.53.08,1.54.08,1.53.07,1.54.07,1.54.07,1.54.06,1.53.06,1.54.06,1.54,0,1.54,0,1.53.05,1.55,0,1.53,0,1.54,0,1.54,0,1.54,0h1.54l1.54,0Z"/><path id="US-TN" class="cls-1" d="M362.49,135.87l1.7-.23,3.64-.49,2.58-.37,2.12-.31,1.25-.18,1.57-.23.32-.25.79-.09,1.07-.13-.23.77.05.48-.08.74.07.47-.56.11-.3.17-.38.38-.81,1.87-.35.21-.68-.35-.82.32-.5.4-.71,1-.28.31-.23.14h-.18l-.11-.12-.13-.41-.13-.13-.25.05-.39.22-.38.33-.36.56-.57,0-.09.13-.06.58-.16.45-.27.36-.95.38-1.12,1-1.6,1.16-1.57.45-.66.27-.42.3-.88,1.07-.29,1.25-.48.3-.79.11-.21.13-.14.48,0,2-2.49.29-2.5.28-2.5.27-2.5.26-1.23.13-1.24.12-1.24.12-1.23.12-1.24.12-1.23.11-1.24.12-1.23.11-1.24.11-1.24.1-1.24.11-1.23.1-1.24.1-1.24.1-1.23.1-1.24.09h-.1l.11.11.14.11-2.09.18-2.05.16-2.05.16-2.05.15-2.05.15-2,.14-2.06.14-2,.12v0l.27-.41.84-.69.32-.87-.18-1,.26-1,.71-.88.25-.85-.18-.81.33-.7.84-.57.11-.22-.05-.16,0-.18v-.07l0-.16.19-.11.25-.09.11-.14,0-.21-.18-.37,0-.17,0-.27.37-.73,0-.6-.34-.47.14-.27.19-.08.25-.05.08-.13v-.15l-.24-.3,0-.29.35-.22.08-.51-.17-.69.52-.06,0,.05.11.08.14-.1v0l1.51-.11,1.3-.1,1.31-.1,1.3-.1,1.31-.11,1.3-.1,1.31-.11,1.18-.1,0,0-.08-.84-.38-.93h1.73l.25.27,2.5-.28,2.51-.29,2.5-.3,2.5-.31,2.62-.18,2.62-.2,2.62-.21,2.62-.22,2.62-.23,2.62-.23,2.62-.25,2.62-.26.06,0,0,0,.06,0,.06,0,.05,0,.06,0,.05,0Z"/><path id="US-TX" class="cls-1" d="M281.33,169.9l.42.45.34.13.09.18.16,0,.2,0,.3-.21.44.05.37-.08.73.09.41.21,0,1.27,0,1.28,0,1.28,0,1.28,0,1.2,0,1.19,0,1.2,0,1.19,0,1.2,0,1.19,0,1.2,0,1.2,1.14,1.12.5.78.16.41.08,1.38.12.33.58.5,0,.35.61,1v.47l.58,1.05.33.27.07.72.19.55-.25.39.12.54-.14.51-.07.67-.35,1.05-.32.51-.42,1,.06.81-.24.89,0,.33.26.58.12,1.61-.12.34-.53,1h-.39l-.83,1.58.51.87,0,.32-1.73.22-3.91,1.83-1.53,1,.08-.32,1.84-1.26-.66-.18-1.05.32-.38-.11.44-1-.16-.9h-.75l-.47.72-.33,0-.44-.31-.33.11.26,1.62.48.67.41.84-1.07,1.07-1,.89-.1.84-1,1.11-1,.63-2.24,1.47-.64.32-1,.68-1.4.51-1.35.81-.46.12.86-.68,1-.68-.87.09-1.35-.31-.82,0v.24l-.63.35-.65-.52-.28-.34-.13-.3-.27-.08-.27.14,1,2.1.41.1.46.21-.58.48-.61.37-1,.24-.81-.77-.19,1-.11,1-.28.24-.45.35-.23-.27-.11-.37-.28.33-.42.24-.68.05-.51.12v.4l.11.4.91-.3-.34,1-.84,1-.69.22-1-.16-.25.1-.24.2,1.19,1.61-.81,2.39-.52.86-.35.11h-.38l-1.33-.8-.73-.61.62,1.64,1.76.51.08.61,0,.53-.35.62-.35.81.24.57.25,1.42.23.66.23,2,.27.86,1.59,3.17.55,0,.08.34-.06.65-1.18.18-.49.28-.11.25-.07.14-.15,0-.56-.19-1.26-.91-1.85-.6-2.43-.26-1.66-.49-.87-.71-.92-.43-1-.15-.8-.4-.62-.63-.92-.42-1.22-.21-.78-.49-.51-1.14v0l-.44-1.89-.57-1.2-1.16-1.49-.1-.2h0v-.24l.18-.84-.11-.61-.36-.51-.07-.53.23-.55,0-.66-.15-.78-.73-.87-1.32-1-1.09-1.35-.87-1.77-.88-1.23-.89-.7-.59-.84-.3-1-.07-.55.15-.15-.52-1.09-1.16-2-.65-1.48-.14-.91-.75-1.13-1.34-1.33-.72-.86-.16-.57h0l-2.1-1.77-.58-1.06-.47-.36h-.58l-.28-.12v-.23l-.19,0-.37.19-1.16,0-2-.25-1.4-.38-.84-.49H217l-.39.53-.77.31-1.16.07-1.06,1-1,1.83-.45,1.19.06.55-.25.38-.56.2-.59.51-.63.81-.68.37-.74-.09-1.33-.77-1.89-1.46-1.5-.93L203,208l-1-.68-.79-1-.75-.66-.71-.36-.76-1.06-.82-1.77-.36-1.33.13-1.36-1-3.08-.54-1.34-.44-.64-.91-.8-1.36-1L192,191.15l-2.16-2.71-1.54-1.66-.94-.61-.77-1-.59-1.35-.62-.88-.08-.05-.91-.59h0l-.62-1.8h.06l1.79.21,1.8.21,1.8.2,1.8.19,1.8.19,1.8.19,1.8.18,1.8.18,1.8.17,1.8.17,1.8.16,1.8.16,1.81.16,1.8.15,1.8.15,1.81.14.22-2.64L213,178l.22-2.64.22-2.64.22-2.64.21-2.64.22-2.64.21-2.64.22-2.63.21-2.64.22-2.64.22-2.63.21-2.63.22-2.64.21-2.63.22-2.63.31,0,1.42.11,1.41.1,1.42.11,1.42.09,1.42.1,1.42.09,1.42.09,1.42.09,1.41.08,1.42.08,1.42.08,1.42.08,1.42.07,1.42.07,1.42.07,1.42.07-.05,1.12,0,1.12-.05,1.13,0,1.12,0,1.12-.05,1.13-.05,1.12,0,1.12,0,1.13,0,1.12-.05,1.12,0,1.13-.05,1.12,0,1.13,0,1.12-.05,1.12.45.12.56.33,1.37,1.26.4.28.75-.12.81.17h.21L243,162l.08-.1.11,0,.69.48.13.19.39.67.07.78.23.13.42.1,1.05.08,1.31.55.54.09.95-.11.88.71.31.11.26-.09.52-.49,1.12.09.9-.07.06.57.15.42.74.45.17.22,0,.69.19.19.3.07.32,0,.38-.21.82-.67.25-.16.15,0,.15,0,.12.15.26.53.7.3.4.45.25.07.28-.08.43-.26h.35l.39-.27.16.07.06.19-.12.58.06.23.16.26.21.18.2,0,.17-.14.3-.73,0-.27.34-.09.15-.14.2-.53.34-.14.18,0,.17.15.32.49.8.28h.21l.2-.1.36-.4.19,0,.15.05.08.06,0,.47.81.55.6.16.58.54.17.07.29-.44.56-.15.54-.45,1.55-.58.62.19.62,0,.16-.25,1.1-.37.23-.14.3.18.11.26.14.11.76.13.42,0,.76-.34.3-.44.17,0,.55.2,1.45.86.74.71.82.33.45.3Zm-3.92,42.65-.42.09,1.8-1.48.38-.49.48,0-.8.83ZM262.93,222l-.31,0,.39-.51.62-.25,1.38-1,.56-.07.29-.34.12,0-.08.42-1.1.59Zm-2.14,2.37-.18,0,.41-.77.08-.32.68-1,.36-.14.14.42-.69.69Zm-3,5.71-.27.54.08-.82.72-1.85,1.44-2.42.59-.4-1.65,2.66Zm1.42,11-.13.44-.69-2.09-1.08-4.72V232l.2-.91.24,3.78L259,239.7Z"/><path id="US-UT" class="cls-1" d="M164.3,82.8,164.11,84l-.2,1.16-.19,1.16-.2,1.16-.19,1.15-.19,1.16L163,90.91l-.2,1.16,1.76.29,1.76.29,1.76.28,1.76.28,1.76.27,1.77.27,1.76.26,1.76.26-.33,2.32-.34,2.33-.34,2.32-.33,2.32-.34,2.33-.33,2.32-.34,2.32-.33,2.33-.34,2.31-.33,2.33-.34,2.32-.34,2.32-.33,2.33-.34,2.32-.34,2.32-.33,2.33-2.33-.34-2.32-.36-2.32-.35-2.33-.37-2.32-.37-2.31-.39-2.32-.39-2.32-.39-2.32-.41-2.31-.41-2.31-.43-2.31-.43-2.31-.44-2.31-.44-2.31-.45-2.3-.47.29-1.43.29-1.44.29-1.44.28-1.43.29-1.44.29-1.44.29-1.44.29-1.43.28-1.44.3-1.44.28-1.43.29-1.44.29-1.44.29-1.44.29-1.43L139,102l.29-1.44.28-1.43.29-1.44.29-1.44.29-1.44.29-1.44.29-1.43.28-1.44.3-1.44.28-1.44.29-1.44.29-1.44.29-1.44.29-1.43.29-1.44.29-1.44,1.28.25,1.29.26,1.29.25,1.29.25,1.29.25,1.29.24,1.28.24L154,81l1.29.24,1.29.23,1.3.23,1.29.23,1.29.23,1.29.22,1.3.22Z"/><path id="US-VA" class="cls-1" d="M401.69,103.11l.48.25,1,.21.49.33-.09.46,0,.3.24.24,1.4.28,1,.6.54.14.16,0,.39.12.21.2.11,1.07-.23.59-.44.5-.54.85,0,.69,0,1.26.38.35.32,0,.82-.46.48,0,1.33,1.25,2,.17.77.22.73.64.95.25.79.5.11.41-.11.54.05.69-.19.48-.66.2-.43,0-2.7-1.88-.31-.16-1.07-1-1.09-.46-.29.08L410,114l.74.73,1.23,1,.8.35.69.68.56.27,1.41.24-.37.47.8.16.23.57.08.69-1.06,0,.08.5.15.27-.4.34-.68-.19-2-1.46.07.24.19.25,1.18,1,1,.51.78.16.67.46.27.31.24.51-.32.45-.42.3-.53-.26-.41-.31-.84-.49-.37-.68-.52.15-2.43-.44-1.81.27.21.14.25.08,1.48-.08.65.31,1.26.12.71-.05.52,1.09,1.13.59.25.56.66-.07,1-.83.78,0,1.1-.07.35.41.38.84.6.9.46.92-.23.06L420,126l-1.85.4-2.68.56-2.68.55-2.69.54-2.69.53-2.69.52-2.7.51-2.69.49-2.7.49-2.7.48-2.7.46-2.71.45-2.7.45-2.71.43-2.71.42-2.7.41-.16-.12-1.06.12-.79.1-.32.24-1.58.24-1.25.18-2.12.31-2.58.37-3.63.49-1.71.23.7-.55,1.09-.41,1.88-1,.69-.89,1-.73.37-.74.65-.75.17-.76.08-.13,1.13-.84,1.16-1,2.45-2.68.11.28-.06.34.3.34.29.56.33.32.39.24.61.16.75.35.56,0,.17,0,.52-.53.46-.31.43-.56,1,.5.36-.06.85-.43.83-.21.19-.13.27-.32-.08-.54,0-.15.13-.09.16,0,.41.14.37-.06,1.47-.89.12,0,.25.25.63-.49.34-.41.09-.55.25-.57-.11-.21-.27-.25.17-.74.3-.75,1.23-2.33.28-1.34.51-.91.1-.68.39-.72.1-1.35.17-.3.29-.1.34.1.27.2.21.37.85.19.68-.08.41-.33.19-.51.2-.92.26-.57.1-.68.15-.49.3-.34.89-.16.38-.47.27-.51.19-.19.25,0,.66-.87.76-1.69.05-1,.14-.73,0-.71.13-.42,1.07.57.62.33,1.41.74.94.49.16-.82Zm20.4,8.13.19-.07h0l-.45,1.57-.3.22Zm-2.77,1.44.19-.48,1.06-.39.65-.25-.77,4,.22.65-.28.28-.45.29-.4.51-.24.51,0,1.25-.29,1.46-.49-.47-.2-.45-.11-1.28.18-2.16.41-1.41.4-.72Z"/><path id="US-VT" class="cls-1" d="M430.87,63.63l-.66.15-.67.15-.67.15-.67.14-.66.15-.67.15-.66.14-.67.15-.32-.51,0-.5-.15-.64-.2-.84-.22-.93-.29-1.26-.2-.84-.18-.76-.24-1-.54-.48L423,57l-.11.09-.19.45-.09,0-.09-.08-.08-.35-.06-1.29-.09-.39-.22-.64-.66-1.41-.09-.33,0-.55.06-.56.19-.6v-.25l-.25-.89-.12-.87-.73-1.15-.26-1.67-.31-.75,0-.76-.21-.59,1.11-.29,2.69-.7,2.7-.72,2.69-.72,2.69-.74-.05.2.35.69-.37,1.43.12.4.63,1,.05.26-.07.16v.5l-.11.35-.21.36-.74,1-.23.25-.82.47-.12.32.25,1.73,0,1,.06.45-.19.84-.09.94-.31.82-.05.92-.07.36v.57l.33,1.83.05,1,.21,1.76,0,.47-.09.27v.78l.05.28.15.22.53.48Z"/><path id="US-WA" class="cls-1" d="M132.7,38l-1.59-.37-1.71-.41-1.7-.41L126,36.39l-1.7-.42-1.7-.42-1.69-.43-1.7-.44-.11,0-.24.12-.9.12-1.63-.32-3.47,0-1.6.31h-1.34l-2.42-.33-2.24-.12-.87-.3-.26-.5-1-.51-1.65-.54-1.47-.15-1.52.41-.44,0h0l-.34-.07-2.19-1L95,31.58,94.65,31l.08-.73V28L94.5,26.6,94,26l-.44-.32-.7,0-.16-.18-.29-.12-.52-.66-.24-.57-1.17-.34-.15-.36-1.39-.12-.3-.43-.77,0,.44-.79L88.61,21,89,20l-.07.81.19.94.5-.84.5-1.1-.28-.57-.61-.56.09-1.14,2-.38-.82-.47-.22-.52L89.8,16l-.13.31-.27.37,0-.6.16-.66.18-1.16-.11-2L90,9.83l-.14-1.3-.63-1.41,0-.72.29-1.68L90,3.55l.1-.92.45.2,1,1.08,1.37,1,.34.53.65.53,4,1.74.28,0,.62-.11.22.11.42.82.28.17.41.09.33,0,.63-.28,0,.18-.13.4v.62l.14.86v.5L100,12.17l-.15,0,.11-.44-.07-.12-2.08,1.77-.81.89-.2.45-.07.28.18.13.49,0,.8-.23.06-.08-.67,0-.31-.08.19-.48.15-.21.63-.6.56-.31.75-.28.46-.27.41-.49.87-.46.19-.15.13-.56.08-.09.3.17-.15,1-.21.4-.74.33-.12.16-.11.74-.11,0-.2-.15-.08,0,.32.93v.65l-.14.54-.46,1-.21.12-.25-.15-.28-.42-.11.07-.53.7-.07-.09.1-1-.08-.1-.69.26-.35.34-.39.59-.35.23.69.28.67.06.41.47.17.06.56-.16.2-.17.68-.87.25-.12.29.08.32-.06.57-.42.08-.21.21-1.26.25-.67,0-.24-.11-.28.09-.22.25-.32.1-.32,0-.33.15-.32.6-.59.16-.29.68-.57,0-.32-.24-.46-.13-.37L103.54,9l-.12-.21-.08.05v.86l-.07,0-.48-.61-.06-.31,0-.38.13-.25.41-.17h.42l0-.23-.27-.88-.22-.43-.2-.24-.32-.14-.08-.18V5.73l.14-.2.2,0,.49.25.32-.08.06-.3,0-.19.33-1,0-.9,0-.18-.11,0-.15.08L103.6,3l-.12-.34,0-.6,0-1.41.62.19,2.57.77,2.57.76,2.58.74,2.57.74,2.58.72,2.59.71,2.59.7,2.59.68,2.6.67,2.59.66,2.61.65,2.59.64,2.61.63.64.15L138,11.58l-.35,1.5-.34,1.49-.35,1.48-.35,1.49L136.24,19l-.35,1.48L135.54,22l-.34,1.49L134.86,25l-.35,1.49-.34,1.48-.34,1.48-.35,1.49-.34,1.48-.34,1.48-.07.07-.09.2,0,.66.22,1,0,.66-.25.32,0,.66ZM101.63.15l.22.07-.13.11-.07,0Zm.94,3.48,0,.23-.3.12-.18,0-.18-.4-.11-.07,0,.51-.09.15-.47-.46,0-.27.24-.2.43-.14H102Zm-1.88,1.15.07.35-.6-.4-.22-.25,0-.2L100,3.7l.1-.16.31,0,.34.85Zm1,1-.12.06-.29-.22-.13-.26,0-.28.27-.45.19-.07.1.06-.09.44.15.54Zm.76,3L102.36,10l.28-.46.57,1.11-.13.42-.14.12h-.19l-.12-.17-.06-.35-.14-.21-.36-.22-.11-.4V9.6l.18-.67,0-.24-.2-.11-.16-.22-.16-.56V7.66l.26-.34.54-.53.33-.23.15.08.13.25.12.42-.12.23-1.06.21-.06.1.4.27.13.17ZM101.34,14l-.09.17-.27-.32-.06-.22.14-.43.17-.26.08,0,.17.19,0,.08Zm.09,2-.09.2-.28.09-.11-.08L101,16l-.06-.05-.34.22.2-.58.3-.57.12,0,0,.45Zm-3.36.88L98,17l-.09,0-.08-.42,0-.26.23-.14.05.6Z"/><path id="US-WI" class="cls-1" d="M305.55,43l-.2.17-.08-.07,0-.3.1-.18.16,0,.08.06v.19Zm-1.77,1-.09.08-.26-.15,0-.13.06-.13.11,0,.18.19Zm2.15,3,0,.08.15.33.33-.11.16.2.21.08.38.14.21.39.2.38.21.38.21.39.83.17.83.18.83.17.84.17.84.17.83.17.84.16.84.17.48.23.48.23.48.23.49.23h.72l.66.11.9-.07.92.12,1.37.33.35.35.07.25-.07.6,1.32.41.58.35.23.28v.28l.18.56-.11.32.05.54-.24.6-.07.31v.26l.08.16.16,0,.48-.07.47-.22.22.09,0,.08,0,.16-.3,1,.05.38.2.37.3.34.33.1v.25l-.08.48-.35.41-.94.56-.12.34v.26l-.54,1.16-.25.69-.14.72.1.44.35.15.27-.09.18-.34.29-.32.4-.29.28-.41.35-1,.43-.57.26-.06H326l.48-.29.41,0,.28.33.28.23.07.23-.07.53-.18.57-.28.61-.23.89-.17,1.18,0,.88.22.57-.1.55-.42.5-.32.66-.21.79-.1.67v.53l.07.39.23.52v.27l-.4,1.22-.13.58V75l-.08.46-.31.93-.07.52v.46l.16.74,0,.26,0,.19.11.12,0,.24-.07.36.07.26.19.18.15.35.1.54L326,81l.25.35.09.52-.08.69,0,1.3,0,.43-.89.07-3.13.24-3.12.24-3.13.21-3.13.2-3.13.19-3.2.16-.05-.06-.26-.83-.73-.59-1.21-.34-.8-.6-.38-.86-.26-1-.15-1.08.05-.93.24-.75-.1-.49-.43-.24-.3-.33-.16-.42-.08-.58-.37-2.77-.35-1.29-.45-.49-.93-.55-1.4-.62-.88-.6-.52-.87-1-1-.65-.4-.63-.14-.51-.32-.38-.49-.52-.31-.65-.11-.73-.39-.88-.73,0-.06-.2-.54.09-.31.1-1.06,0-.34-.22-.95.21-.38L291,60.63l.06-.39.42-1v-.5l-.19-.57-.35-.45-.91-.46-.05-.6.14-.46.55-.86.29-.76.28-.34L293,53.06l.38-.09.26-.33.21-.15-.06-1.36-.05-1.37-.06-1.36L293.58,47l.44-.11.18-.35.42-.55h.12l.23.24.58.32.43,0,.56-.1,2.16-.71.9-.47.87-.75.1,0,.38.11.12.06,1.13-.88.38-.13h.31l.39.3.1.19-.11.38-.31.58-.13.47,0,.38-.12.42-.34.57.14.14,1-.45.13-.17,0-.09-.07-.11.11,0,.81.49.55.28.44.11Zm-1.09-3-.22.07-.47-.06v-.14l.47-.22.22-.06.05.07Zm-1,1.35-.37.15h-.15l.05-.18.18-.23.83-.58h.15l.06.12-.41.29-.14.15,0,.14Zm26.36,11.5L330,57h-.37l-.15-.19.14-.56.08.09.32,0,.11,0,.05.13ZM329.45,58l-.11.13-.21-.06-.06.19.08.43,0,.21h-.19V59l.18.17,0,.21-.11.24-.11.12h-.12l-.15.28-.2.57-.05.32.09.08,0,.18-.54.88-.23.1-.27-.09-.2-.22-.15-.36-.06-.27,0-.21.47-.77.2-.5.08-.55.22-.36.35-.18.26-.36.17-.54.24-.25.3,0,.15.18Z"/><path id="US-WV" class="cls-1" d="M388.52,102.06l.2,1.19.2,1.18.2,1.19.2,1.19.79-.86.43-.33,1.28-1.81.2,0,.58.12.91-1.29.06-.42.11-.15.14,0,.11.09v.24l.1.08.51.18h.76l.57-.11.21-.26,0-.45.21-.29.56-.22.94-.63.61,0,.59.33.54.11.52-.12.22.06-.08.24.19.23.45.21.19.23-.08.28.08.17.23.07.18.25.13.41.1,0-.24,1.2-.17.81-.93-.49-1.42-.74-.62-.33-1.07-.57-.13.42,0,.71-.14.73,0,1-.76,1.69-.67.87-.24,0-.19.19-.27.51-.38.47-.89.16-.3.34-.15.49-.11.67-.25.58-.21.92-.18.5-.42.33-.67.09-.85-.2-.22-.36-.27-.2-.33-.11-.3.1-.16.3-.11,1.35-.38.72-.1.68-.51.91-.28,1.34-1.22,2.33-.31.75-.17.74.27.25.11.22-.25.56-.08.55-.35.42-.62.49-.25-.26-.13,0-1.46.9-.37.06-.41-.14-.16,0-.14.09,0,.16.08.54-.27.33-.19.12-.83.21-.84.43-.37.06-1-.5-.43.56-.45.31-.52.53-.18,0-.55,0-.75-.35-.61-.17-.39-.23-.34-.33-.28-.55-.3-.34.06-.34-.11-.29-1.06-.13-1.47-.88-1-1.18-.36-.57-.37-.37-.13-.41-.95-1-.28-.43-.06-.3.17-.6v-.28l-.29-1.36-.21-.24.89.19.78-.3.44-.5.1-.7.22-.43.35-.17.11-.32-.16-.71-.19-.48.18-.75.49-1.2.45-.53.4.15.28.31.16.47.08,0,.1,0,.23-.41.23-.19.1,0,.11,0,0-.24-.3-.63-.05-.39.22-.16.17-.48.14-.81.25-.45.37-.07.34-.38.33-.68.35-.23.38.2.43,0,.47-.31.78-.78,1.08-1.28.5-1-.1-.66.22-1.69.53-2.72.19-1.73-.14-.76-.25-.59-.33-.43.09-.4.76-.54.18,1.06L380,97l.18,1.07.18,1.07.19,1.07.18,1.07.19,1.07.18,1.07.93-.16.94-.16.93-.17.93-.16.92-.17.93-.16.93-.17Z"/><path id="US-WY" class="cls-1" d="M214,79.66l-.2,2.34-.2,2.35-.2,2.34-.2,2.35-.2,2.34-.2,2.34-.2,2.34-.21,2.35-2.22-.21-2.22-.2-2.23-.22-2.23-.23-2.22-.23L199,97.08l-2.22-.25-2.22-.25-2.23-.26-2.21-.27-2.22-.28-2.22-.28-2.22-.3-2.21-.3-2.21-.31-2.22-.31L175.08,94l-1.76-.26-1.77-.27-1.76-.27L168,92.93l-1.76-.28-1.76-.29-1.76-.29.2-1.16.19-1.16.19-1.16.19-1.15.2-1.16.19-1.16.2-1.16.19-1.16.24-1.45.24-1.45.24-1.44.25-1.46.24-1.45.24-1.45.24-1.44.24-1.45.25-1.46.24-1.45.24-1.45.24-1.45.24-1.45.25-1.45.24-1.46.24-1.45.2-1.17.19-1.17.2-1.17.2-1.17,1.45.24,1.44.24,1.46.23,1.45.23,1.45.23,1.45.22,1.46.22,1.45.22L182,57l1.46.21,1.45.2,1.46.21,1.45.2,1.46.19,1.45.19,1.46.19,1.46.18,1.46.18,1.46.18,1.45.17,1.47.18,1.46.16,1.45.17,1.47.16,1.46.15,1.46.16,1.46.14,1.46.15,1.46.14,1.46.14,1.47.14,1.46.13-.2,2.35-.2,2.35-.2,2.35-.2,2.35-.2,2.35L214.37,75l-.19,2.34Z"/></g></g></svg>