<svg xmlns="http://www.w3.org/2000/svg" viewBox="0 0 441.64 432.85"><defs><style>.cls-1{fill:#ccc;stroke:#fff;stroke-width:0.37px;}</style></defs><title>France</title><g id="Calque_2" data-name="Calque 2"><g id="Calque_1-2" data-name="Calque 1"><path id="FR-A" class="cls-1" d="M357.76,154.39l2.56-1.27-.71-1.87,1-.87-.54-.43,1-3.69,1.74-1,2.35-4.05-.53-1.64,4.29-7.6-.59-1.35-1.94.29-1.26-.88,1-1.16-.71-1,1-3.51-.85-1.35,1.37.26-2.12-1.22,3.08-.15,1.64-1.15,2.65-5-1.2-.11-.71-1.38,2.22-3.5-2-1.88.33-.67-3.28-1.07-.83,2-1.48.82.33-1.26-1.14-.2,0-1.31,1.36-.86-1.37.16-.06-.73L361.4,105l-.33-1.86h1.06l.37-1.31,1.28.24,1.09-5.1.94-.57.87,3.34,5.17,1.5-.1.85,1.08.57,3.88-1.17,2.6,1.68,1.28-1.15,1.8-4.51h0l2.93-.14.09.61,1.8-1,2.23,1.51,2.07-1.14,4.89,3.17,4.29,1.12-2.56,2.87-1.83,4.76-3.61,2.1-.25,1.64-3.83,3.75-1.2,2.65.18,3.21-1.15,1.13-1.11,4.43.38,3.1-1.58,1.17-.83,3.69-2.75,4.65-.22,4,1.62,2.85-2,4.25-.83,4.56.56,2.08-1.12,1.65L381,164.3l-.25,1.31-2.59,1.64,1,.53-1,.33.41,1-.7.71-1.75-.58-.33.67,1.07.43-2.13,1.76-1.77-.42-2.62.91-.34-.82-1.91-.21,1-2.27-2.13-.41h0l.33-1-1.76-3.1-2.48-.42,1.24-3.16-.28-2.33-3-2.19-2.28-.52Z"/><path id="FR-B" class="cls-1" d="M167,248.89l.72,1,2.08-.31,1.66,1.23-.72,2.18,1.86,1.87,1.75-2.09.87.95,3.72-.43,2.07,3.49.94-.73,1.55,1-1.4,2.19,5.31,1.85-1.14,1.35,2.09,1-1.82,2.43-.88.05-.28,2.15,1.55.79L185.37,271l1.88.68-.89,1h0l-.15,0h0l1.63,1.42,3.18.35-1,.86,2.15,3.71h0l-1.16.67h0l.12.51h0l.87,3.33-.89.25.86,1.38-2.4,1.54.12,1.41-2.08.65.54,2.41-2.82,2.43-2.32.59.19,1.33-1.82,2,.3.86-2.73,1.56-1-.3,1.09,1.6v2.63l1.17.77.17,2.61-3.37.17-.32.71-.65-1.67-.74.13-.83,3,2.51,1.53-1.36,3.57-1.63.28,1,.38.27,1.59-1,.48-2.24-.73.27,1.39-1.27.15-.54,1.95-2.35,1.59-2.18-2.38-1.14,1.07-2.91,0-.58,1.16-3.93.84-.44.8-2.14-1.34-1.21.3-1.08,1.8-.91-1.23-2.19,1.72.63,1.9-.53.87L147,325.8l.86-1.05-1.33-1.29-1.83,2.37-2.57-.46-1.84,1.77,1.63,1.25-.68.45.47,2-1,.07,1,3L140,335.22l.23,2.22-1.22.5L139,339l1,.11.27,1.4,1.89-.58,2.48.61.08,1.62.84-.2,1.48,3.21-1.46.38-.05,2.2,2.05-1.45-.09,3.08,1,1.09-2.33,1.89.88,1.3-1,2.19-.73-.18.16,1.93-1.53-.12-.88,2.15-1.44.61.4,2.61-2.48.62-.84,1.33.21,3-1.42.69.43,2.84h0l-2.5,2.11-1.48.15-1.95-1.34-1.41,2.07-3.89-4.47-1.65-.5-.68-3-5.82.61-5.26-3-.86.68-.66-1.15-2-.83-1,.49-1.43-1.05,1.17-2.09-2.25,1-.29,2.77-2.65-.74-1-1.77,1.81-1.65,1-2.58-.2-2.89-4.51-1.51-.85.24-.41,1.62-1-.1-.49-2.32-3.22.45-.26-1.44-1.51-.86-.06-1,3.73-.63,2.06-1.89,4.73-9.06,4.6-23.94L109,299.52l1.94-4.94,5.82,1-.42-1.84-1.58-.75h1.09l-4.1-3.42-2,3.56-.43,3.37-.47-.77,3.21-36.58,1.92-3.53,1-.75.65,1.63-1.18.21.78.05-.42.82,8.07,7.22,3.51,11.79,2.92,2.85-2.26-5.23-1.43-8.6h0l3.68.31.25-1.12.69,2.18,4.3.79.71,4h0l0,.19h0l.54,1.67.63-1.15.78.15.73,1.24,1-.21.66,1.21,2.09.89,1.45.2,1.71-1.39,1.35,1,.22-1.8,1.26-.55-.71-.52.83-1.65,1.47-1.06,2.43.91,1.24-2.39,2.79-1.58-.57-3.16.88-2.52,1.26-.42-.46-1,.87.76,1.54-1.91h1.57l.53-1.65,1.71-1.22.2-3.55,1.67,0ZM145.3,352.13h0l-.18-2.64h0l-.29-.15h0l.12,1.6-.9.36.74.71Zm-1.18-.1h0l-.22.17h0l-.6,1.42.58,1.3,1.28-.92-.76-1.86h0l-.18-.12Z"/><path id="FR-C" class="cls-1" d="M217.72,217.54l.54-2.25H219l1.15-2.06,3.88-.71,1.53.6,2.4-1.52-.34-1.84-1.14-.63.9-1.37-.79-.88,1.07-.55.7.57-.11-1.42,2.38-1.26.44-1.2,1.39,1.27,1.15-.8,1.47.41,2.29-3,3.4-.09h0l.82,2L246,206.1l2.14-1.82,2.39,1.48,1-1.29,1.27-.05,1.11,2.79,3.2-1.68-.4-1.51,1.51-.06-.25-1.68,1.12.31.41,2.14,3,4.69.17,2.83,1.95.89,1-.56.93,1.92,2.48-.21,1.53,1.38-.73,2.81.27,3.1.61.06-1.79.26-1.46,2h0l-.2,0h0l-.26,0h0l-3.57,1.54,1.25,3.37-.48,2.26.87,1-.49,1.56.79,2.39-1.33,1.14-2.66.16-.24,1.74,1.9,1.94-1.2.7.21,2.49-1,1,2.82,2.9-.11,1.48,1.44,2.62,3.38,2.34,1.57,3.6-.66,2.61-2.28,1.79.47,2.65,1.34-1.83,1.15.18,1,1.92.08-.93,1.55.58.31-1,2.23-.28-.27-.83,1-.39,1.67.16,1.2,1.35,1.92-.44,1,1.39-1.1.81,1.21.71-.67,1.17,1.12.81,1.54-.81,1.68,2.26-1.33,2.71.31,1.81-.67.39-.39-1.14-1.51-.33.77,1.3h0v.39h0l-.84-.06-.76,1.29,1,1.74-2.56.75.54,2-2.74.43-2.1,3.9-3.75,0-.19,1.68-.87.59-.54-.56.18.92-1.2-.66-.79,2.51-1.91,1h0l-.79-.15.22-1.05-1,.32-1.49-1.56-.55-1.61-2.36.4.21-1.2L259.21,285l-1.12.24-.16,2.15-3.4.71-1.88-3.84-.05-1.88-1.35-1.44L248.62,283l-1.35-.37-.18,2.07-1.35,1.09L243.88,284l-.68,1.64H243l-.14,1.38-.82-.17-.8,1.62-.22,3.65-1.76,3.07h0l-1.39-1.53-.77-3.51.79-.55-.51-.85-1,.19-.89-3.67-2.66.8,0-2.43-1.14-1.27-4.07,4.13-.13,2.33L226,290.51l.32,1.43-1.87,1.34-.48,1.65-4,.44-.79-1.29-1,.09-2.41.79-.38,1.39-1-.9L214,293l-.9,0,1.29-4-2.47-3.67.36-2L211,280.9h0l1.23-.32h0l.26.07h0l1-.85-1.37-2.54,2.29-1,.2-2.39,1.62-1.24-1-.68-.2-1.76,5.09-5-.34-3.28,4.06,1.83,1.47-1-1.26-1.19.94-5.91-1.74-1.83.77-2,1.09-.06.06-3L221,243.81l2.1-1.8h0l.13,0h0l1,.13,2-2.19.23-1.89,1.45-.68-.3-2.77L226,232.32l.48-3.06-2.57-5.53-1.56-.71-.32.58-1-2.15-.71.94-1.92-1.45,1-1.29-1.43-.41Z"/><path id="FR-D" class="cls-1" d="M299.5,152.33h0l-1.14-2.5-1,.16-.28,1-.88-.57,1-1.45-.6-.92-1.88-.08.76-1.2-.5-.8-2.86-.82-3.73-.24-1.31,1,.57,1.76-7.38.31-.67,1.67-1.48-.24-.56-1.91-1,.21.23,1.19-1.08-.83h0l-.39.2h0L274,149.63l-1.54-.91-.47.94-1.24-.79-3.37.61.57-2.31-.58-1-.44,1L266,147l-.39-1,1-.51-1.53-1.33-.95-3.38-1.59-.68.27-1.53-1.05-.38.26.82-1.71.75-1.13-2.3-1.58.24,1.3-1.88-.64-.32.56-1.67-1.28-.7.31-.77-2.57-3-1.15-.45-1.18.81-.43-1.45h0l-1.18-.46-.34,1.28-.89.12-6-.14-1.14,1.1-1.72-.48-1,2.5,1,2.55-1.32,2-2.06,1.08v.93h0l2.84,1.37-.41.79.61,0,.43,2,2.3,2-.78.47.88,2.14-1,1.19h0l-.18.16h0l-2.45,1.7-.41,1.78,1.13.8-.22,2.87-5.34,1.35-.12,1.84.94-.15,1.47,1.75.83,1.68-.51,2.1,1.23,1.34-3.57,1h0v-.16h0l-.38.57,2.54,4.53-1.94,4.51,3.5,3.47,1.5,6.34-.39,2.56,1.85,1.82.05,3.06-.93,2.16.61,2.5-1.16,2.55h0l.82,2L246,206.1l2.14-1.82,2.39,1.48,1-1.29,1.27-.05,1.11,2.79,3.2-1.68-.4-1.51,1.51-.06-.25-1.68,1.12.31.41,2.14,3,4.69.17,2.83,1.95.89,1-.56.93,1.92,2.48-.21,1.53,1.38-.73,2.81.27,3.1.61.06-1.79.26-1.46,2h0l-.26,2.72,2.53.52.51,1.48,3.49-1.31,2.32,1.1.9-.91.56.74.88-.43-.14,1.29.78.09,3-1.31,1-4.86,1.63-.06,1.39,1.31,2-1.17,1.54,1.26.58-1.57,1.31-.23.94,1.22-.95.87,1.74,1.14-.51,1.71,1.19,1,.66-.18,5-15.19.29.79,1-.62,2.24,1.36,3.38-.88,0-.68,1.17.6.91,2.12,2.42.52h0l.29-.75,2.86-.61.12-1.14-1.89-.77,0-1.89,1.41-.87-.26-1.28,1.4-1.21-1.42-2.11-.08-1.94-1-.06.95-1.82-2-2,4.26-1.13-1.94-1.25-.1-1.07-2.15.22-1.08-2.34-.92.49-.3-2.22,2-1.57-1.32-.62.26-1,3.11-1.49,1.66-2.81h0v-.23h0l1.51-6.26,1-.65-1.43-.6h-.1l.81-1.12-.36-2.36h0l-.12-.07h0l-1.27.09h-.19l.2-2.62-2.21-.64,1.27-.58-.63-.18.35-.8,1.52.06,1.5-2.63-1.72-3.39-1.43,1.61-.69-.47h0l-.53.63-1.48-.83-1.69,1.48.23-2.06-2.63-1.36.15-1.28L305,162.39l-2-1,.22-1.23-1,.14,0-.83-1.85,1.11-.3-3.47-1.33-.23,2.35-1.87-1.18-2.68Z"/><path id="FR-E" class="cls-1" d="M47.77,174.14l.92,1.1,1.87,0,.54,1.57,2.4.68-.42,1.26-5-.74-.76-2.23Zm.71-68,.16,1.66,4.12-1.68v2.25l2.27-.14.24,1.09-1.22.91,3.53,1.14L57.07,113,61,116.33l-.15,2.48,3.33,1.83-.82,1.45.86-.37,1.2,2.08-.27-2.08,1.7.49,2.23-3.6,2.49-1.06-.46-1,1.58-.35.53,1.09,3.12-2.76,1.07.94-1.64,2.25.71.46,2.17-1.59,1,2.66-.43,1.71.87-2.81.52,1.6.88-1.94.8.81-.84-1.52,3.21-.25.32,1.81,1.23.8-.55.51L87,121.21l-.38,2.25.63-1.42.81.27-1.49-3,1.21.64-.41-1-1.59-.33.46-.78-1.09-.9,1.28-2.27L91,113.39l.24,1.53-1,1.92L93,118.41l6.32-1.4h0l2.56,6.73,2.07,1.3,2.07-.37,3.08-3.47,5.65,1.65h0l-.34,4.33,1.11,4L113.76,134l.69,2.9h0l.12.12h0l1.79,9.07-4.26,1.76-2.81,8.6-3.59-1-.76-1.32-2.79-.33.18,1.48-4.58,1.8-1.16,2.45-6.16.05-2.92,1.69-.56-1-3.34,2-.5,5.32-1.82.51-.2,1.44-.65-1-1.85.82-1.65-1-.58,2.51-2.59.21-.67-.94-1,1.31h0l-1.16-.09-.19-1.91,1.86-.28L70.45,168l-9.4,1.73-2.95-3H56.51l-.81-1.2-.47.6-.62-1.17.15,1.14-3.18-.1-.14,2.53,1.48,2.05-1.59-.2-1-2.55.85-.7-.45-2.31-4.2-4.09-2.28,0-.17-1.13-2.69.68-2.27-3.1-4.66-.56L33,155.18l-3.91.65-1.45-2,.63-1.1-.89.39-1.1-2.39L25,151.6l.44,1.32-2.05.53-2-1.3-1.25.68-1.38,2.75H13.34l.29-4.19L11.7,148l-2.76-2-1.79.24L5.2,145,2,144.48l.92-.21-.23-1,9.16-1.95,3.43.82,1.16-1.87-1.49-3.41-4.55-1.61-1.08.31-1.84,2.85-.41-3,.89-.67-2.41-.25-.2-1.16,1.79-.12,0-2.23,1.21-.48-.72,1.75.63.86,1.1-1.26-.09,1.41,1.56-.73,1.64,1,2.8-1.07,1.43.82,1.2-1.55-.8.66-2.75-.72,1.06-.72-.89-.42.41-1.05-1.69,1.67-1.34.07.61-.81-1.87.73,1.78-2.62-.72-.58L6,130.68l-2.27-.78L2.91,131l-2,.1-.54-1.47.88-1-1-1.43,1.05-2.49-.49-2.23,1.45-1.88,3.67-.94L6,118.41l1.3.29L8,116.89l1.32.73,3-.75-1.09-.8L14,115l1.54.59v1.44l3.1-.85-.84-.32,1.11-1.31,2.66-.39,1.25.89.19-1.38,1.4-1,.19.73.95-.72-.06,2.47,1.24.53.19-1.68,0,1.15,2.38.63-.27-1.35.72-1.16.34.64-.09-.86,4.41,1.54,1.1-.45-.45,1.72,1.09-1.27,1.27.74-.05-2.53,1.07-1-1.1-.56.54-1.77-.62-.51,1,.67,1.55-2.22.4.88.33-.8.66,1,1-.24-.39,1.06,1.31-.1,2.4-1.78,1.75.19Z"/><path id="FR-F" class="cls-1" d="M193.78,102.78l1.9,2.33-.53.94,1.61,1.44-.52,3.65,1.39.66-1.53,2,1.08.65-.31,1.1,2,2.36h1.51l-.19,1.73,2.4,1.09-.35,1.87.79,2.15,2.1,1.21,1.86-.77-.08,2.36,1.53.21.33,1.75-.94,2.45.45,1,5.88-.48-.37-.81.91.22.67-1.51,1.31.56v1.54l1.64-.64h0l.16-.3h0l.74-.65,1,1.16,1.39-.36.6,2.58,2.87,1.55,0,2.7-1.06.11-1.21,1.87,3.55-.78,4.5.8,1.49-1-.55-1,.82.62,1.11-.71.63,1.79,1.43-1.21,2.18-.32h0l2.84,1.37-.41.79.61,0,.43,2,2.3,2-.78.47.88,2.14-1,1.19h0l-.18.16h0l-2.45,1.7-.41,1.78,1.13.8-.22,2.87-5.34,1.35-.12,1.84.94-.15,1.47,1.75.83,1.68-.51,2.1,1.23,1.34-3.57,1h0v-.16h0l-.38.57,2.54,4.53-1.94,4.51,3.5,3.47,1.5,6.34-.39,2.56,1.85,1.82.05,3.06-.93,2.16.61,2.5-1.16,2.55h0l-3.4.09-2.29,3-1.47-.41-1.15.8L231.1,203l-.44,1.2-2.38,1.26.11,1.42-.7-.57-1.07.55.79.88-.9,1.37,1.14.63.34,1.84-2.4,1.52-1.53-.6-3.88.71L219,215.29h-.77l-.54,2.25h0l-2.58-.39-3.33.82-3.37-1.47-4.29.77-1.73-1.37-1.08.28.38,1.11-.95,1.56-1.34-1.25-1.75,1.34-.59-1.48-2,1.28-.59-1.51-3.4,3.58-1.88-2.38-1.26.21-.29,1-2.62.26-.28-1.08-1,.22h0l.56-.74h0l.48-1.42-1.88-.66-.2-2.61-1.58-1.31-2.25,0L178.8,211l-3.2-1.52-.55-1.26,1.08-2.89-.45-1.47-3-2.78-.58-2.71-2.82-2.4-.39-3.17-2.28-1.52-1.53.07.94,2.2-2.85-.08-2.06,1.32-2.25-.89-1.28.84-1-2.7.66-.35-.3-2.38-1.07.39-.71-1.31-2,.57.67-1.47-.56-1.07-.61.64-.84-.28.17-.8-1.85.27-.81-2h0l.71-5.3,3.23-4.52-.91-.8,2.11-4.57.14-1.23-1-.54,1.22-2.61h0l0-.38h0l4.66,1.58.59-.37-1.18-1.87.58-1.09,2,1.11.45-1.17,4.06-1.23.7-1-.71.21-.31-1.34,1.26-1.54,2.3-.69-.28-.74,2.34-2.23L171,150.8l.89-.51.66,1.08.13-2,1-.37-.94-2.1.73-2-1.39-.34L172,143l1.52-.11.07-1-1-.21.85-.2.3-1.36,2-.25-3.63-2.55h0l1-.88-1.3-2.18.56-1.3-1.56-.49.45-1,4.42-2.32,1.91-3.13-1.23-1.67.94-2.18L172.8,118l-.11-2.69h0l1.48-.82.4-1.29,3.46-.46h.63l1.65-1.53,1.6.54.2-2,3.1,1.46,3.37-.15,1.23-.92-.31-2.48,3-1.75-.38-2.41Z"/><path id="FR-G" class="cls-1" d="M296.26,45.41l1.87.84-.89.81.14,1.52-.65-.65-1,1.75.65,1.28-1.58,3.31,3,2.82-1.27,2,.86,2.24-.71,1.27,4.42-.34,3,1.77,2.21,3.3,3.21-.12,1.88,2-.54,2,1-.94,1.48.68h0l-4.1,3.54-.85-1.31-2.19.31-.62-1.31-.95-.08-.69,2.36h0l-.05.28h0l-.9,1.69,1.6,2,.12,1.81-1.18.8.74,1.14-1.45.52-.89,2.7,1,.75-.18.93-3.06,1.74,1.26,1.32-1.62,1.13,2,5.44L300.26,99l1.33-.66.85.56-.06,1.43-1.23.43,1.39.47-.71,1.61-2.4,1h0l-.13.13h0l-.66,2.18.77,1.2L298,109.37l3.67,2.63-.33,5.87,1.79-.78.43,1.69,1.47,0,2.86,3.11,3.56.87,4.32,4-2.32,1.47,1.49.55-.47,2.21,1.61-1.14,1.39.38,2,3.41.7-.83,1.29,1.11-.37,1.21,1.41.35,1.3,1.67-1.51.86-.3,3.26-1.31,1.05,2.11.4.78,1.51,1.69.47.33,3.7,1.83-1.06,1.16,2.28h0v1.17l-1-.28-.88,1.61.18.86-2.06-.33-.59,1.79-1.55,0-.46,1.9,1,1.47-.55,2.83-2.89.57-.9-1.6-1.29,1.57-3.54-.07-1.17,3.18h0l-.53.63-1.48-.83-1.69,1.48.23-2.06-2.63-1.36.15-1.28L305,162.39l-2-1,.22-1.23-1,.14,0-.83-1.85,1.11-.3-3.47-1.33-.23,2.35-1.87-1.18-2.68h-.41l-1.14-2.5-1,.16-.28,1-.88-.57,1-1.45-.6-.92-1.88-.08.76-1.2-.5-.8-2.86-.82-3.73-.24-1.31,1,.57,1.76-7.38.31-.67,1.67-1.48-.24-.56-1.91-1,.21.23,1.19-1.08-.83h0l-.39.2h0L274,149.63l-1.54-.91-.47.94-1.24-.79-3.37.61.57-2.31-.58-1-.44,1L266,147l-.39-1,1-.51-1.53-1.33-.95-3.38-1.59-.68.27-1.53-1.05-.38.26.82-1.71.75-1.13-2.3-1.58.24,1.3-1.88-.64-.32.56-1.67-1.28-.7.31-.77-2.57-3-1.15-.45-1.18.81-.43-1.45h0l-1-4.16,1.68-.49-1-1.74,2.29-.63-.49-1.34,1.51-.89-.38-.69,1.78-.55-1.2-.76.43-.62-2.56.52.53-4.77-2.27-.94,1.5-1.48-1.22-.85,2.57-.24-.06-1.78h0l1.32-2.79,1.3-.12.11-1.16.9-.16-.4-.81,2.7-2.51L259.83,98l-2,.29.06-1.09,1.57-.79-1.15-2L259,93l2.55.38,1.33-.77,0-1-1.06.2-.48-1.4-.52.45-.87-.74.75-1-1-3.71,4.08-2,2.26.54.14-1.67,2.09-1.25,1.11,1.39,2.36.8.05-3.68.94-.34-.84-2.89,1.17-.84-.91-1,.87-1.25-1.68-2.4.55-.75,2.27.22.35-2.13,1.8-1,2-2.76-1.35-1.09,1.45-4.2.07-1.69-1.17-.47.45-2.14h0l2.39-.5,4.19,1.51L289,53.39l2.91-.42-.39-3.37.68-1.38,3.75-3.5Z"/><path id="FR-H" class="cls-1" d="M417.38,423.3l.9-2,2.09-.21,1.33-1.68-3.19-1.09-.94.6-.21-1.7-2.09.81-.07-.73-1.41-.05,2.21-1.48-.57-1.06,1.83-.39.37-.85-1-.52,1.15-.22-.3-1.34.76-.52-1.69-1.56-.9,1-3.42.58.47-1.69-.94-1.25,1.72-.14.36-1.8,2.69-1.54L415.06,402l-1.25.49L412.35,401l-1,.28.13-1-.85.24,1.11-.93-1-.13.61-1.42-1.26-1.32,4.76-1.21-1.06-1.48-1.71-.14.32-1.82-1.91.65-.25-1.71,2-.46-.11-1.24,1.53.05-.21-1.13,1-1.1-.95-.4.54-1.54,1.66-.4-.43-1.84.6-.63.05,1,.85-.42,1,.74.4-2,2-.24,2-1.6,2.55.23,1.39-.84-.08-1.47,2.06-1.46,3-.16,2.37,2.44,1.41-2.47-.07-2.46-1-1.59.95-1.36-.56-1.43,1.2-1-.65-2.92,2.56-.73,1.24,1.05.9,7.5-1.44,5.5,2.67,5.29.79,14.62-.28,3.8L437,408.5l-.78,12.64-1.36.54.39.63-1.43-.48-.9,1.32.27.87.94-1.23,1.57.44-.79,1.44-2.14,1.17.15,2.72-1.71.88-.43,1.2,1.74-.61-.19.6-1.18,1.93-1.27.1-.7-1.15-2-.07.84-1.78-1.56-.27.29-1.5-1.23,1-1.26-1.36-.46.65-1.94-.62-1.36-1.43-1,.26.34-1.19-2-.36.53-.79Z"/><path id="FR-I" class="cls-1" d="M328.53,149.63l1.49-2.36.84.42-1,1.38.67.1,1.64-.94,1.14-2.15,2.93-.73h0l.07.06h0l.34,2.37,1.71,1.34h0v.23h0L344,148l1.42.87,1.32,2.57,3.84-2.76,1.32,1.92,5.82,3.75h0l.92,1.8,2.28.52,3,2.19.28,2.33L363,164.39l2.48.42,1.76,3.1-.33,1h0l-4.6.41.58,1.84-1.9.94-1.88,3.63,4.22-.91,1,.48.21,1.29-1.39.41-.42,1.36-1.65.34.38,2-3.5,3.2.54.32-.62.71-4.18,3,.5,1.4-3,2.61-3.83.84-2,2.07,1,1.75-1,3.44.66,1.67-10.51,8.85,1.43,1.4-2.59,3.67-.24,2.08h0l-6,6.71-4.44.17-.35-2.14-2.07-.66-.11-.91-3.2,3.37-2,.19.05-2.27h-1.18l-.39-1.44-.63,1.66-1.31-2.65.49-.54-2.4-1.37.48-1.47h0l.29-.75,2.86-.61.12-1.14-1.89-.77,0-1.89,1.41-.87-.26-1.28,1.4-1.21-1.42-2.11-.08-1.94-1-.06.95-1.82-2-2,4.26-1.13-1.94-1.25-.1-1.07-2.15.22-1.08-2.34-.92.49-.3-2.22,2-1.57-1.32-.62.26-1,3.11-1.49,1.66-2.81h0v-.23h0l1.51-6.26,1-.65-1.43-.6h-.1l.81-1.12-.36-2.36h0l-.12-.07h0l-1.27.09h-.19l.2-2.62-2.21-.64,1.27-.58-.63-.18.35-.8,1.52.06,1.5-2.63-1.72-3.39-1.43,1.61-.69-.47h0l1.17-3.18,3.54.07,1.29-1.57.9,1.6,2.89-.57.55-2.83-1-1.47.46-1.9,1.55,0,.59-1.79,2.06.33-.18-.86.88-1.61,1,.28Z"/><path id="FR-J" class="cls-1" d="M200,89.16l1.11.35-.39,1.38H201l.55.91,1.5-.45,2.45,1,3.66-.61,2.42-1.61,2.76,2.19,1.47-.74.45,1.31,1.61-.4.87-1.25,1.35,1.8.53-.55,2,.62-.18.61.79-.35,1.35,1.08-.41.53,1.28.31.63-1.16.95,2.09,1.52-1.34,3.11,2.22,2.28-1.68,1.34,1.24,3.6-1,.58,1,.66-1,1.77.3.1-1.49,2.1.51,1.6,2.62L245,99.41l2.58,1.86.41,1.57,1.23-.46.74,1.9,1.19-1,.47,2.63,1.93.54.47,1.06.74-.68h0l.06,1.78-2.57.24,1.22.85-1.5,1.48,2.27.94-.53,4.77,2.56-.52-.43.62,1.2.76-1.78.55.38.69-1.51.89.49,1.34-2.29.63,1,1.74-1.68.49,1,4.16h0l-1.18-.46-.34,1.28-.89.12-6-.14-1.14,1.1-1.72-.48-1,2.5,1,2.55-1.32,2-2.06,1.08v.93h0l-2.18.32-1.43,1.21-.63-1.79-1.11.71-.82-.62.55,1-1.49,1-4.5-.8-3.55.78,1.21-1.87,1.06-.11,0-2.7-2.87-1.55-.6-2.58-1.39.36-1-1.16-.74.65h0l-.16.3h0l-1.64.64V131l-1.31-.56-.67,1.51-.91-.22.37.81-5.88.48-.45-1,.94-2.45-.33-1.75-1.53-.21.08-2.36-1.86.77-2.1-1.21-.79-2.15.35-1.87-2.4-1.09.19-1.73h-1.51l-2-2.36.31-1.1-1.08-.65,1.53-2-1.39-.66.52-3.65-1.61-1.44.53-.94-1.9-2.33h0l-.27-1.26.81-.53-1.49.13.25-1.79-.93-1.84,1.23.13L194,96l.34.76h.16l3-.76Z"/><path id="FR-K" class="cls-1" d="M239.28,295.2l1.76-3.07.22-3.64.8-1.62.82.17.14-1.39h.18l.68-1.63,1.85,1.78,1.36-1.09.18-2.07,1.35.38,2.62-2.09,1.35,1.44,0,1.89,1.89,3.84,3.39-.71.15-2.15,1.12-.24,1.33,1.07-.2,1.2,2.37-.4.54,1.61,1.48,1.57,1-.33-.22,1,.79.16h0l1.29,6.45,1.52,1,1.1,4.24,2.48,2.86-.88.6.24,3.1,2.52-.76,3.92,3.07,2.12-3.14,2-.35.11,2.4,1.31.31.46-2.36,1.6-.23,4.43,3.13h0l.73,2.36,1.05.05.43,1.15,0,4.51,2,.68,1.79,3.26-.94.05v1.06l-5.31,4.1.8.93-1.69,5.06.47,1.69-2.7-.91-1.68.42-1.83,3.1,1.41.49-.32,1-3.94,2.28-.62-.82.31,1.14L278,344.06l-.33,1.67h0l-2.93-1.09-.49-1,.62-1-1-.88-4.14.31-7.62,6.13-2.48.72-4.22,4.89.15-.73-.2.68-5.29-.87.27.89-4.94,4-3,4.88-1.16,3.83.51,1.95-1,8.94.56,6.81,2.88,1-.34,1.4,1.36,2-2.72.38-1.4-2-2.27.31-.61-.69-.91,1.07-2.4-.1L233,389.58l-1.38-.51-1.81.81-.7.76.61,1.9-2.92-.73-1.43,1.06-1.48-.3-1.51-2.21L217,388.51l-1.7.92-1.41-.32-2.16,2.54-2.12.58L208,390.82l-.91-2.93-1.64.15-1.78-1.57-2.9-.34.29-2.52,1.48-.77h0l2.54-.26,1-1.46,2.24-.07.75-1.85,5.1-.08.4-.75-2.82-2.93-2.48.75-2.79-1,.38-.74-2.06-2,.5-1.21,3.42-.76-.19-2.47-1.42-.54.73-.91,1.5.06-1.14-1.91.49-1-1.35-.76.67-.73-.34-1.85-1.14-.86-.78.75-1.19-1.86v.58l-2.06-.24-2.33-1.63.49-1.42-1.09-2,1.43-1.72-.41-1.15h2.8l-.37-2.16,1.56-2.11,1.3,2,.71-1.05h0l.18,0h0l2,.49,1.49-1.14,1.09,1.68,3-.87,1.36,1.38.21-2,1.13-1.19,4.25,1.84,1.09-.82,5.39.2,1.86-1.66.2-1.94L228,341.21l.92-4,2.29.65,1.08,1.29,4.65-1.72.49-1.48,1.93-.8,2.33.68.09-6,4.61.89,1.1-.68-.43-1.4.9-1.35,2.43,0,.45-2.35,2.55-2.11.21-1.12-1.83-1.38-1.15.35-.67-1.2-1.09.43-1-1.07,1.83-.64.4-2.14,1.16-.48-.31-1.34-4.85.44.8-1.73-2.13-.62-.28-1.3-1,.55,1-2-1.07-2.36.77-3.21-2.39-2.77.58-2.42Zm-31.79,92.4,1.64.44-.74-1.66Z"/><path id="FR-L" class="cls-1" d="M183.83,219.08l1-.22.28,1.08,2.62-.26.29-1,1.26-.21,1.88,2.38,3.4-3.58.59,1.51,2-1.28.59,1.48,1.75-1.34,1.34,1.25.95-1.56-.38-1.11,1.08-.28,1.73,1.37,4.29-.77,3.37,1.47,3.33-.82,2.58.39h0l.21,1.7,1.43.41-1,1.29,1.92,1.45.71-.94,1,2.15.32-.58,1.56.71,2.57,5.53-.48,3.06,1.58,2.26.3,2.77-1.45.68-.23,1.89-2,2.19-1-.13h0l-.13,0h0l-2.1,1.8,4.16,5.06-.06,3-1.09.06-.77,2L225,255.7l-.94,5.91,1.26,1.19-1.47,1-4.06-1.83.34,3.28-5.09,5,.2,1.76,1,.68-1.62,1.24-.2,2.39-2.29,1,1.37,2.54-1,.85h0l-.26-.07h0l-1.23.32h0l-2.31.07-1.17.95-1.22-1.09L203,283.2l-1.58-.63-3.2-3.95-3.09-.05-.24-.76L192.14,279h0L190,275.27l1.05-.86-3.19-.35-1.63-1.42h0l.15,0h0l.9-1-1.89-.68,1.54-2.16-1.55-.8.28-2.15.88-.05,1.82-2.43-2.09-1,1.14-1.35-5.31-1.85,1.4-2.19-1.56-1-.93.73-2.08-3.49-3.71.43-.88-.95-1.74,2.09-1.86-1.87.71-2.18-1.65-1.23-2.08.31-.72-1h0l2.6-2.29-.09-1.84,2.17.55,1.35-4-.46-2.15,2.16.39,2-2.09-.68-1.79-1.25-1-.8.61-1.35-1.41.63-2-.75-1.19,1.14-.63L172,226.73l1.78-.83,1.59-2.54,3.17.37,1.32-3.66,2.5.67.84-1.87Z"/><path id="FR-M" class="cls-1" d="M314.19,71.74l1.14,1.56.53,3.3,2.58-1.52,1.69,1.08.94-2,3.19.54.83-1.15,2,1,1,2.07,3,.25.48,2,1.84.16,1-.91.83.63.83-1.86,3.44-1,3.86,2.55,2-.78,3.94,2.59-.52.9,1.88,1.72-1,.88,3.16,3.15-.28,1,.88.43.2,1.59.87-.11L354,91.21l.83,1.08,3,.52.82-1.3L357.85,90l3.08-.48,2.92,1.51.53,3.6,1.47-1.94,1.78,1.65,2.73-.44,1.47.7,1-1.34,1.11,0L374,92l2.45-.57-.27.89,1.79-.2L379,95.44l3.18,1.13.17.9h0l-1.8,4.51-1.28,1.15-2.6-1.68-3.88,1.17-1.08-.57.1-.85-5.17-1.5-.87-3.34-.94.57-1.09,5.1-1.28-.24-.37,1.31h-1.06l.33,1.86,2.89.88.06.73,1.37-.16-1.36.86,0,1.31,1.14.2L365.2,110l1.48-.82.83-2,3.28,1.07-.33.67,2,1.88-2.22,3.5.71,1.38,1.2.11-2.65,5L367.88,122l-3.08.15,2.12,1.22-1.37-.26.85,1.35-1,3.51.71,1-1,1.16,1.26.88,1.94-.29.59,1.35-4.29,7.6.53,1.64-2.35,4.05-1.74,1-1,3.69.54.43-1,.87.71,1.87-2.56,1.27h0l-5.82-3.75-1.32-1.92-3.84,2.76-1.32-2.57L344,148l-5.68,1.31h0v-.23h0l-1.71-1.34-.34-2.37h0l-.07-.06h0l-2.93.73-1.14,2.15-1.64.94-.67-.1,1-1.38-.84-.42-1.49,2.36h0l-1.16-2.28-1.83,1.06-.33-3.7-1.69-.47-.78-1.51-2.11-.4,1.31-1.05.3-3.26,1.51-.86-1.3-1.67-1.41-.35.37-1.21-1.29-1.11-.7.83-2-3.41-1.39-.38L314.44,131l.47-2.21-1.49-.55,2.32-1.47-4.32-4-3.56-.87L305,118.8l-1.47,0-.43-1.69-1.79.78.33-5.87L298,109.37l1.44-2.05-.77-1.2.66-2.18h0l.13-.13h0l2.4-1,.71-1.61-1.39-.47,1.23-.43.06-1.43-.85-.56-1.33.66,1.2-2.21-2-5.44,1.62-1.13-1.26-1.32,3.06-1.74.18-.93-1-.75.89-2.7,1.45-.52-.74-1.14,1.18-.8-.12-1.81-1.6-2,.9-1.69h0l.05-.28h0l.69-2.36.95.08.62,1.31,2.19-.31.85,1.31L313.5,71h0Z"/><path id="FR-N" class="cls-1" d="M144.21,352l.18.12h0l.76,1.86-1.28.92-.57-1.3.6-1.42h0l.21-.17h.1Zm.91-2.53.18,2.64h0l-.52-.13h0l-.74-.71.9-.36-.12-1.59h0Zm47-70.51,2.77-1.17.24.76,3.09.05,3.2,4,1.58.63,3.26-2.38,1.22,1.1,1.17-.95,2.31-.07h0l1.28,2.39-.36,2,2.47,3.66-1.29,4,.9,0,.37,2.46,1,.9.39-1.39,2.4-.79,1-.09.79,1.29,4-.44.48-1.64,1.87-1.34-.31-1.44,1.55-1.67.13-2.32,4.07-4.13,1.15,1.27,0,2.42,2.67-.8.88,3.68,1-.2.51.85-.78.55.78,3.51,1.37,1.52h0l3.19,3.67-.58,2.42,2.4,2.77-.77,3.21,1.07,2.36-1,2,1-.55.27,1.3,2.13.62-.8,1.73,4.85-.43.31,1.33-1.16.48-.4,2.14-1.83.64,1,1.07,1.1-.43.67,1.2,1.14-.35,1.83,1.38-.21,1.12L250.86,325l-.44,2.34-2.43,0-.91,1.35.43,1.41-1.1.67-4.61-.89-.09,6-2.33-.68-1.92.81-.5,1.48-4.64,1.72-1.08-1.3-2.29-.64-.93,4,1.81,2.14-.19,1.94-1.86,1.65-5.4-.2-1.09.82L217,345.69l-1.12,1.2-.21,2-1.36-1.38-3,.88-1.08-1.68-1.5,1.14-2-.5h-.17l-.71,1-1.31-2L203,348.54l.37,2.17-2.81,0,.42,1.16-1.43,1.72,1.08,2-.48,1.42,2.32,1.64,2.07.23v-.58l1.2,1.86.77-.75,1.14.86.35,1.85-.67.73,1.35.76-.49,1,1.14,1.92-1.51-.07-.72.92,1.41.53.2,2.47-3.43.76-.49,1.21,2.06,2-.39.73,2.79,1,2.48-.75,2.83,2.93-.4.75-5.11.08-.74,1.85-2.25.07-1,1.46-2.54.26h0l.18-.57-2.05-.1L201,381l-4.2-.4-1.49-1.22-2.17.17-.07,1.56-1.23.47-2.49-4.84-3.85-.36-1.88.8-2.77-3.32-2.94.07-.72-.8-1.05.69-6.7-3-1.52.93.34,1.43-.78.91.67.32-.76.85,1.11,1.18-.08,1.48L166,377.3l-5.38.62-1.92-1.38-2,2.11-1.06-1.77-2.57-.88-5.48,2.17-1.68-.3-.36-1.05-1.34-.35-1.47-3-.85.46L138,371.31h0l-.44-2.83,1.42-.7-.2-3,.83-1.33,2.48-.62-.4-2.61,1.45-.62.88-2.14,1.52.12-.16-1.93.73.18,1-2.19-.89-1.3,2.33-1.89-1-1.1.09-3.08-2,1.46,0-2.2,1.46-.38L145.64,342l-.84.2-.09-1.63-2.48-.6-1.89.57-.27-1.4-1-.11-.06-1,1.22-.5-.24-2.22,1.7-1.27-1-3,1-.07-.46-2,.68-.45-1.64-1.25,1.85-1.77,2.57.46,1.82-2.38,1.33,1.29-.85,1.06,2.46,1.4.52-.87-.63-1.91,2.19-1.71.92,1.23,1.08-1.8,1.2-.3,2.14,1.33.44-.8,3.93-.83.58-1.17,2.92,0,1.14-1.07,2.18,2.38,2.34-1.59.54-1.95,1.28-.15-.28-1.39,2.25.73,1-.48-.27-1.59-1-.38,1.64-.28,1.35-3.57-2.5-1.53.83-3,.74-.12.64,1.66.33-.7,3.37-.17-.18-2.61L179,303.8l0-2.63-1.09-1.6,1,.3,2.73-1.56-.29-.87,1.81-1.95-.18-1.33,2.31-.6,2.83-2.43-.54-2.41,2.08-.65-.12-1.41,2.4-1.54-.86-1.38.89-.25-.86-3.33h0l-.13-.51h0Z"/><path id="FR-O" class="cls-1" d="M226.36,1.91l.4,2.56,1.78,2.69L227.26,8.5l.29,3.41,1.1,1.81,2.69.1L233.53,18l1.61.07L237,19.56l1.41-2.9,6.1-1.84L245.72,18l2.13,1.14-.66,2.11,1.61,6.45,2.6,1.6,2.19-.74.85-1.29,1.35.47-.56,1.74,3.32-.42,1.6,1.9-.06,4.17,1.54,3.09L262.84,36l3.16,0,1.59,1.21,3.77-1.54L273,37.9l1.25.36.64,2.18h.91L275.6,39l1.42.82.39.92-2.16,1.91.14,2.39-.82,1.41,2.21,0,.92,3-2.15,1L275,53.75h0l-1.72.5L270,53.1l.05-2.43-2.91,1.66L266.65,51l-4.84-1.54-1.56.76-.13,1.15-1.4.21-2.16-1.41-1.63,1.74L251,51,250,52l-1.58.07-.59-.86-2.65,1-2.41-2-2.45-.31-1.34.84-1.56-.36-1.73,1.37-.19-2.72-3.4,1.6,1-3.22-1.57-.69-.69,0-.11,2.19-3.93-1.54.06-1.28-.78-.12-.59,1.38-.57-1.3-1,.13L222,48.6l-1.31-1.06.36-2.1,3.29-2L223,41.77l-1.39-.2-1.46,1.34-.81-1.55-.16,1.24-1.76-.75-3.71,1.84-.61-.92-1.36.43-.28-2.47-4-1.71-.45-.56,1-1.05-.55-.46-1.2.94-3.18-2.37L198.77,37l-.71-1.07h0l-2.7-2.33,1-6.63,1.49,1.21L196,25.48l-.42-7.57.13-.71.28,1.16.55-.76.61-3.46-1-3.27,2.47-.73,2.57-2.84,3.87-1.25-.9-.17,7.8-2,.39.5L214,2.69l-.34.87,1,.91.51-1.78.25.57,4.56-1.56.86.61,5-2.06Z"/><path id="FR-P" class="cls-1" d="M88.17,65.79l1.46,1,1.08-.56.85,1.3L97.9,69l-.14,1.1.38-1,3.73-.52.43-1.37,6.39,0,1.11,4.23-.8-.28-.54,2,0-.66-.79.15-.36,1.63,4.39,6.64-1.07,3.42L112.09,83l1.2.88,1.27-2.16,3.36-.36,6.46,2.28,11.1.75,3.54,1.9,1.1-.39.64,1,6.8-2.08,3.95-3.59,3-1.26L151,79.78l5.36-.09h0l1.25,4.37-.9,1.14.86.91-.43.61,1.64-.64.64.55v1l-1.94.74,2.27,1.77-.28,2.65,1.47.6L160,95l.58,1.44-1.6,1.06,2.47,1.73-2,4.85,2.12,1.55,3,.21.92-.87.27,1,.8-.27-.16,1.07h.81l-.83,1,4.53,3,.49,1.38L170,113.64l1.28.54.06,1.2,1.38,0h0l.11,2.68,4.53,4.1-.94,2.18,1.23,1.66-1.89,3.13-4.44,2.33-.45,1.05,1.56.48-.55,1.3,1.29,2.18-1,.88h0l-1.83.28-2.6-3.48-.45,1.41-3.17-.72L162.68,132l-.31.53-2.68-1.07-.3-4.76-2.51-2.59-4.8,1.08.38.74-2.63,1.51-.41,1.43-1.81-.91-1.54,1v-3.54l-2.95-.26-.83-2.48.87-.81-1.91-1.65-1.29,0,.24,1.29-.92,1.35-1.54-.7-1,1.77-1.34-1.19-3.48,0-1.27,1.66-3.08,1.34-.37-1.9-.78.78-1.27-.23.52,1.08-1.42.65-.58-1.36-1.08.47-1-2-2,.13-1.44-1-1.49,1.3-2-.87h0l-5.65-1.66L106,124.66,104,125l-2.07-1.31L99.32,117h0l1.83.67,0-.81.63.68,2-.93,2.21.49-1.78-1.24.77-.77-1.88,1-3.74-4.26-.13-3.49L98,107.66l2.26-4.51-.68-.43.16-4,1.63.28-1.72-.83L99.13,100l-.66-1.79L98,89.77l1.43-.15L98,89l-.38,1.16-2.47-5.61L92,82.5l-1.17-6.19L89.6,74.88l1.45-1.74-.25-2.85L90,69l-2.21-.75Z"/><path id="FR-Q" class="cls-1" d="M190,49.72l2.19-.27.11,1.45,8,7.28.68,3.42,1.6,2.49-1.13,0-1.85,3.25.52.67,1.4-.67-1.67,2.4.73,1-.63,1.93h-.13l1.61,2.1-1,1.62.85.68.45-1,1,.37-.57,1.6h0l-.29.19h0l-1.49,2.76.79.08-.56.58,1.21,1.28.35,3.51,1,.81-.46,1.34-.95-1.23-1.5.36L200,89.17h0L197.51,96l-3,.76h-.17l-.33-.75-.65,1.63-1.24-.13.93,1.84-.25,1.78,1.5-.12-.82.54.27,1.25h0l-1.64.78.38,2.41-3,1.74.32,2.48-1.23.93-3.38.15-3.11-1.46-.18,2-1.6-.54-1.65,1.53H178l-3.46.45-.39,1.29-1.48.83h0l-1.38,0-.06-1.2-1.28-.54,1.42-1.43-.49-1.38-4.54-3,.83-1-.8,0,.16-1.07-.8.27-.27-1-.92.87-3-.21-2.12-1.55,2-4.84-2.47-1.74,1.6-1.06L160,95l1-1.61-1.48-.6.29-2.65L157.5,88.4l1.94-.75v-1l-.65-.55-1.63.64.43-.61-.86-.91.9-1.13-1.25-4.37h0l.3-.84-.72.56L151.12,78l-1.46-1.88,2.66-6.41-.9-1.19,1,.44L154,66.43l4-1.6,7.68-5.21,5.72-.87,5.75-2.44,1.82.53,2-.91.31.85-.2-.94,3.3-1.57Z"/><path id="FR-R" class="cls-1" d="M78.24,190.33l1.22.85L79,192.7l2.3,1.16.23,2.45-1.8-2.85-1.64-.06L76.92,192l-.21-1.51Zm36.48-67.49,2,.88,1.49-1.3,1.44,1,2-.13,1,2,1.08-.47.58,1.36,1.42-.65-.52-1.09,1.27.24.78-.79.37,1.91,3.08-1.34,1.27-1.66,3.48,0,1.34,1.2,1-1.77,1.54.69.92-1.34-.24-1.29,1.29,0,1.91,1.65-.87.8.83,2.49,2.95.26V129l1.54-1,1.81.91.41-1.43,2.63-1.52-.38-.74,4.8-1.07,2.51,2.59.3,4.75,2.68,1.08.31-.53,1.42,2.82,3.17.73.46-1.41,2.59,3.48,1.83-.28h0l3.63,2.55-2,.25-.3,1.36-.86.2,1,.21-.06,1L172,143l.11,1.54,1.38.34-.73,2,.93,2.1-1,.36-.12,2-.66-1.07-.89.51.24,3.13-2.34,2.23.29.74-2.3.69-1.26,1.55.31,1.34.71-.22-.69,1-4.07,1.23-.45,1.17-2-1.11-.58,1.08,1.19,1.87-.6.39-4.65-1.59h0l0,.39h0l-1.23,2.6,1,.54-.14,1.23-2.11,4.56.9.81L150,178.94l-.7,5.3h0l-1.1-.5-.81.67-.9,3.32-1.54-.63-1.32,2.09-1.54-.72,1.13-1.5-1.27-.22-.63.63-1.88-.51-4,.65-.35,1.1-2.26.6.67-1.27-1.09-.08-1.89.87.39,1.42-1.69,1.6-2.2-.28-1.35.87-2.24-1-2,1.6-1.34-.2,1,.56-.45.72.93,0-.35.49,1.59.6-.71,1.62,1.71,2h.13l1.22.82h.21l.81.53-.62.57h0l0,.18h0l-.07,1.67,2,2.46-.71.62,1.31,1-.67,1.2,1.32.65-.4,2.06.72,1.92-1.34.53,1.2,2.92-1,2.56.64.28.45-1,2.05,1.28-3.33,3-1.55-.37-.74,1-3.24-1.57h0L122,221h0l-.58,1.1-1.13-.42-1.37.73-.91-.54,1-2.16-3.81.94-.65,1.45-1.26,0h0l-2.64.07-.12,2-3.37-2.84.62,1.9L106.29,221h-3.82L101,218.29l-4.13-.72-5.06-3.32-1.33-5.18-2.8-3.91-6-5.57-.3-3,1.27-.11-.27-.76L85.09,193l.14-1.81,1.56-.9-3.72-3.87-4.53-.81L81,184l-.16-4.32-1.23-.27-2.7,1.69-2.34-2.05-1.72.9-3.48-1.43,1.11-.83.08-1.34-1.65-1.63,3.1-2.23V171.4h0l1.06-1.31.67.94,2.59-.21.58-2.5,1.65,1,1.84-.82.66,1,.19-1.45,1.83-.51.5-5.32,3.34-2,.56,1,2.92-1.7,6.15,0,1.17-2.46,4.58-1.8-.18-1.47,2.79.32.76,1.33,3.58,1,2.82-8.61,4.25-1.75L114.58,137h0l-.13-.12h0l-.68-2.9,1.71-2.88-1.1-4Z"/><path id="FR-S" class="cls-1" d="M197.65,35.59l.44.35h0L198.8,37l4.3-1.49,3.18,2.37,1.19-.94.56.46-1,1.05.44.56,4,1.71.27,2.47,1.37-.43.61.92,3.71-1.84,1.76.75.16-1.24.81,1.55,1.46-1.34,1.39.2,1.34,1.71-3.29,2-.36,2.1L222,48.6l1.92-2.43,1-.13.57,1.3L226.1,46l.78.12-.06,1.28,3.93,1.54.11-2.19.69,0,1.57.69-1,3.22,3.39-1.6.2,2.72,1.73-1.37,1.56.36,1.34-.84,2.45.31,2.41,2,2.65-1,.59.86L250,52l1.05-1,3.91.88,1.63-1.74,2.16,1.41,1.4-.21.13-1.15,1.56-.76L266.68,51l.48,1.34,2.91-1.66L270,53.1l3.28,1.15,1.71-.5h0l2.74,1h0l-.44,2.14,1.17.47L278.41,59,277,63.23l1.35,1.09-2,2.75-1.81,1-.34,2.13L271.88,70l-.55.75L273,73.13l-.87,1.24.91,1-1.17.84.84,2.9-.94.34,0,3.68-2.37-.81-1.1-1.38-2.09,1.25L266,83.82l-2.26-.54-4.07,2,1,3.71L260,90l.86.74.52-.46.49,1.41,1.05-.2,0,1-1.34.77L259,93l-.66,1.44,1.15,2-1.58.79-.05,1.09,2-.29.83,1.35L258,101.85l.4.8-.91.17-.1,1.16-1.3.11-1.31,2.79h0l-.74.68-.48-1.06-1.93-.54-.47-2.63-1.2.94-.74-1.89-1.23.45-.41-1.56L245,99.41l.71-1.77L244.11,95,242,94.5l-.1,1.49-1.77-.29-.66,1-.58-1-3.59,1L234,95.46l-2.29,1.67-3.1-2.22-1.52,1.34-.95-2.09-.63,1.16-1.29-.3.42-.54-1.34-1.08-.8.35.18-.61-2-.61-.54.54-1.35-1.79-.86,1.25-1.62.4-.44-1.32-1.47.74-2.76-2.19-2.43,1.62-3.65.61-2.44-1-1.5.45-.56-.91h-.28l.38-1.38L200,89.16h0l.17-1.55,1.5-.36,1,1.23.46-1.34-1-.8-.35-3.51-1.21-1.29.56-.58-.79-.08,1.49-2.76h0l.3-.19h0l.56-1.6-.95-.37L201.3,77l-.85-.68,1-1.62-1.61-2.09h.14l.63-1.94-.74-1,1.67-2.4-1.39.67-.53-.67L201.43,64l1.13,0L201,61.59l-.69-3.41-8-7.28-.11-1.46-2.19.27h0l2.28-2.11,2.17-4.71,1.41-.46.6,1.42,2.19.58.89-.65L195,39.66l.51-4.18Z"/><path id="FR-T" class="cls-1" d="M104.35,234l2.83,2.38,2.39.45.05,2.43,1.53,3L109.78,245l-1.17-3.57L105,238.18Zm-3.17-9.27,1.12,1-1.43.2.59,1.12,2.71-1.15-.82.73.44.55,1.84-.34,3.52,2-1.78.88-4.68-2.62h-2.21l-.87-1.85Zm12.12-2.62,1.26,0,.65-1.45,3.81-.94-1,2.16.91.55,1.37-.74,1.13.42L122,221h0l.13.2h0l3.24,1.56.74-1,1.55.38,3.33-3L129,217.79l-.45,1-.64-.28,1-2.55-1.2-2.92,1.34-.54-.72-1.91.4-2.06-1.32-.65.67-1.21-1.31-1,.71-.62-1.95-2.47.07-1.67h0l0-.18h0l.62-.57-.81-.53h-.21l-1.23-.82h-.12l-1.71-2,.71-1.63-1.59-.6.35-.48-.93,0,.45-.73-1-.56,1.34.21,2-1.6,2.24,1,1.35-.87,2.19.28,1.7-1.6-.39-1.42,1.89-.87,1.08.09-.66,1.26,2.26-.6.34-1.1,4-.65,1.88.52.63-.64,1.27.22-1.13,1.5,1.54.72,1.32-2.09,1.54.64.9-3.32.81-.68,1.1.5h0l.81,2L152,186l-.16.79.83.29.61-.64.56,1.07-.66,1.46,2.05-.55.71,1.3,1.07-.39.28,2.38-.65.36,1,2.69,1.28-.84,2.25.89,2.06-1.31,2.85.07-.94-2.2,1.54-.06,2.27,1.52.39,3.16,2.82,2.4.58,2.71,3,2.79.44,1.46-1.08,2.89.56,1.26,3.19,1.52.17,1.37,2.24,0,1.59,1.3.2,2.61,1.88.67-.47,1.41h0l-.57.75h0l-.63-.21-.85,1.86-2.49-.66-1.32,3.66-3.17-.37-1.59,2.54-1.78.83,1.66,3.32-1.14.62.76,1.19-.63,2,1.35,1.42.8-.62,1.24,1,.68,1.78-2,2.1-2.16-.4.46,2.14-1.35,4-2.17-.56.09,1.85-2.6,2.29h0l-2,3.36-1.67,0-.2,3.55-1.7,1.22-.53,1.65h-1.57l-1.54,1.91-.87-.76.45,1-1.26.42-.88,2.52.58,3.16L153,268.51l-1.25,2.39-2.43-.91-1.46,1.06-.84,1.65.71.51-1.26.56-.22,1.8-1.35-1L143.22,276l-1.45-.21-2.09-.88-.66-1.21-1,.21-.73-1.24-.78-.15-.63,1.15-.55-1.67h0l0-.19h0l-.71-4-4.3-.78-.69-2.18-.25,1.12-3.68-.31h0l-1.22-4.27-2-2.91-4.62-3-1.64-2.72-5.6-3.25-.84.18.36.9-.45-.89-.05-4.11,3.19-.74-1.39-2.21,1.95-.25,1.23-2.15-.78-1.65.68-.19-.17-1.31L113.17,236l2.08,0-1.5-4.08-1.28-.51.44-.9-1.39-.48.73-.85-1.75.52-1-.81,1.15-2.13,2.77-2.14-.71-1.88Z"/><path id="FR-U" class="cls-1" d="M301,304.78l.3.34h0l2.15,1.31h0l0,.25h0l-1.47.69-1.12,2.91-3-.51-.48-1.93,1.12-2h0l.27-.48h0l.23-.12h0l.51-.12h0l.95-.76h0l.13.32h0l.32,0h0ZM311.82,356l1-1.75-.91-1.06.85-.56-2-2.79-2.48,1.38-5.49.16-2.46-4.23-1.53-.28L298,348l.37-1-.74.43-.63-1.5.51,1.87L296,347l1,1.18-1.7.67,1.42-.1-.5.51,1.32.84,1.18-1-2.47,2.23-7.82-1.37-.74-.86,1-1.74L287,346.05l-9.32-.34h0L278,344l2.51-1.22-.3-1.15.62.82,3.93-2.28.32-1-1.4-.49,1.83-3.1,1.68-.43,2.7.92-.47-1.69,1.68-5.06-.79-.93,5.3-4.1v-1.07l.94,0L294.74,320l-2-.67,0-4.52-.43-1.14-1.06-.06-.72-2.35h0l0-2.55,4.24.72.93,3.67,7.41-3.43,1.49,1.29,1.31-1.37h0l.48-.23h0L306,312.9l2.39.89.6-.86,1.5,1,1.75-.31.92.6-.06,1.93,1.61.15.6,1.38,2.66-.57,1.85-2.51,1.16,1-.26.74,1.45.18.13-.74-1.21-.34,1.32-1.05v-3h-1.22l-.32-1.44-.88-.24.65-1.17-2.5.14-.82-.88-.86.56-1.94-1.59-.35-2.15,1.78.25.65-.76-1-.46-.2-2.2,4.8,1.19.44-1.23,1.09-.1-2.06-1.78,1.56-2.92L321,294.9l2.65.55.62-1,1.24.37,1.25-1.59-1-.69.87-2.29,1.72.56,2.1-.6.9-.91-.95-1,2.1-1.33,1.19.84,2.38-2.09,3.49.53,1.36-.94,2,.82.08-3.66-1.09-.63,0-1.95-3.67-.75,1.27-4.53,1.49.54,1.2-.66,1,2.3,2.65.79,1.1-.13-.19-1.64.92-.71,1,.41,1.11-1,1.63.64h0l1.3,3.92,2.18.25.2,4.72,3.46,2.38,1.44.27.78-.78,2.66,1.67-.69,1.48,2.34,4.57-3.51.25.17,2.49-3.45,3.87.69,2.07,2.16,2.16-1.71.36-.16,2.53,3.3,3.53.37,1.89,5.54,1.48,2.82,2.58,2-.23.44,1.32,2.07.13.18-.78,5.78-.82.56-1.16,1.45.09-.54,1.86,1.48,2-.28,1.78-1.31.58-.32,2.32-2.63,1.38-.26,2-1.88,1,1.06,3.83-3.82,2.71-2.06.27-.18,1.54-.55-1.29-.33.9-1.91-.16-1,1.62-1.6-.1-1.09,2.8.72,1.47-.74.43-.7-1.23L364,342.52l-.69-.67-1.63.38-.79,1.18.6.72-2,2.87-3.14.86-1.35-.6-.88,3.15-4.36,3.18,3.77.24-1,1,.49,1.82-1.21.55.15.8-.8.4-1.82-1.31-2,1.61-3.44.27-.63,2.44L340.49,360l-2.68.26-1.13,2.08.16,1.61-1.85-.09,1.06-.64-.16-1.47-3.17.05-.61-1.16-2.26.15-.15-.94-1.23.93,2,1.45-1.74-.46-1,1.35-1-.13-1.09-.79.47-1.95-1.28,0,.17-1-2.37-.2-.28-1.52-2-.28-.54,1.12L317.82,356l-1.12.74Z"/><path id="FR-V" class="cls-1" d="M267.48,223.93l-.26,2.72,2.53.52.51,1.48,3.49-1.3,2.32,1.1.9-.91.56.74.87-.44-.14,1.29.78.1,3-1.31,1-4.87,1.63-.06,1.39,1.31,2-1.16,1.53,1.25.59-1.57,1.31-.23.94,1.22-.95.87,1.74,1.14-.51,1.71,1.2,1,.66-.19,4.95-15.18.3.78,1-.62,2.22,1.37,3.38-.89,0-.67,1.18.6.9,2.11,2.41.52h0l-.47,1.48,2.39,1.37-.49.53,1.31,2.65.62-1.66.4,1.45h1.17l0,2.27,2-.18,3.2-3.38.11.91,2.06.66.36,2.15,4.43-.17,6-6.71h0l3.24,2.18-2.09,3.64.69,1.51-4.43,1.52-.48.89.93.67-1.14,2.35,2.9-1L336,230l5.13-3.77.44-1.37-1.51.2-.39-2.31-.84-.37,1-2.14,8.2-4.31,5,.11,4.25,1.22-1.52,3.18,2.89,3.31-1.87,3.39-.21,2.92,3.11.58L359,234l1.81-.72,3.16,4.87.2,1.37-1.47,2.27-2.56,1.38-2.85.17-.41,4.89,3.33,3.24,2.6.52-.71,2.28.71,3.62,1.68.46-.17,1,1.56.11.45,1.6,2.24,1.19-2.37,3.42.76,3.12-2,1.92-2.1-.36-1.73,2.2-1.61.06v1.38l-1.35.41-2.5-1.41-4.2,2.16h0l-1.62-.65-1.12,1.05-1-.42-.92.71.19,1.65-1.1.13-2.65-.79-1-2.3-1.21.66-1.48-.55-1.27,4.54,3.67.75,0,1.95,1.08.63-.07,3.66-2-.83-1.35,1-3.49-.53-2.38,2.09-1.2-.85-2.09,1.34.95,1-.9.91-2.1.61-1.72-.56-.87,2.29,1,.69-1.26,1.59-1.23-.37-.63,1-2.64-.55.15,1.72-1.56,2.92,2.06,1.78-1.09.1-.45,1.23-4.8-1.2.2,2.21,1,.45-.64.77-1.78-.26.35,2.16,1.93,1.59.87-.56.81.88,2.51-.14L320,309.7l.89.24.32,1.44h1.22v3l-1.33,1,1.22.34-.13.73-1.45-.17.26-.74-1.16-1L318,317.12l-2.66.57-.6-1.39-1.62-.14.06-1.93-.91-.6-1.75.31-1.51-1-.6.86-2.38-.88.45-3.56h0l-.49.23h0l-1.3,1.37-1.5-1.29-7.4,3.43-.93-3.67-4.25-.72,0,2.55h0l-4.43-3.14-1.6.23-.47,2.37-1.3-.31-.11-2.4-2,.34-2.13,3.14-3.92-3.06-2.51.75-.24-3.09.87-.6-2.48-2.87-1.09-4.23-1.53-1-1.28-6.45h0l1.91-1.05.79-2.52,1.2.66-.18-.92.54.57.87-.6.2-1.67,3.75,0,2.09-3.9,2.74-.43-.54-2,2.56-.75-1-1.73.76-1.3.84.06h0v-.39h0l-.77-1.3,1.5.33L284,275l.66-.39-.3-1.81,1.32-2.71L284,267.87l-1.48.81-1.18-.81.66-1.17-1.2-.71,1.1-.81-1-1.39-1.92.44-1.2-1.35-1.68-.16-1,.38.28.84-2.23.29-.31,1-1.55-.57-.07.92-1-1.91-1.16-.18-1.33,1.82-.46-2.65,2.28-1.78.66-2.62-1.57-3.6-3.39-2.34-1.44-2.62.11-1.47L261,245.29l1-1-.22-2.49,1.21-.71-1.9-1.94.24-1.73,2.66-.16,1.33-1.14-.79-2.39.5-1.56-.88-1,.48-2.26-1.25-3.37L267,224h0l.27,0h0Zm31.58,81.27h0l-.24.13h0l-.26.47h0l-1.12,2,.48,1.93,3,.5,1.12-2.9,1.46-.69h0l0-.25h0l-2.16-1.31h0l-.37-.43h0l-.31,0h0l-.13-.32h0l-.95.76Z"/></g></g></svg>