<svg xmlns="http://www.w3.org/2000/svg" viewBox="0 0 193.7 234.94"><defs><style>.cls-1,.cls-10,.cls-11,.cls-12,.cls-13,.cls-14,.cls-15,.cls-16,.cls-17,.cls-18,.cls-19,.cls-2,.cls-20,.cls-21,.cls-22,.cls-23,.cls-24,.cls-25,.cls-26,.cls-27,.cls-28,.cls-29,.cls-3,.cls-4,.cls-5,.cls-6,.cls-7,.cls-8,.cls-9{fill:#fff;}.cls-1{opacity:0.22;}.cls-2{opacity:0.26;}.cls-3{opacity:0.28;}.cls-4{opacity:0.09;}.cls-5{opacity:0.29;}.cls-6{opacity:0.25;}.cls-7{opacity:0.18;}.cls-8{opacity:0.14;}.cls-9{opacity:0.13;}.cls-10{opacity:0.17;}.cls-11{opacity:0.23;}.cls-12{opacity:0.11;}.cls-13{opacity:0.04;}.cls-14{opacity:0.16;}.cls-15{opacity:0.2;}.cls-16{opacity:0.15;}.cls-17{opacity:0.01;}.cls-18{opacity:0.27;}.cls-19{opacity:0.19;}.cls-20{opacity:0.24;}.cls-21{opacity:0.02;}.cls-22{opacity:0.1;}.cls-23{opacity:0.06;}.cls-24{opacity:0.3;}.cls-25{opacity:0.21;}.cls-26{opacity:0.08;}.cls-27{opacity:0.12;}.cls-28{opacity:0.07;}.cls-29{opacity:0.05;}</style></defs><title>Fichier 2</title><g id="Calque_2" data-name="Calque 2"><g id="_1" data-name="1"><polygon class="cls-1" points="3.51 67.52 0.2 66.88 4.5 61.82 3.51 67.52"/><polygon class="cls-2" points="40.61 79.71 48.44 88.73 44.25 92.1 40.61 79.71"/><polygon class="cls-3" points="62 106.13 56.83 100.83 72.25 99.14 62 106.13"/><polygon class="cls-4" points="12.2 73.19 15.34 83.59 13.89 82.86 12.2 73.19"/><polygon class="cls-5" points="27.2 79.85 18.83 89.61 14.35 89.89 27.2 79.85"/><polygon class="cls-6" points="17.46 65.61 3.65 69.97 0 69.37 17.46 65.61"/><polygon class="cls-7" points="33.17 111.29 27.09 111.38 24.16 104.12 33.17 111.29"/><polygon class="cls-8" points="105.71 205.33 103.61 206.87 111.36 199.59 105.71 205.33"/><polygon class="cls-9" points="110.06 123.21 119.8 108.09 121.72 115.34 110.06 123.21"/><polygon class="cls-4" points="105.95 200.56 106.08 216.78 103.77 221.81 105.95 200.56"/><polygon class="cls-10" points="105.88 193.83 98.75 193.16 133.88 187.45 105.88 193.83"/><polygon class="cls-11" points="135.71 114.92 133.86 100.78 137.29 96.91 135.71 114.92"/><polygon class="cls-5" points="156.34 128.11 148.61 122.88 136.44 111.62 156.34 128.11"/><polygon class="cls-3" points="116.89 156.6 119.51 138.02 122.34 132.9 116.89 156.6"/><polygon class="cls-12" points="106.33 205.89 103.45 205.31 109.59 195.45 106.33 205.89"/><polygon class="cls-13" points="119.25 89.4 113.08 101.07 98.04 85.52 119.25 89.4"/><polygon class="cls-14" points="101.01 30.38 96.16 34.76 93.34 26.6 101.01 30.38"/><polygon class="cls-15" points="108.71 129.64 116.88 119.67 130.71 130.95 108.71 129.64"/><polygon class="cls-16" points="100.72 48.26 99.46 41.21 102.48 39.94 100.72 48.26"/><polygon class="cls-17" points="142.92 167.55 97.86 153.92 130.51 161.44 142.92 167.55"/><polygon class="cls-14" points="71.1 74.29 62.72 87.16 65 79.32 71.1 74.29"/><polygon class="cls-9" points="104.67 13.75 107.32 10.45 107.09 14.39 104.67 13.75"/><polygon class="cls-18" points="113.02 29.83 111.96 33.22 109.4 27.76 113.02 29.83"/><polygon class="cls-16" points="99.95 213.86 108.19 214.95 106.55 222.61 99.95 213.86"/><polygon class="cls-19" points="109.76 87.73 112.43 85.03 120 78.38 109.76 87.73"/><polygon class="cls-1" points="172.62 221.97 158.3 211.12 165.76 203.01 172.62 221.97"/><polygon class="cls-20" points="119.19 145.49 114.96 126.71 118.39 123.05 119.19 145.49"/><polygon class="cls-21" points="123.47 189.01 130.56 201.85 109.44 218.68 123.47 189.01"/><polygon class="cls-22" points="167.44 133.97 151.09 145.47 135.1 138.45 167.44 133.97"/><polygon class="cls-3" points="103.04 26.59 86.98 26.84 85.72 25.35 103.04 26.59"/><polygon class="cls-18" points="103.59 126.4 114.73 130.49 121.66 151.43 103.59 126.4"/><polygon class="cls-5" points="65.06 69.61 59.82 70.75 59.86 64.52 65.06 69.61"/><polygon class="cls-8" points="66.2 0 81.12 3.41 68.06 5.21 66.2 0"/><polygon class="cls-1" points="111.92 226.5 104.94 225.79 114.17 219.64 111.92 226.5"/><polygon class="cls-17" points="42.87 118.94 48.93 104.06 66.12 99.31 42.87 118.94"/><polygon class="cls-5" points="70.17 88.83 89.92 105.22 66.12 99.31 70.17 88.83"/><polygon class="cls-5" points="89.92 105.22 105.76 106.17 114.96 126.71 89.92 105.22"/><polygon class="cls-23" points="135.5 158.48 141.73 128.51 158.5 135.7 135.5 158.48"/><polygon class="cls-6" points="79.42 96.17 90.8 89.2 91.62 94.39 79.42 96.17"/><polygon class="cls-19" points="111.14 216.35 118.43 225.78 107.82 220.44 111.14 216.35"/><polygon class="cls-11" points="97.5 161.15 112.07 161.05 120.19 187.51 97.5 161.15"/><polygon class="cls-24" points="91.88 93.85 92.61 82.71 97.26 92.83 91.88 93.85"/><polygon class="cls-2" points="150.21 168.58 132.07 202.95 142.43 180.71 150.21 168.58"/><polygon class="cls-14" points="126.5 66.75 136.96 65.5 136.1 70.14 126.5 66.75"/><polygon class="cls-7" points="188.26 165.9 169.74 156.6 172.91 153.89 188.26 165.9"/><polygon class="cls-9" points="153.68 183.84 171.35 193.61 158.58 194.78 153.68 183.84"/><polygon class="cls-14" points="100.71 38.34 93.1 40.26 83.3 35.76 100.71 38.34"/><polygon class="cls-24" points="96.04 147.54 86.95 158.09 81.87 152.27 96.04 147.54"/><polygon class="cls-4" points="114.23 5.16 119.58 7.82 127.11 17.17 114.23 5.16"/><polygon class="cls-7" points="120.15 76.98 124.36 81.21 126.32 86.72 120.15 76.98"/><polygon class="cls-24" points="124.95 53.42 129.01 57.07 121.78 58.89 124.95 53.42"/><polygon class="cls-7" points="124.01 209.82 157.48 233.4 146.98 233.38 124.01 209.82"/><polygon class="cls-25" points="138 73.16 134.28 84.36 127.51 73.07 138 73.16"/><polygon class="cls-4" points="126.7 57.51 131.89 48.66 130.93 57.03 126.7 57.51"/><polygon class="cls-15" points="98.62 72.55 104.16 65.64 111 58.08 98.62 72.55"/><polygon class="cls-11" points="77.55 66.33 82.61 65.41 83.56 72.07 77.55 66.33"/><polygon class="cls-9" points="132.57 218.58 148.28 225.67 159.36 234.94 157.62 234.94 132.57 218.58"/><polygon class="cls-20" points="130.8 79.34 133.67 81.05 133.43 90.47 130.8 79.34"/><polygon class="cls-1" points="108.72 6.38 96.41 12.41 87.32 11 108.72 6.38"/><polygon class="cls-1" points="143.86 91.04 148.38 97.44 141.68 97.19 143.86 91.04"/><polygon class="cls-11" points="140.67 52.75 138.28 62.69 135.19 56.06 140.67 52.75"/><polygon class="cls-11" points="144.04 82.1 145.09 87.79 139.4 83.92 144.04 82.1"/><polygon class="cls-8" points="193.7 181.72 175.95 192.9 181.16 180.49 193.7 179.12 193.7 181.72"/><polygon class="cls-11" points="176.4 89.68 165.59 89.29 172.14 86.63 176.4 89.68"/><polygon class="cls-20" points="149.97 102.16 148.29 102.18 138 101.51 149.97 102.16"/><polygon class="cls-8" points="155.39 151.76 162.28 136.18 167.65 135.44 155.39 151.76"/><polygon class="cls-26" points="170.27 70.56 170 80.86 159.58 74.06 170.27 70.56"/><polygon class="cls-13" points="152.09 72.92 139.56 75 142.43 72.26 152.09 72.92"/><polygon class="cls-8" points="172.6 234.94 170.63 220.69 175.7 234.94 172.6 234.94"/><polygon class="cls-14" points="169.54 216.45 181.46 218.54 193.7 224.1 193.7 224.31 169.54 216.45"/><polygon class="cls-2" points="125.79 223.84 125.06 234.94 122.65 234.94 121.78 224.56 125.79 223.84"/><polygon class="cls-2" points="148.11 51.17 152.25 71.76 145.67 62.8 148.11 51.17"/><polygon class="cls-10" points="133.22 132.27 121.53 126.82 134.53 122.21 133.22 132.27"/><polygon class="cls-7" points="133.35 41.2 110.55 46.05 118.03 34.73 133.35 41.2"/><polygon class="cls-5" points="142.39 141.95 140.03 158.35 138.02 148.46 142.39 141.95"/><polygon class="cls-26" points="150.99 142.25 149.51 153.6 146.35 140.43 150.99 142.25"/><polygon class="cls-16" points="178.34 87.72 159.96 72.56 172.84 80.7 178.34 87.72"/><polygon class="cls-27" points="101.99 66.33 113.01 64.7 108.34 71.89 101.99 66.33"/><polygon class="cls-22" points="116.71 148.07 127.06 160.81 118.77 156.75 116.71 148.07"/><polygon class="cls-15" points="177.56 145.52 186.12 165.68 173.63 162.55 177.56 145.52"/><polygon class="cls-6" points="133.2 142.73 127.31 146.03 124.08 140.24 133.2 142.73"/><polygon class="cls-20" points="148.07 181.44 155.47 188.11 143.74 183.4 148.07 181.44"/><polygon class="cls-19" points="134.36 53.98 145.32 60.93 130.87 65.29 134.36 53.98"/><polygon class="cls-23" points="116.8 80.73 109.07 81.84 111.66 74.36 116.8 80.73"/><polygon class="cls-12" points="140.19 96.85 142.53 101.06 132.76 104.73 140.19 96.85"/><polygon class="cls-7" points="174.35 136.86 162.76 136.78 154.83 130.95 174.35 136.86"/><polygon class="cls-17" points="116.78 119.16 116.37 115.88 122.77 106.82 116.78 119.16"/><polygon class="cls-14" points="186.06 128.57 179.78 134.41 177.1 134.21 186.06 128.57"/><polygon class="cls-7" points="156.1 40.1 151.85 60.36 141.17 47.09 156.1 40.1"/><polygon class="cls-28" points="136.33 133.21 131.43 128.17 134.06 126.68 136.33 133.21"/><polygon class="cls-25" points="135.69 178.12 144.3 175.44 158.58 187.25 135.69 178.12"/><polygon class="cls-25" points="126.78 109.56 140.69 119.89 123.1 119.85 126.78 109.56"/><polygon class="cls-2" points="184.69 197.22 172.57 190.96 171.63 188.68 184.69 197.22"/><polygon class="cls-24" points="142.4 146.15 145.91 155.88 135.15 154.85 142.4 146.15"/><polygon class="cls-21" points="154 223.63 157.59 218.3 166.71 226.01 154 223.63"/><polygon class="cls-4" points="138.86 127.84 138.33 125.73 146.1 130.6 138.86 127.84"/><polygon class="cls-12" points="176.61 184.47 177.04 171.82 180.82 177.91 176.61 184.47"/><polygon class="cls-9" points="152.36 134.49 150.1 150.08 142.14 140.74 152.36 134.49"/><polygon class="cls-1" points="145.81 73.05 174.38 76.18 156.35 86.16 145.81 73.05"/><polygon class="cls-2" points="175.81 165.91 173.16 167.91 159.47 159.59 175.81 165.91"/><polygon class="cls-17" points="156.44 156.9 147.87 152.67 150.44 150.25 156.44 156.9"/><polygon class="cls-29" points="179.96 182.47 193.7 183.33 193.7 192.04 179.96 182.47"/><polygon class="cls-23" points="188.04 167.83 192.16 169.29 191.71 178.05 188.04 167.83"/><polygon class="cls-3" points="177.27 195.96 181.13 207.78 161.18 200.29 177.27 195.96"/><polygon class="cls-5" points="193.7 158.9 187 159.59 184.01 147.55 193.7 153.85 193.7 158.9"/><polygon class="cls-10" points="183.55 117.58 193.7 121.18 193.7 130 185.76 138.24 183.55 117.58"/></g></g></svg>